M48
METRIC,LZ,000.000
;FILE_FORMAT=3:3
;TYPE=PLATED
;Layer: PTH_Through
;EasyEDA v6.5.15, 2022-10-09 22:19:18
;792860b319f64621ac1ba377023e4090,0b3a2bb33c9248688526e96ab25d6e06,10
;Gerber Generator version 0.2
;Holesize 1 = 0.305 mm
T01C0.305
;Holesize 2 = 0.701 mm
T02C0.701
;Holesize 3 = 0.889 mm
T03C0.889
;Holesize 4 = 1.600 mm
T04C1.600
%
G05
G90
T01
X039200Y014000
X039200Y015200
X038000Y015200
X038000Y014000
X043020Y012470
X049990Y019850
X042330Y013200
X050000Y021340
X043300Y011000
X026050Y004800
X042000Y011000
X024560Y005500
X041000Y011300
X018200Y016800
X040560Y010550
X035900Y017400
X053940Y012030
X023600Y006300
X027100Y006300
X029244Y018600
X029244Y015000
X046344Y019200
X001100Y025200
X005000Y000800
X023000Y002000
X028000Y002000
X018500Y000900
X010000Y015400
X017100Y003000
X016900Y016500
X018000Y023500
X041635Y004100
X040171Y001865
X043000Y002000
X043000Y005000
X040171Y005094
X019535Y020800
X020500Y023500
X020500Y018500
X018000Y018500
X017807Y020800
X021072Y020800
X026500Y024000
X026000Y019000
X021000Y016500
X022000Y014500
X027500Y013000
X032580Y016970
X035080Y016840
X034170Y012110
X033570Y007830
X030820Y008080
X038360Y002100
X046110Y007550
X048820Y007560
X050930Y010580
X050900Y014820
X054020Y013350
X048360Y016910
X044340Y012530
X050900Y025290
X045200Y020140
X041900Y017900
X049900Y018400
X028601Y008409
X025770Y014890
X030080Y013250
X048300Y020100
X020700Y012100
X018300Y013800
X053600Y006400
X007000Y019700
X038220Y009000
X003000Y007000
X010000Y010600
X049300Y005200
X031100Y024000
X013600Y024900
X031700Y010800
X011200Y001000
T02
X020980Y002435G85X020980Y003135
X029620Y002435G85X029620Y003135
X029620Y006465G85X029620Y007465
X020980Y006465G85X020980Y007465
T03
X053400Y016790
X053400Y019330
X053400Y021870
X053400Y024410
X045790Y001600
X048330Y001600
X050870Y001600
X053410Y001600
T04
X004200Y021340
X004200Y016260
X004200Y009740
X004200Y004660
M30
