G04 Layer: TopSolderMaskLayer*
G04 EasyEDA v6.5.15, 2022-10-09 22:19:18*
G04 792860b319f64621ac1ba377023e4090,0b3a2bb33c9248688526e96ab25d6e06,10*
G04 Gerber Generator version 0.2*
G04 Scale: 100 percent, Rotated: No, Reflected: No *
G04 Dimensions in millimeters *
G04 leading zeros omitted , absolute positions ,4 integer and 5 decimal *
%FSLAX45Y45*%
%MOMM*%

%AMMACRO1*1,1,$1,$2,$3*1,1,$1,$4,$5*1,1,$1,0-$2,0-$3*1,1,$1,0-$4,0-$5*20,1,$1,$2,$3,$4,$5,0*20,1,$1,$4,$5,0-$2,0-$3,0*20,1,$1,0-$2,0-$3,0-$4,0-$5,0*20,1,$1,0-$4,0-$5,$2,$3,0*4,1,4,$2,$3,$4,$5,0-$2,0-$3,0-$4,0-$5,$2,$3,0*%
%ADD10MACRO1,0.1016X-0.6X-0.7X-0.6X0.7*%
%ADD11R,1.3016X1.5016*%
%ADD12MACRO1,0.1016X0.4X-0.45X-0.4X-0.45*%
%ADD13MACRO1,0.1016X-0.5X0.375X0.5X0.375*%
%ADD14MACRO1,0.1016X-0.432X0.4032X0.432X0.4032*%
%ADD15MACRO1,0.1016X-0.432X-0.4032X0.432X-0.4032*%
%ADD16MACRO1,0.1016X0.432X-0.4032X-0.432X-0.4032*%
%ADD17MACRO1,0.1016X0.432X0.4032X-0.432X0.4032*%
%ADD18MACRO1,0.1016X-0.4X0.45X0.4X0.45*%
%ADD19MACRO1,0.1016X-0.45X-0.4X-0.45X0.4*%
%ADD20MACRO1,0.1016X0.45X0.4X0.45X-0.4*%
%ADD21MACRO1,0.1016X-0.575X-0.475X-0.575X0.475*%
%ADD22MACRO1,0.1016X-0.8505X0.6038X0.8505X0.6038*%
%ADD23MACRO1,0.1016X-0.8505X-0.6038X0.8505X-0.6038*%
%ADD24MACRO1,0.1016X1X-0.69X-1X-0.69*%
%ADD25C,1.0922*%
%ADD26C,0.7112*%
%ADD27MACRO1,0.1016X-0.4032X-0.432X-0.4032X0.432*%
%ADD28MACRO1,0.1016X0.4032X-0.432X0.4032X0.432*%
%ADD29MACRO1,0.1016X0.4032X0.432X0.4032X-0.432*%
%ADD30MACRO1,0.1016X-0.4032X0.432X-0.4032X-0.432*%
%ADD31MACRO1,0.1016X-0.8X-1.5X-0.8X1.5*%
%ADD32MACRO1,0.1016X-2.9X-3.1X-2.9X3.1*%
%ADD33MACRO1,0.1016X-1.235X0.49X-1.235X-0.49*%
%ADD34MACRO1,0.1016X-1.235X-1.8X-1.235X1.8*%
%ADD35C,2.5016*%
%ADD36MACRO1,0.1016X0.4X-0.432X-0.4X-0.432*%
%ADD37MACRO1,0.1016X-0.4X0.432X0.4X0.432*%
%ADD38MACRO1,0.1016X0.14X0.325X0.14X-0.325*%
%ADD39MACRO1,0.1016X0.325X0.14X0.325X-0.14*%
%ADD40MACRO1,0.1016X1.9X1.9X1.9X-1.9*%
%ADD41MACRO1,0.1016X-0.3375X0.14X0.3375X0.14*%
%ADD42MACRO1,0.1016X-0.14X0.3375X0.14X0.3375*%
%ADD43MACRO1,0.1X-0.15X0.65X0.15X0.65*%
%ADD44O,1.1999976X1.7999964*%
%ADD45O,1.1999976X1.9999959999999999*%
%ADD46MACRO1,0.1016X1X1X1X-1*%
%ADD47MACRO1,0.1016X-0.7874X-0.7874X-0.7874X0.7874*%
%ADD48C,1.6764*%
%ADD49MACRO1,0.1016X-0.7874X0.7874X0.7874X0.7874*%

%LPD*%
D10*
G01*
X4744976Y1520004D03*
D11*
G01*
X4914991Y1299989D03*
D10*
G01*
X4744976Y1299989D03*
G01*
X4914978Y1520004D03*
D12*
G01*
X1229997Y99999D03*
G01*
X1369997Y99999D03*
D13*
G01*
X1417290Y269925D03*
G01*
X1182785Y269925D03*
D14*
G01*
X949985Y94778D03*
D15*
G01*
X949985Y245428D03*
D16*
G01*
X949998Y555324D03*
D17*
G01*
X949998Y404674D03*
D18*
G01*
X3710099Y1999919D03*
G01*
X3570099Y1999919D03*
D12*
G01*
X4190113Y1999919D03*
G01*
X4330113Y1999919D03*
D19*
G01*
X4309897Y1750133D03*
G01*
X4309897Y1610133D03*
G01*
X4489983Y1749879D03*
G01*
X4489983Y1609879D03*
D20*
G01*
X3044469Y1860069D03*
G01*
X3044469Y2000069D03*
D19*
G01*
X3214395Y2000069D03*
G01*
X3214395Y1860069D03*
G01*
X3394481Y2000069D03*
G01*
X3394481Y1860069D03*
D12*
G01*
X3550033Y1049959D03*
G01*
X3690033Y1049959D03*
D18*
G01*
X5399961Y930071D03*
G01*
X5259961Y930071D03*
G01*
X3409871Y1535099D03*
G01*
X3269871Y1535099D03*
G01*
X1549996Y1649996D03*
G01*
X1409997Y1649996D03*
D20*
G01*
X3029991Y1059969D03*
G01*
X3029991Y1199969D03*
D19*
G01*
X2279929Y2220033D03*
G01*
X2279929Y2080033D03*
G01*
X3359937Y359991D03*
G01*
X3359937Y219991D03*
D12*
G01*
X2699895Y1040053D03*
G01*
X2839895Y1040053D03*
D18*
G01*
X4260009Y710107D03*
G01*
X4120009Y710107D03*
D21*
G01*
X3169945Y459232D03*
G01*
X3169945Y120751D03*
D22*
G01*
X1889996Y752121D03*
D23*
G01*
X1889996Y1047874D03*
D24*
G01*
X5249989Y759998D03*
G01*
X4449991Y759998D03*
D25*
G01*
X3492042Y2243505D03*
D26*
G01*
X3707942Y2116505D03*
D22*
G01*
X1889996Y1232435D03*
D23*
G01*
X1889996Y1528188D03*
D16*
G01*
X5119989Y1985346D03*
D17*
G01*
X5119989Y1834696D03*
D14*
G01*
X5119989Y2134670D03*
D15*
G01*
X5119989Y2285320D03*
D27*
G01*
X4645318Y379907D03*
D28*
G01*
X4494668Y379907D03*
D27*
G01*
X4945292Y379907D03*
D28*
G01*
X4794642Y379907D03*
D27*
G01*
X5245266Y379907D03*
D28*
G01*
X5094616Y379907D03*
D14*
G01*
X5400065Y374686D03*
D15*
G01*
X5400065Y525336D03*
D27*
G01*
X2315376Y949883D03*
D28*
G01*
X2164726Y949883D03*
D27*
G01*
X5400315Y1099997D03*
D28*
G01*
X5249665Y1099997D03*
D29*
G01*
X2164726Y1099997D03*
D30*
G01*
X2315376Y1099997D03*
D27*
G01*
X2645322Y1599869D03*
D28*
G01*
X2494672Y1599869D03*
D29*
G01*
X2794646Y1599869D03*
D30*
G01*
X2945296Y1599869D03*
D31*
G01*
X1639003Y1392397D03*
G01*
X1180990Y1392394D03*
D32*
G01*
X1409997Y707593D03*
D33*
G01*
X3596492Y639999D03*
G01*
X3596492Y409999D03*
G01*
X3596492Y179998D03*
D34*
G01*
X4163491Y409999D03*
D12*
G01*
X4789990Y1069997D03*
G01*
X4929990Y1069997D03*
D20*
G01*
X4539990Y1269997D03*
G01*
X4539990Y1409997D03*
D35*
G01*
X419988Y2134006D03*
G01*
X419988Y1626006D03*
G01*
X419988Y973988D03*
G01*
X419988Y465988D03*
D36*
G01*
X3879992Y2000008D03*
G01*
X4019991Y2000008D03*
D37*
G01*
X3934434Y1839986D03*
G01*
X3794434Y1839986D03*
D38*
G01*
X4034998Y1707746D03*
G01*
X3984985Y1707746D03*
G01*
X3934998Y1707746D03*
G01*
X3884985Y1707746D03*
G01*
X3834998Y1707746D03*
G01*
X3784986Y1707746D03*
G01*
X3734998Y1707746D03*
G01*
X3684986Y1707746D03*
D39*
G01*
X3612244Y1635003D03*
G01*
X3612244Y1584990D03*
G01*
X3612244Y1535003D03*
G01*
X3612244Y1484990D03*
G01*
X3612244Y1435003D03*
G01*
X3612244Y1384990D03*
G01*
X3612244Y1335003D03*
G01*
X3612244Y1284991D03*
D38*
G01*
X3684986Y1212249D03*
G01*
X3734998Y1212249D03*
G01*
X3784986Y1212249D03*
G01*
X3834998Y1212249D03*
G01*
X3884985Y1212249D03*
G01*
X3934998Y1212249D03*
G01*
X3984985Y1212249D03*
G01*
X4034998Y1212249D03*
D39*
G01*
X4107740Y1284991D03*
G01*
X4107740Y1335003D03*
G01*
X4107740Y1384990D03*
G01*
X4107740Y1435003D03*
G01*
X4107740Y1484990D03*
G01*
X4107740Y1535003D03*
G01*
X4107740Y1584990D03*
G01*
X4107740Y1635003D03*
D40*
G01*
X3859992Y1459997D03*
D33*
G01*
X1386497Y2309996D03*
G01*
X1386497Y2079995D03*
G01*
X1386497Y1849995D03*
D34*
G01*
X1953496Y2079995D03*
D41*
G01*
X2623794Y1375003D03*
G01*
X2623794Y1324991D03*
G01*
X2623794Y1275003D03*
G01*
X2623794Y1224991D03*
D42*
G01*
X2700007Y1198742D03*
G01*
X2749994Y1198742D03*
G01*
X2800007Y1198742D03*
D41*
G01*
X2876194Y1224991D03*
G01*
X2876194Y1275003D03*
G01*
X2876194Y1324991D03*
G01*
X2876194Y1375003D03*
D42*
G01*
X2800007Y1401251D03*
G01*
X2749994Y1401251D03*
G01*
X2700007Y1401251D03*
D43*
G01*
X2194993Y761509D03*
G01*
X2224990Y761509D03*
G01*
X2275003Y761509D03*
G01*
X2305000Y761509D03*
G01*
X2354987Y761504D03*
G01*
X2405000Y761507D03*
G01*
X2454987Y761509D03*
G01*
X2505000Y761507D03*
G01*
X2554987Y761509D03*
G01*
X2604999Y761507D03*
G01*
X2704999Y761507D03*
G01*
X2754986Y761486D03*
G01*
X2785009Y761486D03*
G01*
X2834996Y761507D03*
G01*
X2864994Y761507D03*
G01*
X2654961Y761504D03*
D44*
G01*
X2097989Y278511D03*
G01*
X2961995Y278511D03*
D45*
G01*
X2961995Y696518D03*
G01*
X2097989Y696518D03*
D46*
G01*
X1079997Y2300000D03*
G01*
X1079997Y1839998D03*
D47*
G01*
X5339989Y1678995D03*
D48*
G01*
X5339994Y1932990D03*
G01*
X5339994Y2186990D03*
G01*
X5339994Y2440990D03*
D49*
G01*
X4578990Y159999D03*
D48*
G01*
X4832984Y159994D03*
G01*
X5086984Y159994D03*
G01*
X5340984Y159994D03*
M02*
