G04 Layer: BottomLayer*
G04 EasyEDA v6.5.15, 2022-10-09 22:19:18*
G04 792860b319f64621ac1ba377023e4090,0b3a2bb33c9248688526e96ab25d6e06,10*
G04 Gerber Generator version 0.2*
G04 Scale: 100 percent, Rotated: No, Reflected: No *
G04 Dimensions in millimeters *
G04 leading zeros omitted , absolute positions ,4 integer and 5 decimal *
%FSLAX45Y45*%
%MOMM*%

%ADD10C,0.3000*%
%ADD11C,0.5000*%
%ADD12C,2.4000*%
%ADD13O,1.1999976X1.7999964*%
%ADD14O,1.1999976X1.9999959999999999*%
%ADD15R,1.5748X1.5748*%
%ADD16C,1.5748*%
%ADD17C,0.6096*%
%ADD18C,0.0100*%

%LPD*%
G36*
X1710131Y1799996D02*
G01*
X1706270Y1800809D01*
X1702968Y1802993D01*
X1700733Y1806295D01*
X1700022Y1810156D01*
X1700022Y2489860D01*
X1700733Y2493772D01*
X1702968Y2497023D01*
X1706270Y2499258D01*
X1710131Y2500020D01*
X2139797Y2500020D01*
X2143709Y2499258D01*
X2147011Y2497023D01*
X2149195Y2493772D01*
X2149957Y2489860D01*
X2149957Y1810156D01*
X2149195Y1806295D01*
X2147011Y1802993D01*
X2143709Y1800809D01*
X2139797Y1799996D01*
G37*

%LPD*%
G36*
X4226915Y1197508D02*
G01*
X4223054Y1198270D01*
X4219752Y1200454D01*
X4150461Y1269746D01*
X4148277Y1273048D01*
X4147515Y1276908D01*
X4147515Y1717497D01*
X4146702Y1725371D01*
X4144365Y1732432D01*
X4140606Y1738934D01*
X4136847Y1743405D01*
X4035450Y1844852D01*
X4029201Y1849831D01*
X4022648Y1853184D01*
X4017568Y1854555D01*
X4013911Y1856435D01*
X4011218Y1859635D01*
X4010050Y1863598D01*
X4010609Y1867712D01*
X4012793Y1871268D01*
X4016197Y1873656D01*
X4020159Y1874520D01*
X4609338Y1874520D01*
X4611827Y1874215D01*
X4614367Y1873148D01*
X4623054Y1870354D01*
X4632147Y1869135D01*
X4641240Y1869541D01*
X4650181Y1871573D01*
X4658563Y1875180D01*
X4666183Y1880209D01*
X4672838Y1886508D01*
X4678172Y1893874D01*
X4682134Y1902104D01*
X4684522Y1910892D01*
X4685334Y1919986D01*
X4684522Y1929130D01*
X4682134Y1937918D01*
X4678172Y1946148D01*
X4672838Y1953514D01*
X4666183Y1959813D01*
X4658563Y1964842D01*
X4650181Y1968449D01*
X4641240Y1970481D01*
X4632147Y1970887D01*
X4623054Y1969668D01*
X4611827Y1965807D01*
X4609338Y1965502D01*
X4310126Y1965502D01*
X4306214Y1966315D01*
X4302963Y1968500D01*
X4300728Y1971802D01*
X4300016Y1975662D01*
X4300016Y2039874D01*
X4300728Y2043734D01*
X4302963Y2047036D01*
X4306214Y2049272D01*
X4310126Y2050034D01*
X4888280Y2050034D01*
X4892141Y2049272D01*
X4895443Y2047036D01*
X4897628Y2043734D01*
X4898390Y2039874D01*
X4897628Y2035962D01*
X4895443Y2032660D01*
X4236516Y1373784D01*
X4233875Y1371854D01*
X4230725Y1370888D01*
X4221632Y1369669D01*
X4212945Y1366875D01*
X4204919Y1362506D01*
X4197756Y1356817D01*
X4191762Y1349959D01*
X4187088Y1342136D01*
X4183887Y1333550D01*
X4182211Y1324559D01*
X4182211Y1315466D01*
X4183887Y1306474D01*
X4187088Y1297889D01*
X4191762Y1290066D01*
X4197756Y1283208D01*
X4204919Y1277518D01*
X4212945Y1273149D01*
X4221632Y1270355D01*
X4230725Y1269136D01*
X4244136Y1269695D01*
X4247845Y1268272D01*
X4250791Y1265529D01*
X4252315Y1261872D01*
X4252366Y1257909D01*
X4251248Y1251559D01*
X4251248Y1242466D01*
X4252874Y1233474D01*
X4256125Y1224889D01*
X4260748Y1217066D01*
X4263136Y1214323D01*
X4265066Y1211021D01*
X4265625Y1207211D01*
X4264761Y1203452D01*
X4262577Y1200302D01*
X4259275Y1198219D01*
X4255566Y1197508D01*
G37*

%LPD*%
G36*
X2538882Y1015542D02*
G01*
X2534970Y1016304D01*
X2531770Y1018489D01*
X1873554Y1676603D01*
X1871573Y1679498D01*
X1870659Y1682902D01*
X1870100Y1689150D01*
X1867662Y1697939D01*
X1863750Y1706168D01*
X1858314Y1713534D01*
X1851761Y1719834D01*
X1844141Y1724863D01*
X1835759Y1728470D01*
X1829206Y1729943D01*
X1825447Y1731721D01*
X1822602Y1734870D01*
X1821383Y1738884D01*
X1821840Y1743049D01*
X1823974Y1746707D01*
X1827377Y1749145D01*
X1831492Y1750009D01*
X2198979Y1750009D01*
X2199995Y1751025D01*
X2199995Y2563926D01*
X2200757Y2567838D01*
X2202942Y2571140D01*
X2206244Y2573324D01*
X2210155Y2574086D01*
X3289808Y2574086D01*
X3293770Y2573324D01*
X3296970Y2571140D01*
X3299206Y2567838D01*
X3299968Y2563926D01*
X3299968Y2301036D01*
X3301034Y2300020D01*
X3589832Y2300020D01*
X3593693Y2299258D01*
X3596995Y2297023D01*
X3599230Y2293772D01*
X3600043Y2289860D01*
X3600043Y1975662D01*
X3599230Y1971802D01*
X3596995Y1968500D01*
X3593693Y1966315D01*
X3589832Y1965502D01*
X2982722Y1965502D01*
X2973984Y1964283D01*
X2966059Y1961591D01*
X2958795Y1957527D01*
X2951886Y1951888D01*
X2909824Y1909775D01*
X2907995Y1908302D01*
X2904388Y1906879D01*
X2896362Y1902510D01*
X2889199Y1896821D01*
X2883204Y1889963D01*
X2878531Y1882139D01*
X2875330Y1873554D01*
X2873654Y1864563D01*
X2873654Y1855470D01*
X2875330Y1846478D01*
X2878277Y1838553D01*
X2878988Y1834997D01*
X2878988Y1525016D01*
X2878277Y1521460D01*
X2875330Y1513586D01*
X2873654Y1504594D01*
X2873654Y1495450D01*
X2875330Y1486458D01*
X2878531Y1477924D01*
X2883204Y1470101D01*
X2889199Y1463192D01*
X2896362Y1457502D01*
X2904388Y1453184D01*
X2913075Y1450340D01*
X2922168Y1449120D01*
X2931261Y1449527D01*
X2940202Y1451559D01*
X2948584Y1455166D01*
X2956204Y1460195D01*
X2962757Y1466494D01*
X2968142Y1473911D01*
X2972104Y1482140D01*
X2974543Y1490929D01*
X2975356Y1500022D01*
X2974543Y1509115D01*
X2972104Y1517904D01*
X2970174Y1522526D01*
X2969920Y1524762D01*
X2969920Y1835251D01*
X2970936Y1839671D01*
X2972511Y1842922D01*
X2974441Y1845716D01*
X3000298Y1871573D01*
X3003600Y1873757D01*
X3007461Y1874520D01*
X3659327Y1874520D01*
X3663289Y1873707D01*
X3666642Y1871370D01*
X3668877Y1867916D01*
X3669436Y1863902D01*
X3668522Y1859940D01*
X3666032Y1856739D01*
X3662426Y1854707D01*
X3655618Y1852472D01*
X3649116Y1848713D01*
X3644696Y1844954D01*
X3593541Y1793798D01*
X3590848Y1791868D01*
X3587699Y1790903D01*
X3578606Y1789684D01*
X3569919Y1786889D01*
X3561943Y1782521D01*
X3554780Y1776831D01*
X3548786Y1769973D01*
X3544062Y1762150D01*
X3540861Y1753565D01*
X3539236Y1744573D01*
X3539236Y1735480D01*
X3540861Y1726488D01*
X3544062Y1717903D01*
X3548786Y1710080D01*
X3554780Y1703222D01*
X3561943Y1697532D01*
X3569919Y1693164D01*
X3578606Y1690370D01*
X3587699Y1689150D01*
X3596792Y1689557D01*
X3605682Y1691589D01*
X3614115Y1695196D01*
X3621735Y1700225D01*
X3628390Y1706524D01*
X3633724Y1713890D01*
X3637686Y1722120D01*
X3640074Y1730908D01*
X3640632Y1737156D01*
X3641547Y1740560D01*
X3643579Y1743456D01*
X3681780Y1781657D01*
X3685082Y1783842D01*
X3688943Y1784604D01*
X3991000Y1784604D01*
X3994861Y1783842D01*
X3998163Y1781657D01*
X4073550Y1706270D01*
X4075734Y1702968D01*
X4076496Y1699107D01*
X4076496Y1258519D01*
X4077411Y1250645D01*
X4079697Y1243584D01*
X4083405Y1237081D01*
X4087164Y1232611D01*
X4123994Y1195832D01*
X4126331Y1192174D01*
X4126941Y1187856D01*
X4125722Y1183741D01*
X4122877Y1180439D01*
X4118914Y1178661D01*
X4114596Y1178712D01*
X4106824Y1180490D01*
X4097731Y1180896D01*
X4088637Y1179677D01*
X4079951Y1176883D01*
X4071975Y1172514D01*
X4065879Y1167739D01*
X4062933Y1166063D01*
X4059631Y1165504D01*
X3830472Y1165504D01*
X3822598Y1164691D01*
X3815587Y1162405D01*
X3809034Y1158646D01*
X3804564Y1154836D01*
X3668217Y1018489D01*
X3665016Y1016304D01*
X3661054Y1015542D01*
G37*

%LPD*%
G36*
X3960164Y100025D02*
G01*
X3956304Y100787D01*
X3952951Y103022D01*
X3950766Y106273D01*
X3949954Y110185D01*
X3949954Y589838D01*
X3950766Y593750D01*
X3952951Y597052D01*
X3956304Y599236D01*
X3960164Y599998D01*
X4389831Y599998D01*
X4393692Y599236D01*
X4396994Y597052D01*
X4399229Y593750D01*
X4399991Y589838D01*
X4399991Y110185D01*
X4399229Y106273D01*
X4396994Y103022D01*
X4393692Y100787D01*
X4389831Y100025D01*
G37*

%LPD*%
G36*
X36068Y25908D02*
G01*
X32156Y26720D01*
X28854Y28905D01*
X26670Y32207D01*
X25908Y36068D01*
X25908Y2563926D01*
X26670Y2567838D01*
X28854Y2571140D01*
X32156Y2573324D01*
X36068Y2574086D01*
X1639824Y2574086D01*
X1643684Y2573324D01*
X1646986Y2571140D01*
X1649222Y2567838D01*
X1650034Y2563926D01*
X1650034Y1751025D01*
X1650949Y1750009D01*
X1808073Y1750009D01*
X1812289Y1749094D01*
X1815693Y1746504D01*
X1817827Y1742693D01*
X1818081Y1738375D01*
X1816506Y1734312D01*
X1813458Y1731264D01*
X1799945Y1726895D01*
X1791919Y1722526D01*
X1784756Y1716836D01*
X1778762Y1709978D01*
X1774088Y1702155D01*
X1770888Y1693570D01*
X1769211Y1684578D01*
X1769211Y1675485D01*
X1770888Y1666493D01*
X1774088Y1657908D01*
X1778762Y1650085D01*
X1784756Y1643227D01*
X1791919Y1637538D01*
X1799945Y1633169D01*
X1808632Y1630375D01*
X1817725Y1629156D01*
X1820875Y1628190D01*
X1823516Y1626260D01*
X2466898Y982929D01*
X2469032Y979627D01*
X2469845Y975766D01*
X2469032Y971854D01*
X2466898Y968552D01*
X2463546Y966368D01*
X2459685Y965606D01*
X2000504Y965606D01*
X1992680Y964742D01*
X1985568Y962456D01*
X1979066Y958697D01*
X1974596Y954938D01*
X1845208Y825550D01*
X1840280Y819353D01*
X1836877Y812749D01*
X1834896Y805484D01*
X1834438Y799642D01*
X1834438Y328980D01*
X1833727Y325120D01*
X1831492Y321818D01*
X1648206Y138480D01*
X1644904Y136296D01*
X1640992Y135534D01*
X1160322Y135534D01*
X1156563Y136245D01*
X1153312Y138328D01*
X1151737Y139852D01*
X1144117Y144881D01*
X1135735Y148488D01*
X1126794Y150520D01*
X1117701Y150926D01*
X1108659Y149707D01*
X1099972Y146862D01*
X1091895Y142544D01*
X1084783Y136855D01*
X1078788Y129946D01*
X1074064Y122123D01*
X1070864Y113588D01*
X1069238Y104597D01*
X1069238Y95453D01*
X1070864Y86461D01*
X1074064Y77927D01*
X1078788Y70104D01*
X1084783Y63195D01*
X1091895Y57505D01*
X1099972Y53187D01*
X1108659Y50342D01*
X1117701Y49123D01*
X1126794Y49530D01*
X1135735Y51562D01*
X1144117Y55168D01*
X1151737Y60198D01*
X1153312Y61722D01*
X1156563Y63804D01*
X1160322Y64516D01*
X1659432Y64516D01*
X1667256Y65379D01*
X1674317Y67665D01*
X1680870Y71424D01*
X1685289Y75184D01*
X1894738Y284581D01*
X1899716Y290779D01*
X1903018Y297383D01*
X1905050Y304647D01*
X1905507Y310489D01*
X1905507Y781151D01*
X1906219Y785012D01*
X1908454Y788314D01*
X2011730Y891641D01*
X2015032Y893826D01*
X2018893Y894587D01*
X3699510Y894587D01*
X3707434Y895451D01*
X3714445Y897737D01*
X3720947Y901496D01*
X3725418Y905256D01*
X3836720Y1016609D01*
X3840073Y1018794D01*
X3843934Y1019556D01*
X4015486Y1019556D01*
X4018838Y1018997D01*
X4021836Y1017371D01*
X4027982Y1012494D01*
X4040327Y1005890D01*
X4042816Y1002588D01*
X4043781Y998575D01*
X4043070Y994511D01*
X4040784Y991057D01*
X3898239Y848512D01*
X3894988Y846277D01*
X3891127Y845515D01*
X3830574Y845515D01*
X3822598Y844702D01*
X3815587Y842416D01*
X3809034Y838606D01*
X3804564Y834847D01*
X3538270Y568502D01*
X3534968Y566318D01*
X3531108Y565556D01*
X3002584Y565556D01*
X2998724Y566267D01*
X2995523Y568401D01*
X2993288Y571601D01*
X2992374Y575360D01*
X2993034Y579221D01*
X2995015Y582523D01*
X2998114Y584860D01*
X3002229Y586841D01*
X3012135Y593598D01*
X3020974Y601776D01*
X3028442Y611174D01*
X3034538Y621588D01*
X3038856Y632815D01*
X3041548Y644499D01*
X3042462Y656894D01*
X3042462Y736142D01*
X3041548Y748487D01*
X3038856Y760222D01*
X3034538Y771448D01*
X3028442Y781862D01*
X3020974Y791260D01*
X3012135Y799439D01*
X3002229Y806196D01*
X2991358Y811428D01*
X2979877Y814984D01*
X2967990Y816762D01*
X2955950Y816762D01*
X2944063Y814984D01*
X2932582Y811428D01*
X2921711Y806196D01*
X2911856Y799439D01*
X2903016Y791260D01*
X2895498Y781862D01*
X2889504Y771448D01*
X2885084Y760222D01*
X2882392Y748487D01*
X2881477Y736142D01*
X2881477Y682802D01*
X2880563Y678688D01*
X2878074Y675233D01*
X2874365Y673150D01*
X2870149Y672744D01*
X2866085Y674116D01*
X2862986Y677011D01*
X2861513Y679196D01*
X2854604Y686003D01*
X2846679Y691540D01*
X2837942Y695655D01*
X2828594Y698144D01*
X2818993Y699008D01*
X2809341Y698144D01*
X2800045Y695655D01*
X2791307Y691540D01*
X2783382Y686003D01*
X2776474Y679196D01*
X2770936Y671271D01*
X2767177Y663244D01*
X2764688Y659892D01*
X2761030Y657860D01*
X2756865Y657453D01*
X2752902Y658774D01*
X2749804Y661568D01*
X2748330Y663549D01*
X2741777Y669848D01*
X2734157Y674878D01*
X2725775Y678484D01*
X2716834Y680516D01*
X2707741Y680923D01*
X2698648Y679704D01*
X2689961Y676859D01*
X2681935Y672541D01*
X2675890Y667715D01*
X2672943Y666089D01*
X2669641Y665530D01*
X2400350Y665530D01*
X2396591Y666242D01*
X2393289Y668324D01*
X2391714Y669848D01*
X2384094Y674878D01*
X2375712Y678484D01*
X2366873Y680516D01*
X2357678Y680923D01*
X2348636Y679704D01*
X2340000Y676859D01*
X2331974Y672541D01*
X2324811Y666851D01*
X2318816Y659942D01*
X2313838Y651713D01*
X2311196Y648766D01*
X2307691Y647090D01*
X2303729Y646836D01*
X2299970Y648157D01*
X2297023Y650748D01*
X2295347Y654304D01*
X2293061Y662482D01*
X2288997Y671271D01*
X2283460Y679196D01*
X2276602Y686003D01*
X2268677Y691540D01*
X2259939Y695655D01*
X2250592Y698144D01*
X2240991Y699008D01*
X2231390Y698144D01*
X2221992Y695655D01*
X2213254Y691540D01*
X2205329Y686003D01*
X2198471Y679196D01*
X2196947Y677011D01*
X2193848Y674116D01*
X2189784Y672744D01*
X2185568Y673150D01*
X2181860Y675233D01*
X2179370Y678688D01*
X2178456Y682802D01*
X2178456Y736142D01*
X2177542Y748487D01*
X2174900Y760222D01*
X2170480Y771448D01*
X2164486Y781862D01*
X2156968Y791260D01*
X2148128Y799439D01*
X2138273Y806196D01*
X2127402Y811428D01*
X2115870Y814984D01*
X2104034Y816762D01*
X2091943Y816762D01*
X2080107Y814984D01*
X2068575Y811428D01*
X2057755Y806196D01*
X2047798Y799439D01*
X2038959Y791260D01*
X2031492Y781862D01*
X2025446Y771448D01*
X2021078Y760222D01*
X2018436Y748487D01*
X2017522Y736142D01*
X2017522Y656894D01*
X2018436Y644499D01*
X2021078Y632815D01*
X2025446Y621588D01*
X2031492Y611174D01*
X2038959Y601776D01*
X2047798Y593598D01*
X2057755Y586841D01*
X2068575Y581609D01*
X2080107Y578053D01*
X2091943Y576275D01*
X2104034Y576275D01*
X2115870Y578053D01*
X2127402Y581609D01*
X2138273Y586841D01*
X2148128Y593598D01*
X2156968Y601776D01*
X2164486Y611174D01*
X2172970Y625856D01*
X2176170Y628142D01*
X2180031Y629005D01*
X2183841Y628345D01*
X2187194Y626313D01*
X2189530Y623163D01*
X2192934Y615797D01*
X2198471Y607872D01*
X2205329Y601065D01*
X2213254Y595528D01*
X2221992Y591413D01*
X2231390Y588924D01*
X2240991Y588060D01*
X2250592Y588924D01*
X2259939Y591413D01*
X2268677Y595528D01*
X2276602Y601065D01*
X2283460Y607872D01*
X2288997Y615797D01*
X2291384Y620776D01*
X2293874Y624179D01*
X2297582Y626211D01*
X2301900Y626567D01*
X2305812Y625144D01*
X2308961Y622249D01*
X2310536Y618337D01*
X2310841Y616458D01*
X2314092Y607923D01*
X2318816Y600100D01*
X2324811Y593191D01*
X2331974Y587502D01*
X2340000Y583184D01*
X2348636Y580339D01*
X2357678Y579120D01*
X2366873Y579526D01*
X2375712Y581558D01*
X2384094Y585165D01*
X2391714Y590194D01*
X2393289Y591718D01*
X2396591Y593801D01*
X2400350Y594512D01*
X2405583Y594512D01*
X2409748Y593648D01*
X2413152Y591108D01*
X2415286Y587400D01*
X2415641Y583184D01*
X2414270Y579170D01*
X2410104Y572109D01*
X2406904Y563575D01*
X2405227Y554583D01*
X2405227Y545439D01*
X2406904Y536448D01*
X2410104Y527913D01*
X2414778Y520090D01*
X2420772Y513181D01*
X2427935Y507492D01*
X2435961Y503174D01*
X2444648Y500329D01*
X2453741Y499109D01*
X2462834Y499516D01*
X2471775Y501548D01*
X2480157Y505155D01*
X2487777Y510184D01*
X2489454Y511809D01*
X2492654Y513892D01*
X2496464Y514604D01*
X2549093Y514604D01*
X2552954Y513892D01*
X2556256Y511759D01*
X2558389Y508508D01*
X2559304Y504748D01*
X2558643Y500888D01*
X2555900Y493572D01*
X2554224Y484581D01*
X2554224Y475488D01*
X2555900Y466496D01*
X2559100Y457911D01*
X2563774Y450088D01*
X2569768Y443230D01*
X2576931Y437540D01*
X2584958Y433171D01*
X2593644Y430377D01*
X2602738Y429158D01*
X2611831Y429564D01*
X2620772Y431596D01*
X2629154Y435203D01*
X2636774Y440232D01*
X2639060Y442417D01*
X2642311Y444500D01*
X2646070Y445262D01*
X3570427Y444550D01*
X3578301Y445363D01*
X3585413Y447649D01*
X3591915Y451408D01*
X3596335Y455218D01*
X3862679Y721563D01*
X3865981Y723747D01*
X3869893Y724509D01*
X3929430Y724509D01*
X3937355Y725373D01*
X3944416Y727659D01*
X3950919Y731418D01*
X3955338Y735228D01*
X4211675Y991565D01*
X4214977Y993749D01*
X4218940Y994511D01*
X4259427Y994511D01*
X4267352Y995375D01*
X4274362Y997661D01*
X4280966Y1001420D01*
X4285386Y1005179D01*
X4326585Y1046429D01*
X4329633Y1048512D01*
X4333341Y1049375D01*
X4336846Y1049528D01*
X4345686Y1051560D01*
X4354118Y1055166D01*
X4361738Y1060196D01*
X4368393Y1066495D01*
X4373727Y1073912D01*
X4377690Y1082141D01*
X4380077Y1090930D01*
X4380890Y1100023D01*
X4380077Y1109116D01*
X4378858Y1113637D01*
X4378502Y1117346D01*
X4379620Y1120902D01*
X4381804Y1123848D01*
X4384954Y1125829D01*
X4388612Y1126490D01*
X5399786Y1126490D01*
X5403748Y1126693D01*
X5407406Y1127302D01*
X5411012Y1128268D01*
X5414467Y1129588D01*
X5417769Y1131265D01*
X5420918Y1133297D01*
X5423763Y1135634D01*
X5426456Y1138275D01*
X5428742Y1141120D01*
X5430774Y1144270D01*
X5432450Y1147572D01*
X5433822Y1151026D01*
X5434736Y1154633D01*
X5435396Y1158290D01*
X5435549Y1170635D01*
X5436108Y1173784D01*
X5441645Y1185113D01*
X5444134Y1193901D01*
X5444947Y1202994D01*
X5444134Y1212138D01*
X5441645Y1220927D01*
X5437682Y1229156D01*
X5432348Y1236522D01*
X5425744Y1242822D01*
X5418175Y1247851D01*
X5409692Y1251458D01*
X5400802Y1253490D01*
X5391759Y1253896D01*
X5382615Y1252677D01*
X5373928Y1249883D01*
X5365902Y1245514D01*
X5358790Y1239824D01*
X5352745Y1232966D01*
X5348071Y1225143D01*
X5344922Y1216558D01*
X5342432Y1203706D01*
X5340248Y1200454D01*
X5336997Y1198270D01*
X5333136Y1197508D01*
X4348632Y1197508D01*
X4344314Y1198473D01*
X4340809Y1201166D01*
X4338828Y1205128D01*
X4338675Y1209548D01*
X4340402Y1213612D01*
X4345686Y1220876D01*
X4349648Y1229106D01*
X4352086Y1237894D01*
X4352645Y1244142D01*
X4353560Y1247546D01*
X4355592Y1250442D01*
X5023713Y1918563D01*
X5028692Y1924710D01*
X5032044Y1931314D01*
X5034026Y1938578D01*
X5034483Y1945182D01*
X5035143Y1947976D01*
X5036464Y1950466D01*
X5042712Y1958898D01*
X5046675Y1967128D01*
X5049113Y1975916D01*
X5049977Y1985010D01*
X5049113Y1994103D01*
X5046675Y2002891D01*
X5042712Y2011121D01*
X5037328Y2018538D01*
X5030724Y2024837D01*
X5023104Y2029866D01*
X5015839Y2032965D01*
X5012588Y2035200D01*
X5010404Y2038502D01*
X5009743Y2042363D01*
X5010454Y2046224D01*
X5012690Y2049475D01*
X5024678Y2061565D01*
X5029708Y2067712D01*
X5033111Y2074316D01*
X5034991Y2081631D01*
X5035448Y2087422D01*
X5035448Y2093468D01*
X5035956Y2096617D01*
X5037531Y2099462D01*
X5043728Y2107946D01*
X5047640Y2116124D01*
X5050078Y2124913D01*
X5050891Y2134006D01*
X5050078Y2143150D01*
X5047640Y2151938D01*
X5043678Y2160168D01*
X5038344Y2167534D01*
X5031740Y2173833D01*
X5024120Y2178862D01*
X5015738Y2182469D01*
X5006035Y2184654D01*
X5002580Y2186228D01*
X4999786Y2189022D01*
X4998364Y2192629D01*
X4998313Y2196490D01*
X4999990Y2201011D01*
X4999990Y2563926D01*
X5000752Y2567838D01*
X5002936Y2571140D01*
X5006238Y2573324D01*
X5010200Y2574086D01*
X5463895Y2574086D01*
X5467858Y2573324D01*
X5471058Y2571140D01*
X5473293Y2567838D01*
X5474055Y2563926D01*
X5474055Y36068D01*
X5473293Y32207D01*
X5471058Y28905D01*
X5467858Y26720D01*
X5463895Y25908D01*
X4460138Y25908D01*
X4456277Y26720D01*
X4452975Y28905D01*
X4450740Y32207D01*
X4450029Y36068D01*
X4450029Y649020D01*
X4449013Y650036D01*
X3900982Y650036D01*
X3899966Y649020D01*
X3899966Y36068D01*
X3899204Y32207D01*
X3897020Y28905D01*
X3893718Y26720D01*
X3889857Y25908D01*
G37*

%LPC*%
G36*
X5385663Y2486761D02*
G01*
X5427929Y2486761D01*
X5427014Y2488692D01*
X5419852Y2499868D01*
X5411266Y2509977D01*
X5401513Y2518867D01*
X5390540Y2526385D01*
X5385663Y2528824D01*
G37*
G36*
X5252059Y2486761D02*
G01*
X5294223Y2486761D01*
X5294223Y2528824D01*
X5289397Y2526385D01*
X5278475Y2518867D01*
X5268722Y2509977D01*
X5260086Y2499868D01*
X5252974Y2488692D01*
G37*
G36*
X4500829Y60807D02*
G01*
X4657191Y60807D01*
X4662271Y61366D01*
X4666589Y62890D01*
X4670450Y65328D01*
X4673752Y68529D01*
X4676140Y72440D01*
X4677613Y76758D01*
X4678273Y81838D01*
X4678273Y238201D01*
X4677613Y243332D01*
X4676140Y247650D01*
X4673752Y251510D01*
X4670450Y254762D01*
X4666589Y257149D01*
X4662271Y258673D01*
X4657191Y259283D01*
X4500829Y259283D01*
X4495698Y258673D01*
X4491431Y257149D01*
X4487468Y254762D01*
X4484268Y251510D01*
X4481880Y247650D01*
X4480306Y243332D01*
X4479747Y238201D01*
X4479747Y81838D01*
X4480306Y76758D01*
X4481880Y72440D01*
X4484268Y68529D01*
X4487468Y65328D01*
X4491431Y62890D01*
X4495698Y61366D01*
G37*
G36*
X5337657Y60858D02*
G01*
X5350916Y61315D01*
X5363972Y63500D01*
X5376672Y67462D01*
X5388711Y72999D01*
X5399836Y80162D01*
X5409996Y88696D01*
X5418836Y98552D01*
X5426354Y109474D01*
X5432348Y121310D01*
X5436666Y133807D01*
X5439308Y146812D01*
X5440172Y160020D01*
X5439308Y173228D01*
X5436666Y186232D01*
X5432348Y198780D01*
X5426354Y210566D01*
X5418836Y221538D01*
X5409996Y231343D01*
X5399836Y239877D01*
X5388711Y247040D01*
X5376672Y252628D01*
X5363972Y256540D01*
X5350916Y258724D01*
X5337657Y259181D01*
X5324500Y257860D01*
X5311597Y254762D01*
X5299202Y250037D01*
X5287568Y243636D01*
X5276900Y235813D01*
X5267401Y226567D01*
X5259171Y216154D01*
X5252415Y204774D01*
X5247284Y192582D01*
X5243779Y179781D01*
X5241950Y166674D01*
X5241950Y153416D01*
X5243779Y140258D01*
X5247284Y127457D01*
X5252415Y115265D01*
X5259171Y103885D01*
X5267401Y93472D01*
X5276900Y84277D01*
X5287568Y76403D01*
X5299202Y70053D01*
X5311597Y65278D01*
X5324500Y62179D01*
G37*
G36*
X4829657Y60858D02*
G01*
X4842916Y61315D01*
X4855972Y63500D01*
X4868672Y67462D01*
X4880711Y72999D01*
X4891836Y80162D01*
X4901996Y88696D01*
X4910836Y98552D01*
X4918354Y109474D01*
X4924348Y121310D01*
X4928666Y133807D01*
X4931308Y146812D01*
X4932172Y160020D01*
X4931308Y173228D01*
X4928666Y186232D01*
X4924348Y198780D01*
X4918354Y210566D01*
X4910836Y221538D01*
X4901996Y231343D01*
X4891836Y239877D01*
X4880711Y247040D01*
X4868672Y252628D01*
X4855972Y256540D01*
X4842916Y258724D01*
X4829657Y259181D01*
X4816500Y257860D01*
X4803597Y254762D01*
X4791202Y250037D01*
X4779568Y243636D01*
X4768900Y235813D01*
X4759401Y226567D01*
X4751171Y216154D01*
X4744415Y204774D01*
X4739284Y192582D01*
X4735779Y179781D01*
X4733950Y166674D01*
X4733950Y153416D01*
X4735779Y140258D01*
X4739284Y127457D01*
X4744415Y115265D01*
X4751171Y103885D01*
X4759401Y93472D01*
X4768900Y84277D01*
X4779568Y76403D01*
X4791202Y70053D01*
X4803597Y65278D01*
X4816500Y62179D01*
G37*
G36*
X5083657Y60858D02*
G01*
X5096916Y61315D01*
X5109972Y63500D01*
X5122672Y67462D01*
X5134711Y72999D01*
X5145836Y80162D01*
X5155996Y88696D01*
X5164836Y98552D01*
X5172354Y109474D01*
X5178348Y121310D01*
X5182666Y133807D01*
X5185308Y146812D01*
X5186172Y160020D01*
X5185308Y173228D01*
X5182666Y186232D01*
X5178348Y198780D01*
X5172354Y210566D01*
X5164836Y221538D01*
X5155996Y231343D01*
X5145836Y239877D01*
X5134711Y247040D01*
X5122672Y252628D01*
X5109972Y256540D01*
X5096916Y258724D01*
X5083657Y259181D01*
X5070500Y257860D01*
X5057597Y254762D01*
X5045202Y250037D01*
X5033568Y243636D01*
X5022900Y235813D01*
X5013401Y226567D01*
X5005171Y216154D01*
X4998415Y204774D01*
X4993284Y192582D01*
X4989779Y179781D01*
X4987950Y166674D01*
X4987950Y153416D01*
X4989779Y140258D01*
X4993284Y127457D01*
X4998415Y115265D01*
X5005171Y103885D01*
X5013401Y93472D01*
X5022900Y84277D01*
X5033568Y76403D01*
X5045202Y70053D01*
X5057597Y65278D01*
X5070500Y62179D01*
G37*
G36*
X5294223Y2353056D02*
G01*
X5294223Y2395321D01*
X5252161Y2395321D01*
X5256377Y2387650D01*
X5264200Y2376982D01*
X5273395Y2367432D01*
X5283809Y2359202D01*
G37*
G36*
X5385663Y2353056D02*
G01*
X5396179Y2359202D01*
X5406491Y2367432D01*
X5415788Y2376982D01*
X5423611Y2387650D01*
X5427827Y2395321D01*
X5385663Y2395321D01*
G37*
G36*
X2955950Y168249D02*
G01*
X2967990Y168249D01*
X2979877Y170078D01*
X2991358Y173583D01*
X3002229Y178816D01*
X3012135Y185623D01*
X3020974Y193802D01*
X3028442Y203200D01*
X3034538Y213614D01*
X3038856Y224790D01*
X3041548Y236524D01*
X3042462Y248869D01*
X3042462Y308152D01*
X3041548Y320497D01*
X3038856Y332232D01*
X3034538Y343408D01*
X3028442Y353822D01*
X3020974Y363270D01*
X3012135Y371449D01*
X3002229Y378206D01*
X2991358Y383438D01*
X2979877Y386943D01*
X2967990Y388772D01*
X2955950Y388772D01*
X2944063Y386943D01*
X2932582Y383438D01*
X2921711Y378206D01*
X2911856Y371449D01*
X2903016Y363270D01*
X2895498Y353822D01*
X2889504Y343408D01*
X2885084Y332232D01*
X2882392Y320497D01*
X2881477Y308152D01*
X2881477Y248869D01*
X2882392Y236524D01*
X2885084Y224790D01*
X2889504Y213614D01*
X2895498Y203200D01*
X2903016Y193802D01*
X2911856Y185623D01*
X2921711Y178816D01*
X2932582Y173583D01*
X2944063Y170078D01*
G37*
G36*
X2091943Y168249D02*
G01*
X2104034Y168249D01*
X2115870Y170078D01*
X2127402Y173583D01*
X2138273Y178816D01*
X2148128Y185623D01*
X2156968Y193802D01*
X2164486Y203200D01*
X2170480Y213614D01*
X2174900Y224790D01*
X2177542Y236524D01*
X2178456Y248869D01*
X2178456Y308152D01*
X2177542Y320497D01*
X2174900Y332232D01*
X2170480Y343408D01*
X2164486Y353822D01*
X2156968Y363270D01*
X2148128Y371449D01*
X2138273Y378206D01*
X2127402Y383438D01*
X2115870Y386943D01*
X2104034Y388772D01*
X2091943Y388772D01*
X2080107Y386943D01*
X2068575Y383438D01*
X2057755Y378206D01*
X2047798Y371449D01*
X2038959Y363270D01*
X2031492Y353822D01*
X2025446Y343408D01*
X2021078Y332232D01*
X2018436Y320497D01*
X2017522Y308152D01*
X2017522Y248869D01*
X2018436Y236524D01*
X2021078Y224790D01*
X2025446Y213614D01*
X2031492Y203200D01*
X2038959Y193802D01*
X2047798Y185623D01*
X2057755Y178816D01*
X2068575Y173583D01*
X2080107Y170078D01*
G37*
G36*
X419963Y325526D02*
G01*
X435965Y326440D01*
X451815Y329184D01*
X467207Y333705D01*
X481939Y339953D01*
X495909Y347827D01*
X508914Y357276D01*
X520700Y368096D01*
X531215Y380238D01*
X540258Y393496D01*
X547827Y407670D01*
X553567Y422605D01*
X557631Y438150D01*
X559917Y453999D01*
X560374Y470052D01*
X559054Y486003D01*
X555853Y501751D01*
X550875Y516991D01*
X544220Y531571D01*
X535940Y545338D01*
X526135Y558038D01*
X514959Y569518D01*
X502564Y579678D01*
X489051Y588365D01*
X474675Y595426D01*
X459536Y600811D01*
X443941Y604469D01*
X427990Y606298D01*
X411937Y606298D01*
X396036Y604469D01*
X380390Y600811D01*
X365302Y595426D01*
X350875Y588365D01*
X337413Y579678D01*
X324967Y569518D01*
X313842Y558038D01*
X303987Y545338D01*
X295757Y531571D01*
X289052Y516991D01*
X284124Y501751D01*
X280924Y486003D01*
X279552Y470052D01*
X280009Y453999D01*
X282295Y438150D01*
X286359Y422605D01*
X292201Y407670D01*
X299669Y393496D01*
X308711Y380238D01*
X319227Y368096D01*
X331063Y357276D01*
X344017Y347827D01*
X357987Y339953D01*
X372770Y333705D01*
X388162Y329184D01*
X403961Y326440D01*
G37*
G36*
X5333339Y2088032D02*
G01*
X5346598Y2088032D01*
X5359704Y2089810D01*
X5372506Y2093315D01*
X5384698Y2098446D01*
X5396179Y2105202D01*
X5406491Y2113432D01*
X5415788Y2122982D01*
X5423611Y2133650D01*
X5429961Y2145233D01*
X5434736Y2157628D01*
X5437784Y2170531D01*
X5439156Y2183688D01*
X5438698Y2196947D01*
X5436463Y2210003D01*
X5432552Y2222703D01*
X5427014Y2234692D01*
X5419852Y2245868D01*
X5411266Y2255977D01*
X5401513Y2264867D01*
X5390540Y2272385D01*
X5378704Y2278380D01*
X5366156Y2282698D01*
X5353202Y2285339D01*
X5339943Y2286254D01*
X5326786Y2285339D01*
X5313730Y2282698D01*
X5301284Y2278380D01*
X5289397Y2272385D01*
X5278475Y2264867D01*
X5268722Y2255977D01*
X5260086Y2245868D01*
X5252974Y2234692D01*
X5247386Y2222703D01*
X5243474Y2210003D01*
X5241290Y2196947D01*
X5240832Y2183688D01*
X5242204Y2170531D01*
X5245252Y2157628D01*
X5250027Y2145233D01*
X5256377Y2133650D01*
X5264200Y2122982D01*
X5273395Y2113432D01*
X5283809Y2105202D01*
X5295239Y2098446D01*
X5307431Y2093315D01*
X5320182Y2089810D01*
G37*
G36*
X419963Y1993544D02*
G01*
X435965Y1994458D01*
X451815Y1997202D01*
X467207Y2001723D01*
X481939Y2007971D01*
X495909Y2015845D01*
X508914Y2025294D01*
X520700Y2036114D01*
X531215Y2048256D01*
X540258Y2061464D01*
X547827Y2075688D01*
X553567Y2090623D01*
X557631Y2106117D01*
X559917Y2122017D01*
X560374Y2138019D01*
X559054Y2154021D01*
X555853Y2169718D01*
X550875Y2185009D01*
X544220Y2199589D01*
X535940Y2213305D01*
X526135Y2226005D01*
X514959Y2237536D01*
X502564Y2247696D01*
X489051Y2256332D01*
X474675Y2263444D01*
X459536Y2268829D01*
X443941Y2272436D01*
X427990Y2274265D01*
X411937Y2274265D01*
X396036Y2272436D01*
X380390Y2268829D01*
X365302Y2263444D01*
X350875Y2256332D01*
X337413Y2247696D01*
X324967Y2237536D01*
X313842Y2226005D01*
X303987Y2213305D01*
X295757Y2199589D01*
X289052Y2185009D01*
X284124Y2169718D01*
X280924Y2154021D01*
X279552Y2138019D01*
X280009Y2122017D01*
X282295Y2106117D01*
X286359Y2090623D01*
X292201Y2075688D01*
X299669Y2061464D01*
X308711Y2048256D01*
X319227Y2036114D01*
X331063Y2025294D01*
X344017Y2015845D01*
X357987Y2007971D01*
X372770Y2001723D01*
X388162Y1997202D01*
X403961Y1994458D01*
G37*
G36*
X5333339Y1834032D02*
G01*
X5346598Y1834032D01*
X5359704Y1835810D01*
X5372506Y1839315D01*
X5384698Y1844446D01*
X5396179Y1851202D01*
X5406491Y1859432D01*
X5415788Y1868982D01*
X5423611Y1879650D01*
X5429961Y1891233D01*
X5434736Y1903628D01*
X5437784Y1916531D01*
X5439156Y1929688D01*
X5438698Y1942947D01*
X5436463Y1956003D01*
X5432552Y1968703D01*
X5427014Y1980692D01*
X5419852Y1991868D01*
X5411266Y2001977D01*
X5401513Y2010867D01*
X5390540Y2018385D01*
X5378704Y2024380D01*
X5366156Y2028698D01*
X5353202Y2031339D01*
X5339943Y2032254D01*
X5326786Y2031339D01*
X5313730Y2028698D01*
X5301284Y2024380D01*
X5289397Y2018385D01*
X5278475Y2010867D01*
X5268722Y2001977D01*
X5260086Y1991868D01*
X5252974Y1980692D01*
X5247386Y1968703D01*
X5243474Y1956003D01*
X5241290Y1942947D01*
X5240832Y1929688D01*
X5242204Y1916531D01*
X5245252Y1903628D01*
X5250027Y1891233D01*
X5256377Y1879650D01*
X5264200Y1868982D01*
X5273395Y1859432D01*
X5283809Y1851202D01*
X5295239Y1844446D01*
X5307431Y1839315D01*
X5320182Y1835810D01*
G37*
G36*
X486308Y1692351D02*
G01*
X543763Y1692351D01*
X535940Y1705305D01*
X526135Y1718005D01*
X514959Y1729536D01*
X502564Y1739696D01*
X489051Y1748332D01*
X486308Y1749704D01*
G37*
G36*
X296265Y1692351D02*
G01*
X353618Y1692351D01*
X353618Y1749704D01*
X350875Y1748332D01*
X337413Y1739696D01*
X324967Y1729536D01*
X313842Y1718005D01*
X303987Y1705305D01*
G37*
G36*
X5261813Y1579778D02*
G01*
X5418175Y1579778D01*
X5423255Y1580337D01*
X5427573Y1581861D01*
X5431434Y1584299D01*
X5434736Y1587550D01*
X5437124Y1591411D01*
X5438698Y1595729D01*
X5439257Y1600860D01*
X5439257Y1757172D01*
X5438698Y1762302D01*
X5437124Y1766620D01*
X5434736Y1770481D01*
X5431434Y1773732D01*
X5427573Y1776171D01*
X5423255Y1777695D01*
X5418175Y1778254D01*
X5261813Y1778254D01*
X5256682Y1777695D01*
X5252364Y1776171D01*
X5248554Y1773732D01*
X5245252Y1770481D01*
X5242864Y1766620D01*
X5241290Y1762302D01*
X5240731Y1757172D01*
X5240731Y1600860D01*
X5241290Y1595729D01*
X5242864Y1591411D01*
X5245252Y1587550D01*
X5248554Y1584299D01*
X5252364Y1581861D01*
X5256682Y1580337D01*
G37*
G36*
X353618Y1502410D02*
G01*
X353618Y1559661D01*
X296418Y1559661D01*
X299669Y1553464D01*
X308711Y1540256D01*
X319227Y1528114D01*
X331063Y1517294D01*
X344017Y1507845D01*
G37*
G36*
X486308Y1502410D02*
G01*
X495909Y1507845D01*
X508914Y1517294D01*
X520700Y1528114D01*
X531215Y1540256D01*
X540258Y1553464D01*
X543560Y1559661D01*
X486308Y1559661D01*
G37*
G36*
X419963Y833526D02*
G01*
X435965Y834440D01*
X451815Y837184D01*
X467207Y841705D01*
X481939Y847953D01*
X495909Y855827D01*
X508914Y865276D01*
X520700Y876096D01*
X531215Y888237D01*
X540258Y901496D01*
X547827Y915669D01*
X553567Y930605D01*
X557631Y946150D01*
X559917Y961999D01*
X560374Y978052D01*
X559054Y994003D01*
X555853Y1009751D01*
X550875Y1024991D01*
X544220Y1039571D01*
X535940Y1053338D01*
X526135Y1066038D01*
X514959Y1077518D01*
X502564Y1087678D01*
X489051Y1096365D01*
X474675Y1103426D01*
X459536Y1108811D01*
X443941Y1112469D01*
X427990Y1114298D01*
X411937Y1114298D01*
X396036Y1112469D01*
X380390Y1108811D01*
X365302Y1103426D01*
X350875Y1096365D01*
X337413Y1087678D01*
X324967Y1077518D01*
X313842Y1066038D01*
X303987Y1053338D01*
X295757Y1039571D01*
X289052Y1024991D01*
X284124Y1009751D01*
X280924Y994003D01*
X279552Y978052D01*
X280009Y961999D01*
X282295Y946150D01*
X286359Y930605D01*
X292201Y915669D01*
X299669Y901496D01*
X308711Y888237D01*
X319227Y876096D01*
X331063Y865276D01*
X344017Y855827D01*
X357987Y847953D01*
X372770Y841705D01*
X388162Y837184D01*
X403961Y834440D01*
G37*

%LPD*%
D10*
X1119911Y99999D02*
G01*
X1659915Y99999D01*
X1869973Y310057D01*
X1869973Y800023D01*
X4055897Y1055039D02*
G01*
X3825011Y1055039D01*
X3700043Y930071D01*
X2000021Y930071D01*
X1869973Y800023D01*
X3571001Y480009D02*
G01*
X2605003Y480745D01*
X4329991Y1099997D02*
G01*
X4259991Y1029997D01*
X4199991Y1029997D01*
X3929992Y759998D01*
X3850990Y759998D01*
X3571001Y480009D01*
X3476599Y480009D01*
X3550015Y530021D02*
G01*
X2650007Y530021D01*
X2629941Y550087D01*
X2455951Y550087D01*
X4199991Y1099997D02*
G01*
X3909992Y809998D01*
X3829992Y809998D01*
X3550015Y530021D01*
X3509619Y530021D01*
X4232986Y1319987D02*
G01*
X4999995Y2086996D01*
X4999995Y2133998D01*
X3590061Y1740077D02*
G01*
X3670071Y1820087D01*
X4009923Y1820087D01*
X4112031Y1717979D01*
X4112031Y1257985D01*
X4208043Y1161973D01*
X5400065Y1161973D01*
X5400065Y1202867D01*
X4301997Y1246987D02*
G01*
X4999001Y1943991D01*
X4999001Y1984984D01*
X2359995Y629998D02*
G01*
X2709994Y629998D01*
D11*
X2924436Y1859998D02*
G01*
X2924436Y1499999D01*
X2924436Y1859998D02*
G01*
X2984436Y1919998D01*
X3834434Y1919998D01*
X4634433Y1919998D01*
D10*
X4099991Y1129995D02*
G01*
X3829989Y1129995D01*
X3679992Y979998D01*
X2519994Y979998D01*
X1819986Y1680006D01*
D12*
G01*
X419988Y2134006D03*
G01*
X419988Y1626006D03*
G01*
X419988Y973988D03*
G01*
X419988Y465988D03*
D13*
G01*
X2097989Y278511D03*
G01*
X2961995Y278511D03*
D14*
G01*
X2961995Y696518D03*
G01*
X2097989Y696518D03*
D15*
G01*
X5339994Y1678990D03*
D16*
G01*
X5339994Y1932990D03*
G01*
X5339994Y2186990D03*
G01*
X5339994Y2440990D03*
D15*
G01*
X4578984Y159994D03*
D16*
G01*
X4832984Y159994D03*
G01*
X5086984Y159994D03*
G01*
X5340984Y159994D03*
D17*
G01*
X3919981Y1399997D03*
G01*
X3919981Y1519986D03*
G01*
X3799992Y1519986D03*
G01*
X3799992Y1399997D03*
G01*
X4301997Y1246987D03*
G01*
X4998999Y1984984D03*
G01*
X4232986Y1319987D03*
G01*
X4999989Y2134006D03*
G01*
X4329988Y1099997D03*
G01*
X2604998Y480009D03*
G01*
X4199991Y1099997D03*
G01*
X2456002Y549986D03*
G01*
X4099991Y1129995D03*
G01*
X1819986Y1680006D03*
G01*
X4055998Y1054989D03*
G01*
X3589985Y1740001D03*
G01*
X5393994Y1202994D03*
G01*
X2359990Y629996D03*
G01*
X2710002Y629996D03*
G01*
X2924429Y1859991D03*
G01*
X2924429Y1499997D03*
G01*
X4634433Y1919986D03*
G01*
X110007Y2519984D03*
G01*
X499998Y80010D03*
G01*
X2299995Y199999D03*
G01*
X2799994Y199999D03*
G01*
X1849996Y89999D03*
G01*
X999997Y1539996D03*
G01*
X1709996Y299999D03*
G01*
X1689996Y1649996D03*
G01*
X1799996Y2349982D03*
G01*
X4163491Y409981D03*
G01*
X4017136Y186512D03*
G01*
X4299991Y199999D03*
G01*
X4299991Y499999D03*
G01*
X4017136Y509447D03*
G01*
X1953488Y2080006D03*
G01*
X2050008Y2349982D03*
G01*
X2050008Y1849983D03*
G01*
X1799996Y1849983D03*
G01*
X1780666Y2080006D03*
G01*
X2107234Y2080006D03*
G01*
X2650007Y2399995D03*
G01*
X2599994Y1899996D03*
G01*
X2099995Y1649984D03*
G01*
X2199995Y1449984D03*
G01*
X2750007Y1299997D03*
G01*
X3258007Y1696999D03*
G01*
X3507993Y1683994D03*
G01*
X3416985Y1210995D03*
G01*
X3356990Y783005D03*
G01*
X3081985Y807999D03*
G01*
X3835984Y210007D03*
G01*
X4610988Y754989D03*
G01*
X4881981Y756005D03*
G01*
X5092979Y1057986D03*
G01*
X5089982Y1481988D03*
G01*
X5401995Y1334998D03*
G01*
X4835982Y1691005D03*
G01*
X4434001Y1253007D03*
G01*
X5089982Y2529001D03*
G01*
X4519980Y2013991D03*
G01*
X4189984Y1789988D03*
G01*
X4989982Y1840001D03*
G01*
X2860065Y840917D03*
G01*
X2577007Y1488998D03*
G01*
X3007995Y1324991D03*
G01*
X4829987Y2010003D03*
G01*
X2069998Y1210005D03*
G01*
X1829993Y1380007D03*
G01*
X5359984Y640003D03*
G01*
X699998Y1969998D03*
G01*
X3821988Y899998D03*
G01*
X299999Y699998D03*
G01*
X999997Y1059997D03*
G01*
X4929987Y519988D03*
G01*
X3110001Y2399995D03*
G01*
X1359992Y2489987D03*
G01*
X3169996Y1080008D03*
G01*
X1119997Y99999D03*
M02*
