G04 Layer: TopSilkscreenLayer*
G04 EasyEDA v6.5.15, 2022-10-09 22:19:18*
G04 792860b319f64621ac1ba377023e4090,0b3a2bb33c9248688526e96ab25d6e06,10*
G04 Gerber Generator version 0.2*
G04 Scale: 100 percent, Rotated: No, Reflected: No *
G04 Dimensions in millimeters *
G04 leading zeros omitted , absolute positions ,4 integer and 5 decimal *
%FSLAX45Y45*%
%MOMM*%

%ADD10C,0.1000*%
%ADD11C,0.2000*%
%ADD12C,0.1500*%
%ADD13C,0.2032*%
%ADD14C,0.2540*%
%ADD15C,0.1520*%
%ADD16C,0.1524*%
%ADD17C,0.1520*%
%ADD18C,0.1270*%
%ADD19C,0.2030*%
%ADD20C,0.3000*%
%ADD21C,0.0154*%

%LPD*%
D10*
X2269975Y1420489D02*
G01*
X2288263Y1397629D01*
X2288263Y1372737D01*
X2306297Y1420489D02*
G01*
X2288263Y1397629D01*
X2440071Y1260487D02*
G01*
X2471821Y1212735D01*
X2471821Y1260487D02*
G01*
X2440071Y1212735D01*
D11*
X269199Y2534655D02*
G01*
X269199Y2436611D01*
X219923Y2485633D02*
G01*
X318221Y2485633D01*
X354289Y2529321D02*
G01*
X365211Y2534655D01*
X381467Y2551165D01*
X381467Y2436611D01*
X422869Y2523733D02*
G01*
X422869Y2529321D01*
X428457Y2540243D01*
X433791Y2545577D01*
X444713Y2551165D01*
X466557Y2551165D01*
X477479Y2545577D01*
X482813Y2540243D01*
X488401Y2529321D01*
X488401Y2518399D01*
X482813Y2507477D01*
X471891Y2490967D01*
X417535Y2436611D01*
X493735Y2436611D01*
X529803Y2551165D02*
G01*
X573491Y2436611D01*
X617179Y2551165D02*
G01*
X573491Y2436611D01*
X737067Y2551165D02*
G01*
X737067Y2436611D01*
X773135Y2551165D02*
G01*
X773135Y2436611D01*
X773135Y2551165D02*
G01*
X849335Y2436611D01*
X849335Y2551165D02*
G01*
X849335Y2436611D01*
X82829Y161213D02*
G01*
X71907Y155625D01*
X60985Y144703D01*
X55397Y133781D01*
X50063Y117525D01*
X50063Y90093D01*
X55397Y73837D01*
X60985Y62915D01*
X71907Y51993D01*
X82829Y46659D01*
X104673Y46659D01*
X115341Y51993D01*
X126263Y62915D01*
X131851Y73837D01*
X137185Y90093D01*
X137185Y117525D01*
X131851Y133781D01*
X126263Y144703D01*
X115341Y155625D01*
X104673Y161213D01*
X82829Y161213D01*
X173253Y161213D02*
G01*
X173253Y79171D01*
X178841Y62915D01*
X189763Y51993D01*
X206019Y46659D01*
X216941Y46659D01*
X233197Y51993D01*
X244119Y62915D01*
X249707Y79171D01*
X249707Y161213D01*
X323875Y161213D02*
G01*
X323875Y46659D01*
X285775Y161213D02*
G01*
X361975Y161213D01*
D12*
X910981Y1037285D02*
G01*
X910981Y955497D01*
X870087Y996391D02*
G01*
X951875Y996391D01*
D11*
X900981Y2397282D02*
G01*
X900981Y2315494D01*
X860087Y2356388D02*
G01*
X941875Y2356388D01*
X879881Y1606473D02*
G01*
X961923Y1606473D01*
D12*
X4349925Y660572D02*
G01*
X4349925Y593770D01*
X4349925Y660572D02*
G01*
X4378627Y660572D01*
X4388279Y657524D01*
X4391327Y654222D01*
X4394629Y647872D01*
X4394629Y641522D01*
X4391327Y635172D01*
X4388279Y632124D01*
X4378627Y628822D01*
X4349925Y628822D01*
X4372277Y628822D02*
G01*
X4394629Y593770D01*
X4460161Y651174D02*
G01*
X4453811Y657524D01*
X4444159Y660572D01*
X4431459Y660572D01*
X4421807Y657524D01*
X4415457Y651174D01*
X4415457Y644824D01*
X4418759Y638474D01*
X4421807Y635172D01*
X4428157Y632124D01*
X4447461Y625520D01*
X4453811Y622472D01*
X4456859Y619170D01*
X4460161Y612820D01*
X4460161Y603422D01*
X4453811Y597072D01*
X4444159Y593770D01*
X4431459Y593770D01*
X4421807Y597072D01*
X4415457Y603422D01*
X4503341Y660572D02*
G01*
X4503341Y593770D01*
X4480989Y660572D02*
G01*
X4525693Y660572D01*
X5029987Y1360601D02*
G01*
X5080787Y1284401D01*
X5080787Y1360601D02*
G01*
X5029987Y1284401D01*
X5104917Y1346123D02*
G01*
X5112283Y1349933D01*
X5123205Y1360601D01*
X5123205Y1284401D01*
X1544439Y92633D02*
G01*
X1540883Y99745D01*
X1533517Y107111D01*
X1526405Y110667D01*
X1511927Y110667D01*
X1504561Y107111D01*
X1497195Y99745D01*
X1493639Y92633D01*
X1490083Y81711D01*
X1490083Y63423D01*
X1493639Y52501D01*
X1497195Y45389D01*
X1504561Y38023D01*
X1511927Y34467D01*
X1526405Y34467D01*
X1533517Y38023D01*
X1540883Y45389D01*
X1544439Y52501D01*
X1572125Y92633D02*
G01*
X1572125Y96189D01*
X1575935Y103555D01*
X1579491Y107111D01*
X1586603Y110667D01*
X1601335Y110667D01*
X1608447Y107111D01*
X1612257Y103555D01*
X1615813Y96189D01*
X1615813Y88823D01*
X1612257Y81711D01*
X1604891Y70789D01*
X1568569Y34467D01*
X1619369Y34467D01*
X1499989Y310753D02*
G01*
X1499989Y234299D01*
X1499989Y310753D02*
G01*
X1525389Y310753D01*
X1536311Y307197D01*
X1543677Y299831D01*
X1547233Y292465D01*
X1550789Y281543D01*
X1550789Y263509D01*
X1547233Y252587D01*
X1543677Y245221D01*
X1536311Y238109D01*
X1525389Y234299D01*
X1499989Y234299D01*
X1578475Y292465D02*
G01*
X1578475Y296275D01*
X1582285Y303387D01*
X1585841Y307197D01*
X1593207Y310753D01*
X1607685Y310753D01*
X1614797Y307197D01*
X1618607Y303387D01*
X1622163Y296275D01*
X1622163Y288909D01*
X1618607Y281543D01*
X1611241Y270621D01*
X1574919Y234299D01*
X1625719Y234299D01*
X720077Y120667D02*
G01*
X720077Y44467D01*
X720077Y120667D02*
G01*
X752843Y120667D01*
X763511Y117111D01*
X767321Y113555D01*
X770877Y106189D01*
X770877Y98823D01*
X767321Y91711D01*
X763511Y87901D01*
X752843Y84345D01*
X720077Y84345D01*
X745477Y84345D02*
G01*
X770877Y44467D01*
X798563Y102633D02*
G01*
X798563Y106189D01*
X802119Y113555D01*
X805929Y117111D01*
X813041Y120667D01*
X827519Y120667D01*
X834885Y117111D01*
X838441Y113555D01*
X842251Y106189D01*
X842251Y98823D01*
X838441Y91711D01*
X831329Y80789D01*
X795007Y44467D01*
X845807Y44467D01*
X899929Y720681D02*
G01*
X899929Y644481D01*
X899929Y720681D02*
G01*
X932695Y720681D01*
X943617Y717125D01*
X947173Y713569D01*
X950983Y706203D01*
X950983Y698837D01*
X947173Y691725D01*
X943617Y687915D01*
X932695Y684359D01*
X899929Y684359D01*
X925329Y684359D02*
G01*
X950983Y644481D01*
X974859Y706203D02*
G01*
X982225Y709759D01*
X993147Y720681D01*
X993147Y644481D01*
X3574567Y2162479D02*
G01*
X3571011Y2169845D01*
X3563645Y2177211D01*
X3556279Y2180767D01*
X3541801Y2180767D01*
X3534435Y2177211D01*
X3527323Y2169845D01*
X3523767Y2162479D01*
X3519957Y2151557D01*
X3519957Y2133523D01*
X3523767Y2122601D01*
X3527323Y2115235D01*
X3534435Y2107869D01*
X3541801Y2104313D01*
X3556279Y2104313D01*
X3563645Y2107869D01*
X3571011Y2115235D01*
X3574567Y2122601D01*
X3635019Y2180767D02*
G01*
X3598443Y2129713D01*
X3653053Y2129713D01*
X3635019Y2180767D02*
G01*
X3635019Y2104313D01*
X4174515Y2152573D02*
G01*
X4170959Y2159685D01*
X4163593Y2167051D01*
X4156227Y2170607D01*
X4141749Y2170607D01*
X4134637Y2167051D01*
X4127271Y2159685D01*
X4123715Y2152573D01*
X4119905Y2141651D01*
X4119905Y2123363D01*
X4123715Y2112441D01*
X4127271Y2105329D01*
X4134637Y2097963D01*
X4141749Y2094407D01*
X4156227Y2094407D01*
X4163593Y2097963D01*
X4170959Y2105329D01*
X4174515Y2112441D01*
X4242079Y2170607D02*
G01*
X4205757Y2170607D01*
X4202201Y2138095D01*
X4205757Y2141651D01*
X4216679Y2145207D01*
X4227601Y2145207D01*
X4238523Y2141651D01*
X4245889Y2134285D01*
X4249445Y2123363D01*
X4249445Y2116251D01*
X4245889Y2105329D01*
X4238523Y2097963D01*
X4227601Y2094407D01*
X4216679Y2094407D01*
X4205757Y2097963D01*
X4202201Y2101519D01*
X4198645Y2108885D01*
X4304563Y1492427D02*
G01*
X4301007Y1499793D01*
X4293641Y1507159D01*
X4286275Y1510715D01*
X4271797Y1510715D01*
X4264431Y1507159D01*
X4257319Y1499793D01*
X4253763Y1492427D01*
X4249953Y1481505D01*
X4249953Y1463471D01*
X4253763Y1452549D01*
X4257319Y1445183D01*
X4264431Y1438071D01*
X4271797Y1434261D01*
X4286275Y1434261D01*
X4293641Y1438071D01*
X4301007Y1445183D01*
X4304563Y1452549D01*
X4372127Y1499793D02*
G01*
X4368571Y1507159D01*
X4357649Y1510715D01*
X4350283Y1510715D01*
X4339361Y1507159D01*
X4332249Y1496237D01*
X4328439Y1477949D01*
X4328439Y1459915D01*
X4332249Y1445183D01*
X4339361Y1438071D01*
X4350283Y1434261D01*
X4354093Y1434261D01*
X4365015Y1438071D01*
X4372127Y1445183D01*
X4375937Y1456105D01*
X4375937Y1459915D01*
X4372127Y1470837D01*
X4365015Y1477949D01*
X4354093Y1481505D01*
X4350283Y1481505D01*
X4339361Y1477949D01*
X4332249Y1470837D01*
X4328439Y1459915D01*
X4644669Y1772589D02*
G01*
X4640859Y1779701D01*
X4633747Y1787067D01*
X4626381Y1790623D01*
X4611903Y1790623D01*
X4604537Y1787067D01*
X4597425Y1779701D01*
X4593615Y1772589D01*
X4590059Y1761667D01*
X4590059Y1743379D01*
X4593615Y1732457D01*
X4597425Y1725091D01*
X4604537Y1717979D01*
X4611903Y1714169D01*
X4626381Y1714169D01*
X4633747Y1717979D01*
X4640859Y1725091D01*
X4644669Y1732457D01*
X4719599Y1790623D02*
G01*
X4683023Y1714169D01*
X4668545Y1790623D02*
G01*
X4719599Y1790623D01*
X3029229Y2152319D02*
G01*
X3025673Y2159685D01*
X3018307Y2167051D01*
X3010941Y2170607D01*
X2996463Y2170607D01*
X2989097Y2167051D01*
X2981985Y2159685D01*
X2978175Y2152319D01*
X2974619Y2141397D01*
X2974619Y2123363D01*
X2978175Y2112441D01*
X2981985Y2105075D01*
X2989097Y2097963D01*
X2996463Y2094153D01*
X3010941Y2094153D01*
X3018307Y2097963D01*
X3025673Y2105075D01*
X3029229Y2112441D01*
X3071393Y2170607D02*
G01*
X3060471Y2167051D01*
X3056915Y2159685D01*
X3056915Y2152319D01*
X3060471Y2145207D01*
X3067837Y2141397D01*
X3082315Y2137841D01*
X3093237Y2134285D01*
X3100349Y2126919D01*
X3104159Y2119807D01*
X3104159Y2108885D01*
X3100349Y2101519D01*
X3096793Y2097963D01*
X3085871Y2094153D01*
X3071393Y2094153D01*
X3060471Y2097963D01*
X3056915Y2101519D01*
X3053105Y2108885D01*
X3053105Y2119807D01*
X3056915Y2126919D01*
X3064027Y2134285D01*
X3074949Y2137841D01*
X3089427Y2141397D01*
X3096793Y2145207D01*
X3100349Y2152319D01*
X3100349Y2159685D01*
X3096793Y2167051D01*
X3085871Y2170607D01*
X3071393Y2170607D01*
X3188995Y2152319D02*
G01*
X3185439Y2159685D01*
X3178073Y2167051D01*
X3170961Y2170607D01*
X3156229Y2170607D01*
X3149117Y2167051D01*
X3141751Y2159685D01*
X3138195Y2152319D01*
X3134385Y2141397D01*
X3134385Y2123363D01*
X3138195Y2112441D01*
X3141751Y2105075D01*
X3149117Y2097963D01*
X3156229Y2094153D01*
X3170961Y2094153D01*
X3178073Y2097963D01*
X3185439Y2105075D01*
X3188995Y2112441D01*
X3260369Y2145207D02*
G01*
X3256559Y2134285D01*
X3249447Y2126919D01*
X3238525Y2123363D01*
X3234969Y2123363D01*
X3224047Y2126919D01*
X3216681Y2134285D01*
X3213125Y2145207D01*
X3213125Y2148763D01*
X3216681Y2159685D01*
X3224047Y2167051D01*
X3234969Y2170607D01*
X3238525Y2170607D01*
X3249447Y2167051D01*
X3256559Y2159685D01*
X3260369Y2145207D01*
X3260369Y2126919D01*
X3256559Y2108885D01*
X3249447Y2097963D01*
X3238525Y2094153D01*
X3231159Y2094153D01*
X3220237Y2097963D01*
X3216681Y2105075D01*
X3378987Y2152319D02*
G01*
X3375431Y2159685D01*
X3368065Y2167051D01*
X3360953Y2170607D01*
X3346221Y2170607D01*
X3339109Y2167051D01*
X3331743Y2159685D01*
X3328187Y2152319D01*
X3324377Y2141397D01*
X3324377Y2123363D01*
X3328187Y2112441D01*
X3331743Y2105075D01*
X3339109Y2097963D01*
X3346221Y2094153D01*
X3360953Y2094153D01*
X3368065Y2097963D01*
X3375431Y2105075D01*
X3378987Y2112441D01*
X3403117Y2156129D02*
G01*
X3410229Y2159685D01*
X3421151Y2170607D01*
X3421151Y2094153D01*
X3467125Y2170607D02*
G01*
X3456203Y2167051D01*
X3448837Y2156129D01*
X3445281Y2137841D01*
X3445281Y2126919D01*
X3448837Y2108885D01*
X3456203Y2097963D01*
X3467125Y2094153D01*
X3474237Y2094153D01*
X3485159Y2097963D01*
X3492525Y2108885D01*
X3496081Y2126919D01*
X3496081Y2137841D01*
X3492525Y2156129D01*
X3485159Y2167051D01*
X3474237Y2170607D01*
X3467125Y2170607D01*
X3534435Y912545D02*
G01*
X3530879Y919911D01*
X3523513Y927023D01*
X3516401Y930833D01*
X3501923Y930833D01*
X3494557Y927023D01*
X3487191Y919911D01*
X3483635Y912545D01*
X3480079Y901623D01*
X3480079Y883335D01*
X3483635Y872413D01*
X3487191Y865301D01*
X3494557Y857935D01*
X3501923Y854379D01*
X3516401Y854379D01*
X3523513Y857935D01*
X3530879Y865301D01*
X3534435Y872413D01*
X3558565Y916101D02*
G01*
X3565931Y919911D01*
X3576853Y930833D01*
X3576853Y854379D01*
X3600729Y916101D02*
G01*
X3608095Y919911D01*
X3619017Y930833D01*
X3619017Y854379D01*
X5397525Y724636D02*
G01*
X5390159Y720826D01*
X5382793Y713714D01*
X5379237Y706348D01*
X5379237Y691870D01*
X5382793Y684504D01*
X5390159Y677392D01*
X5397525Y673582D01*
X5408447Y670026D01*
X5426481Y670026D01*
X5437403Y673582D01*
X5444769Y677392D01*
X5451881Y684504D01*
X5455691Y691870D01*
X5455691Y706348D01*
X5451881Y713714D01*
X5444769Y720826D01*
X5437403Y724636D01*
X5393715Y748512D02*
G01*
X5390159Y755878D01*
X5379237Y766800D01*
X5455691Y766800D01*
X5397525Y794486D02*
G01*
X5393715Y794486D01*
X5386603Y798042D01*
X5382793Y801598D01*
X5379237Y808964D01*
X5379237Y823442D01*
X5382793Y830808D01*
X5386603Y834364D01*
X5393715Y837920D01*
X5401081Y837920D01*
X5408447Y834364D01*
X5419369Y826998D01*
X5455691Y790676D01*
X5455691Y841730D01*
X3264433Y1417497D02*
G01*
X3260877Y1424863D01*
X3253511Y1431975D01*
X3246399Y1435785D01*
X3231921Y1435785D01*
X3224555Y1431975D01*
X3217189Y1424863D01*
X3213633Y1417497D01*
X3210077Y1406575D01*
X3210077Y1388541D01*
X3213633Y1377619D01*
X3217189Y1370253D01*
X3224555Y1362887D01*
X3231921Y1359331D01*
X3246399Y1359331D01*
X3253511Y1362887D01*
X3260877Y1370253D01*
X3264433Y1377619D01*
X3288563Y1421053D02*
G01*
X3295929Y1424863D01*
X3306851Y1435785D01*
X3306851Y1359331D01*
X3338093Y1435785D02*
G01*
X3377971Y1435785D01*
X3356127Y1406575D01*
X3367049Y1406575D01*
X3374415Y1403019D01*
X3377971Y1399463D01*
X3381527Y1388541D01*
X3381527Y1381175D01*
X3377971Y1370253D01*
X3370605Y1362887D01*
X3359937Y1359331D01*
X3349015Y1359331D01*
X3338093Y1362887D01*
X3334283Y1366697D01*
X3330727Y1373809D01*
X1184607Y1662658D02*
G01*
X1180797Y1669770D01*
X1173685Y1677136D01*
X1166319Y1680692D01*
X1151841Y1680692D01*
X1144475Y1677136D01*
X1137363Y1669770D01*
X1133553Y1662658D01*
X1129997Y1651736D01*
X1129997Y1633448D01*
X1133553Y1622526D01*
X1137363Y1615160D01*
X1144475Y1608048D01*
X1151841Y1604238D01*
X1166319Y1604238D01*
X1173685Y1608048D01*
X1180797Y1615160D01*
X1184607Y1622526D01*
X1208483Y1666214D02*
G01*
X1215849Y1669770D01*
X1226771Y1680692D01*
X1226771Y1604238D01*
X1286969Y1680692D02*
G01*
X1250647Y1629892D01*
X1305257Y1629892D01*
X1286969Y1680692D02*
G01*
X1286969Y1604238D01*
X3004591Y932611D02*
G01*
X3001035Y939723D01*
X2993669Y947089D01*
X2986303Y950645D01*
X2971825Y950645D01*
X2964459Y947089D01*
X2957347Y939723D01*
X2953537Y932611D01*
X2949981Y921689D01*
X2949981Y903401D01*
X2953537Y892479D01*
X2957347Y885367D01*
X2964459Y878001D01*
X2971825Y874445D01*
X2986303Y874445D01*
X2993669Y878001D01*
X3001035Y885367D01*
X3004591Y892479D01*
X3028467Y936167D02*
G01*
X3035833Y939723D01*
X3046755Y950645D01*
X3046755Y874445D01*
X3114319Y950645D02*
G01*
X3077997Y950645D01*
X3074441Y917879D01*
X3077997Y921689D01*
X3088919Y925245D01*
X3099841Y925245D01*
X3110763Y921689D01*
X3118129Y914323D01*
X3121685Y903401D01*
X3121685Y896289D01*
X3118129Y885367D01*
X3110763Y878001D01*
X3099841Y874445D01*
X3088919Y874445D01*
X3077997Y878001D01*
X3074441Y881557D01*
X3070631Y888923D01*
X2417368Y2084425D02*
G01*
X2410256Y2080869D01*
X2402890Y2073503D01*
X2399334Y2066391D01*
X2399334Y2051913D01*
X2402890Y2044547D01*
X2410256Y2037181D01*
X2417368Y2033625D01*
X2428290Y2030069D01*
X2446578Y2030069D01*
X2457500Y2033625D01*
X2464612Y2037181D01*
X2471978Y2044547D01*
X2475534Y2051913D01*
X2475534Y2066391D01*
X2471978Y2073503D01*
X2464612Y2080869D01*
X2457500Y2084425D01*
X2413812Y2108555D02*
G01*
X2410256Y2115921D01*
X2399334Y2126843D01*
X2475534Y2126843D01*
X2410256Y2194407D02*
G01*
X2402890Y2190597D01*
X2399334Y2179929D01*
X2399334Y2172563D01*
X2402890Y2161641D01*
X2413812Y2154275D01*
X2432100Y2150719D01*
X2450134Y2150719D01*
X2464612Y2154275D01*
X2471978Y2161641D01*
X2475534Y2172563D01*
X2475534Y2176119D01*
X2471978Y2187041D01*
X2464612Y2194407D01*
X2453944Y2197963D01*
X2450134Y2197963D01*
X2439212Y2194407D01*
X2432100Y2187041D01*
X2428290Y2176119D01*
X2428290Y2172563D01*
X2432100Y2161641D01*
X2439212Y2154275D01*
X2450134Y2150719D01*
X3347567Y524510D02*
G01*
X3340201Y520954D01*
X3333089Y513588D01*
X3329279Y506476D01*
X3329279Y491744D01*
X3333089Y484632D01*
X3340201Y477266D01*
X3347567Y473710D01*
X3358489Y470154D01*
X3376523Y470154D01*
X3387445Y473710D01*
X3394811Y477266D01*
X3402177Y484632D01*
X3405733Y491744D01*
X3405733Y506476D01*
X3402177Y513588D01*
X3394811Y520954D01*
X3387445Y524510D01*
X3344011Y548640D02*
G01*
X3340201Y555752D01*
X3329279Y566674D01*
X3405733Y566674D01*
X3329279Y641604D02*
G01*
X3405733Y605282D01*
X3329279Y590804D02*
G01*
X3329279Y641604D01*
X2704617Y922451D02*
G01*
X2700807Y929817D01*
X2693695Y937183D01*
X2686329Y940739D01*
X2671851Y940739D01*
X2664485Y937183D01*
X2657373Y929817D01*
X2653563Y922451D01*
X2650007Y911529D01*
X2650007Y893495D01*
X2653563Y882573D01*
X2657373Y875207D01*
X2664485Y868095D01*
X2671851Y864285D01*
X2686329Y864285D01*
X2693695Y868095D01*
X2700807Y875207D01*
X2704617Y882573D01*
X2728493Y926261D02*
G01*
X2735859Y929817D01*
X2746781Y940739D01*
X2746781Y864285D01*
X2788945Y940739D02*
G01*
X2778023Y937183D01*
X2774467Y929817D01*
X2774467Y922451D01*
X2778023Y915339D01*
X2785389Y911529D01*
X2799867Y907973D01*
X2810789Y904417D01*
X2817901Y897051D01*
X2821711Y889939D01*
X2821711Y879017D01*
X2817901Y871651D01*
X2814345Y868095D01*
X2803423Y864285D01*
X2788945Y864285D01*
X2778023Y868095D01*
X2774467Y871651D01*
X2770657Y879017D01*
X2770657Y889939D01*
X2774467Y897051D01*
X2781579Y904417D01*
X2792501Y907973D01*
X2806979Y911529D01*
X2814345Y915339D01*
X2817901Y922451D01*
X2817901Y929817D01*
X2814345Y937183D01*
X2803423Y940739D01*
X2788945Y940739D01*
X4114571Y872667D02*
G01*
X4111015Y879779D01*
X4103649Y887145D01*
X4096283Y890701D01*
X4081805Y890701D01*
X4074439Y887145D01*
X4067327Y879779D01*
X4063771Y872667D01*
X4059961Y861745D01*
X4059961Y843457D01*
X4063771Y832535D01*
X4067327Y825169D01*
X4074439Y818057D01*
X4081805Y814247D01*
X4096283Y814247D01*
X4103649Y818057D01*
X4111015Y825169D01*
X4114571Y832535D01*
X4138447Y876223D02*
G01*
X4145813Y879779D01*
X4156735Y890701D01*
X4156735Y814247D01*
X4228109Y865301D02*
G01*
X4224299Y854379D01*
X4217187Y847013D01*
X4206265Y843457D01*
X4202455Y843457D01*
X4191533Y847013D01*
X4184421Y854379D01*
X4180865Y865301D01*
X4180865Y868857D01*
X4184421Y879779D01*
X4191533Y887145D01*
X4202455Y890701D01*
X4206265Y890701D01*
X4217187Y887145D01*
X4224299Y879779D01*
X4228109Y865301D01*
X4228109Y847013D01*
X4224299Y828979D01*
X4217187Y818057D01*
X4206265Y814247D01*
X4198899Y814247D01*
X4187977Y818057D01*
X4184421Y825169D01*
X3139186Y529996D02*
G01*
X3215639Y529996D01*
X3139186Y529996D02*
G01*
X3139186Y555396D01*
X3142995Y566318D01*
X3150107Y573684D01*
X3157473Y577240D01*
X3168395Y580796D01*
X3186429Y580796D01*
X3197352Y577240D01*
X3204718Y573684D01*
X3212084Y566318D01*
X3215639Y555396D01*
X3215639Y529996D01*
X3139186Y612292D02*
G01*
X3139186Y652170D01*
X3168395Y630326D01*
X3168395Y641248D01*
X3171952Y648614D01*
X3175507Y652170D01*
X3186429Y655726D01*
X3193795Y655726D01*
X3204718Y652170D01*
X3212084Y644804D01*
X3215639Y633882D01*
X3215639Y622960D01*
X3212084Y612292D01*
X3208273Y608482D01*
X3201161Y604926D01*
X2020044Y1091006D02*
G01*
X2020044Y1014552D01*
X2020044Y1091006D02*
G01*
X2052556Y1091006D01*
X2063478Y1087196D01*
X2067288Y1083640D01*
X2070844Y1076274D01*
X2070844Y1069162D01*
X2067288Y1061796D01*
X2063478Y1058240D01*
X2052556Y1054430D01*
X2020044Y1054430D01*
X2045444Y1054430D02*
G01*
X2070844Y1014552D01*
X2102086Y1091006D02*
G01*
X2142218Y1091006D01*
X2120374Y1061796D01*
X2131296Y1061796D01*
X2138408Y1058240D01*
X2142218Y1054430D01*
X2145774Y1043508D01*
X2145774Y1036396D01*
X2142218Y1025474D01*
X2134852Y1018108D01*
X2123930Y1014552D01*
X2113008Y1014552D01*
X2102086Y1018108D01*
X2098530Y1021918D01*
X2094974Y1029030D01*
X4370791Y919883D02*
G01*
X4363679Y926995D01*
X4352757Y930805D01*
X4338279Y930805D01*
X4327357Y926995D01*
X4319991Y919883D01*
X4319991Y912517D01*
X4323547Y905151D01*
X4327357Y901595D01*
X4334469Y898039D01*
X4356313Y890673D01*
X4363679Y887117D01*
X4367235Y883561D01*
X4370791Y876195D01*
X4370791Y865273D01*
X4363679Y857907D01*
X4352757Y854351D01*
X4338279Y854351D01*
X4327357Y857907D01*
X4319991Y865273D01*
X4394921Y930805D02*
G01*
X4412955Y854351D01*
X4431243Y930805D02*
G01*
X4412955Y854351D01*
X4431243Y930805D02*
G01*
X4449531Y854351D01*
X4467565Y930805D02*
G01*
X4449531Y854351D01*
X4491695Y916073D02*
G01*
X4498807Y919883D01*
X4509729Y930805D01*
X4509729Y854351D01*
X2020044Y1570812D02*
G01*
X2020044Y1494612D01*
X2020044Y1570812D02*
G01*
X2052556Y1570812D01*
X2063478Y1567256D01*
X2067288Y1563700D01*
X2070844Y1556334D01*
X2070844Y1548968D01*
X2067288Y1541856D01*
X2063478Y1538046D01*
X2052556Y1534490D01*
X2020044Y1534490D01*
X2045444Y1534490D02*
G01*
X2070844Y1494612D01*
X2131296Y1570812D02*
G01*
X2094720Y1520012D01*
X2149330Y1520012D01*
X2131296Y1570812D02*
G01*
X2131296Y1494612D01*
X5060045Y1750763D02*
G01*
X5060045Y1674309D01*
X5060045Y1750763D02*
G01*
X5092811Y1750763D01*
X5103733Y1747207D01*
X5107289Y1743397D01*
X5111099Y1736285D01*
X5111099Y1728919D01*
X5107289Y1721553D01*
X5103733Y1717997D01*
X5092811Y1714441D01*
X5060045Y1714441D01*
X5085445Y1714441D02*
G01*
X5111099Y1674309D01*
X5178663Y1750763D02*
G01*
X5142341Y1750763D01*
X5138531Y1717997D01*
X5142341Y1721553D01*
X5153263Y1725363D01*
X5164185Y1725363D01*
X5175107Y1721553D01*
X5182219Y1714441D01*
X5185775Y1703519D01*
X5185775Y1696153D01*
X5182219Y1685231D01*
X5175107Y1678119D01*
X5164185Y1674309D01*
X5153263Y1674309D01*
X5142341Y1678119D01*
X5138531Y1681675D01*
X5134975Y1689041D01*
X5060045Y2450787D02*
G01*
X5060045Y2374333D01*
X5060045Y2450787D02*
G01*
X5092811Y2450787D01*
X5103733Y2447231D01*
X5107289Y2443421D01*
X5111099Y2436309D01*
X5111099Y2428943D01*
X5107289Y2421577D01*
X5103733Y2418021D01*
X5092811Y2414465D01*
X5060045Y2414465D01*
X5085445Y2414465D02*
G01*
X5111099Y2374333D01*
X5178663Y2439865D02*
G01*
X5175107Y2447231D01*
X5164185Y2450787D01*
X5156819Y2450787D01*
X5145897Y2447231D01*
X5138531Y2436309D01*
X5134975Y2418021D01*
X5134975Y2399733D01*
X5138531Y2385255D01*
X5145897Y2378143D01*
X5156819Y2374333D01*
X5160375Y2374333D01*
X5171297Y2378143D01*
X5178663Y2385255D01*
X5182219Y2396177D01*
X5182219Y2399733D01*
X5178663Y2410655D01*
X5171297Y2418021D01*
X5160375Y2421577D01*
X5156819Y2421577D01*
X5145897Y2418021D01*
X5138531Y2410655D01*
X5134975Y2399733D01*
X4430039Y550849D02*
G01*
X4430039Y474395D01*
X4430039Y550849D02*
G01*
X4462805Y550849D01*
X4473727Y547039D01*
X4477283Y543483D01*
X4480839Y536117D01*
X4480839Y529005D01*
X4477283Y521639D01*
X4473727Y518083D01*
X4462805Y514273D01*
X4430039Y514273D01*
X4455439Y514273D02*
G01*
X4480839Y474395D01*
X4555769Y550849D02*
G01*
X4519447Y474395D01*
X4504969Y550849D02*
G01*
X4555769Y550849D01*
X4730013Y550849D02*
G01*
X4730013Y474395D01*
X4730013Y550849D02*
G01*
X4762779Y550849D01*
X4773701Y547039D01*
X4777257Y543483D01*
X4780813Y536117D01*
X4780813Y529005D01*
X4777257Y521639D01*
X4773701Y518083D01*
X4762779Y514273D01*
X4730013Y514273D01*
X4755413Y514273D02*
G01*
X4780813Y474395D01*
X4822977Y550849D02*
G01*
X4812055Y547039D01*
X4808499Y539927D01*
X4808499Y532561D01*
X4812055Y525195D01*
X4819421Y521639D01*
X4833899Y518083D01*
X4844821Y514273D01*
X4852187Y507161D01*
X4855743Y499795D01*
X4855743Y488873D01*
X4852187Y481761D01*
X4848631Y477951D01*
X4837709Y474395D01*
X4822977Y474395D01*
X4812055Y477951D01*
X4808499Y481761D01*
X4804943Y488873D01*
X4804943Y499795D01*
X4808499Y507161D01*
X4815865Y514273D01*
X4826787Y518083D01*
X4841265Y521639D01*
X4848631Y525195D01*
X4852187Y532561D01*
X4852187Y539927D01*
X4848631Y547039D01*
X4837709Y550849D01*
X4822977Y550849D01*
X5029987Y550849D02*
G01*
X5029987Y474395D01*
X5029987Y550849D02*
G01*
X5062753Y550849D01*
X5073675Y547039D01*
X5077231Y543483D01*
X5080787Y536117D01*
X5080787Y529005D01*
X5077231Y521639D01*
X5073675Y518083D01*
X5062753Y514273D01*
X5029987Y514273D01*
X5055387Y514273D02*
G01*
X5080787Y474395D01*
X5152161Y525195D02*
G01*
X5148605Y514273D01*
X5141239Y507161D01*
X5130317Y503351D01*
X5126761Y503351D01*
X5115839Y507161D01*
X5108473Y514273D01*
X5104917Y525195D01*
X5104917Y529005D01*
X5108473Y539927D01*
X5115839Y547039D01*
X5126761Y550849D01*
X5130317Y550849D01*
X5141239Y547039D01*
X5148605Y539927D01*
X5152161Y525195D01*
X5152161Y507161D01*
X5148605Y488873D01*
X5141239Y477951D01*
X5130317Y474395D01*
X5123205Y474395D01*
X5112283Y477951D01*
X5108473Y485317D01*
X5229232Y479905D02*
G01*
X5305686Y479905D01*
X5229232Y479905D02*
G01*
X5229232Y512671D01*
X5232788Y523593D01*
X5236598Y527149D01*
X5243710Y530959D01*
X5251076Y530959D01*
X5258442Y527149D01*
X5261998Y523593D01*
X5265554Y512671D01*
X5265554Y479905D01*
X5265554Y505559D02*
G01*
X5305686Y530959D01*
X5243710Y554835D02*
G01*
X5240154Y562201D01*
X5229232Y573123D01*
X5305686Y573123D01*
X5229232Y618843D02*
G01*
X5232788Y607921D01*
X5243710Y600809D01*
X5261998Y596999D01*
X5272920Y596999D01*
X5290954Y600809D01*
X5301876Y607921D01*
X5305686Y618843D01*
X5305686Y626209D01*
X5301876Y637131D01*
X5290954Y644243D01*
X5272920Y648053D01*
X5261998Y648053D01*
X5243710Y644243D01*
X5232788Y637131D01*
X5229232Y626209D01*
X5229232Y618843D01*
X2400071Y970711D02*
G01*
X2400071Y894257D01*
X2400071Y970711D02*
G01*
X2432837Y970711D01*
X2443505Y967155D01*
X2447315Y963345D01*
X2450871Y956233D01*
X2450871Y948867D01*
X2447315Y941755D01*
X2443505Y937945D01*
X2432837Y934389D01*
X2400071Y934389D01*
X2425471Y934389D02*
G01*
X2450871Y894257D01*
X2475001Y956233D02*
G01*
X2482113Y959789D01*
X2493035Y970711D01*
X2493035Y894257D01*
X2517165Y956233D02*
G01*
X2524277Y959789D01*
X2535199Y970711D01*
X2535199Y894257D01*
X5188018Y1261658D02*
G01*
X5188018Y1185458D01*
X5188018Y1261658D02*
G01*
X5220784Y1261658D01*
X5231706Y1258102D01*
X5235262Y1254546D01*
X5238818Y1247180D01*
X5238818Y1239814D01*
X5235262Y1232702D01*
X5231706Y1228892D01*
X5220784Y1225336D01*
X5188018Y1225336D01*
X5213418Y1225336D02*
G01*
X5238818Y1185458D01*
X5262948Y1247180D02*
G01*
X5270060Y1250736D01*
X5280982Y1261658D01*
X5280982Y1185458D01*
X5308668Y1243624D02*
G01*
X5308668Y1247180D01*
X5312478Y1254546D01*
X5316034Y1258102D01*
X5323146Y1261658D01*
X5337878Y1261658D01*
X5344990Y1258102D01*
X5348800Y1254546D01*
X5352356Y1247180D01*
X5352356Y1239814D01*
X5348800Y1232702D01*
X5341434Y1221780D01*
X5305112Y1185458D01*
X5355912Y1185458D01*
X2400071Y1130731D02*
G01*
X2400071Y1054277D01*
X2400071Y1130731D02*
G01*
X2432837Y1130731D01*
X2443505Y1127175D01*
X2447315Y1123365D01*
X2450871Y1116253D01*
X2450871Y1108887D01*
X2447315Y1101521D01*
X2443505Y1097965D01*
X2432837Y1094409D01*
X2400071Y1094409D01*
X2425471Y1094409D02*
G01*
X2450871Y1054277D01*
X2475001Y1116253D02*
G01*
X2482113Y1119809D01*
X2493035Y1130731D01*
X2493035Y1054277D01*
X2524277Y1130731D02*
G01*
X2564409Y1130731D01*
X2542565Y1101521D01*
X2553487Y1101521D01*
X2560599Y1097965D01*
X2564409Y1094409D01*
X2567965Y1083487D01*
X2567965Y1076121D01*
X2564409Y1065199D01*
X2557043Y1058087D01*
X2546121Y1054277D01*
X2535199Y1054277D01*
X2524277Y1058087D01*
X2520721Y1061643D01*
X2517165Y1069009D01*
X2459507Y1780717D02*
G01*
X2459507Y1704517D01*
X2459507Y1780717D02*
G01*
X2492019Y1780717D01*
X2502941Y1777161D01*
X2506751Y1773605D01*
X2510307Y1766239D01*
X2510307Y1758873D01*
X2506751Y1751761D01*
X2502941Y1747951D01*
X2492019Y1744395D01*
X2459507Y1744395D01*
X2484907Y1744395D02*
G01*
X2510307Y1704517D01*
X2534437Y1766239D02*
G01*
X2541549Y1769795D01*
X2552471Y1780717D01*
X2552471Y1704517D01*
X2612923Y1780717D02*
G01*
X2576601Y1729917D01*
X2630957Y1729917D01*
X2612923Y1780717D02*
G01*
X2612923Y1704517D01*
X2779293Y1760905D02*
G01*
X2779293Y1684451D01*
X2779293Y1760905D02*
G01*
X2812059Y1760905D01*
X2822981Y1757095D01*
X2826791Y1753539D01*
X2830347Y1746173D01*
X2830347Y1739061D01*
X2826791Y1731695D01*
X2822981Y1728139D01*
X2812059Y1724329D01*
X2779293Y1724329D01*
X2804947Y1724329D02*
G01*
X2830347Y1684451D01*
X2854223Y1746173D02*
G01*
X2861589Y1749983D01*
X2872511Y1760905D01*
X2872511Y1684451D01*
X2940075Y1760905D02*
G01*
X2903753Y1760905D01*
X2900197Y1728139D01*
X2903753Y1731695D01*
X2914675Y1735251D01*
X2925597Y1735251D01*
X2936519Y1731695D01*
X2943885Y1724329D01*
X2947441Y1713661D01*
X2947441Y1706295D01*
X2943885Y1695373D01*
X2936519Y1688007D01*
X2925597Y1684451D01*
X2914675Y1684451D01*
X2903753Y1688007D01*
X2900197Y1691817D01*
X2896387Y1698929D01*
X1821738Y570679D02*
G01*
X1814626Y567123D01*
X1807260Y559757D01*
X1803704Y552645D01*
X1799894Y541723D01*
X1799894Y523435D01*
X1803704Y512513D01*
X1807260Y505401D01*
X1814626Y498035D01*
X1821738Y494479D01*
X1836470Y494479D01*
X1843582Y498035D01*
X1850948Y505401D01*
X1854504Y512513D01*
X1858060Y523435D01*
X1858060Y541723D01*
X1854504Y552645D01*
X1850948Y559757D01*
X1843582Y567123D01*
X1836470Y570679D01*
X1821738Y570679D01*
X1832660Y508957D02*
G01*
X1854504Y487113D01*
X1882190Y556201D02*
G01*
X1889556Y559757D01*
X1900478Y570679D01*
X1900478Y494479D01*
X4069935Y150698D02*
G01*
X4069935Y96088D01*
X4073745Y85166D01*
X4080857Y78054D01*
X4091779Y74244D01*
X4099145Y74244D01*
X4110067Y78054D01*
X4117179Y85166D01*
X4120989Y96088D01*
X4120989Y150698D01*
X4181187Y150698D02*
G01*
X4144865Y99898D01*
X4199475Y99898D01*
X4181187Y150698D02*
G01*
X4181187Y74244D01*
X4654489Y1062482D02*
G01*
X4650933Y1069848D01*
X4643567Y1077214D01*
X4636455Y1080770D01*
X4621723Y1080770D01*
X4614611Y1077214D01*
X4607245Y1069848D01*
X4603689Y1062482D01*
X4599879Y1051560D01*
X4599879Y1033526D01*
X4603689Y1022604D01*
X4607245Y1015238D01*
X4614611Y1008126D01*
X4621723Y1004316D01*
X4636455Y1004316D01*
X4643567Y1008126D01*
X4650933Y1015238D01*
X4654489Y1022604D01*
X4678619Y1066292D02*
G01*
X4685731Y1069848D01*
X4696653Y1080770D01*
X4696653Y1004316D01*
X4534491Y1152441D02*
G01*
X4530935Y1159807D01*
X4523569Y1167173D01*
X4516457Y1170729D01*
X4501725Y1170729D01*
X4494613Y1167173D01*
X4487247Y1159807D01*
X4483691Y1152441D01*
X4479881Y1141519D01*
X4479881Y1123485D01*
X4483691Y1112563D01*
X4487247Y1105197D01*
X4494613Y1098085D01*
X4501725Y1094275D01*
X4516457Y1094275D01*
X4523569Y1098085D01*
X4530935Y1105197D01*
X4534491Y1112563D01*
X4565733Y1170729D02*
G01*
X4605865Y1170729D01*
X4584021Y1141519D01*
X4594943Y1141519D01*
X4602055Y1137963D01*
X4605865Y1134407D01*
X4609421Y1123485D01*
X4609421Y1116119D01*
X4605865Y1105197D01*
X4598499Y1098085D01*
X4587577Y1094275D01*
X4576655Y1094275D01*
X4565733Y1098085D01*
X4562177Y1101641D01*
X4558621Y1109007D01*
X906485Y1470837D02*
G01*
X906485Y1412417D01*
X902675Y1401749D01*
X899119Y1397939D01*
X891753Y1394383D01*
X884641Y1394383D01*
X877275Y1397939D01*
X873719Y1401749D01*
X869909Y1412417D01*
X869909Y1419783D01*
X930361Y1456105D02*
G01*
X937727Y1459915D01*
X948649Y1470837D01*
X948649Y1394383D01*
X906485Y1200835D02*
G01*
X906485Y1142669D01*
X902675Y1131747D01*
X899119Y1127937D01*
X891753Y1124381D01*
X884641Y1124381D01*
X877275Y1127937D01*
X873719Y1131747D01*
X869909Y1142669D01*
X869909Y1149781D01*
X933917Y1182547D02*
G01*
X933917Y1186103D01*
X937727Y1193469D01*
X941283Y1197025D01*
X948649Y1200835D01*
X963127Y1200835D01*
X970239Y1197025D01*
X974049Y1193469D01*
X977605Y1186103D01*
X977605Y1178991D01*
X974049Y1171625D01*
X966683Y1160703D01*
X930361Y1124381D01*
X981161Y1124381D01*
X3830012Y2160602D02*
G01*
X3830012Y2084402D01*
X3830012Y2084402D02*
G01*
X3873700Y2084402D01*
X3897576Y2146124D02*
G01*
X3904942Y2149680D01*
X3915864Y2160602D01*
X3915864Y2084402D01*
X3584328Y1880638D02*
G01*
X3584328Y1804438D01*
X3584328Y1804438D02*
G01*
X3628016Y1804438D01*
X3655702Y1862604D02*
G01*
X3655702Y1866160D01*
X3659258Y1873526D01*
X3663068Y1877082D01*
X3670180Y1880638D01*
X3684912Y1880638D01*
X3692024Y1877082D01*
X3695834Y1873526D01*
X3699390Y1866160D01*
X3699390Y1858794D01*
X3695834Y1851682D01*
X3688468Y1840760D01*
X3652146Y1804438D01*
X3702946Y1804438D01*
X3810025Y1100759D02*
G01*
X3810025Y1046149D01*
X3813581Y1035227D01*
X3820947Y1028115D01*
X3831869Y1024305D01*
X3838981Y1024305D01*
X3849903Y1028115D01*
X3857269Y1035227D01*
X3860825Y1046149D01*
X3860825Y1100759D01*
X3884955Y1086281D02*
G01*
X3892067Y1089837D01*
X3902989Y1100759D01*
X3902989Y1024305D01*
X1860067Y2390825D02*
G01*
X1860067Y2336215D01*
X1863623Y2325293D01*
X1870989Y2317927D01*
X1881911Y2314371D01*
X1889023Y2314371D01*
X1899945Y2317927D01*
X1907311Y2325293D01*
X1910867Y2336215D01*
X1910867Y2390825D01*
X1938553Y2372537D02*
G01*
X1938553Y2376093D01*
X1942109Y2383459D01*
X1945919Y2387015D01*
X1953031Y2390825D01*
X1967509Y2390825D01*
X1974875Y2387015D01*
X1978431Y2383459D01*
X1982241Y2376093D01*
X1982241Y2368981D01*
X1978431Y2361615D01*
X1971319Y2350693D01*
X1934997Y2314371D01*
X1985797Y2314371D01*
X2949981Y1420799D02*
G01*
X2949981Y1366189D01*
X2953537Y1355267D01*
X2960903Y1347901D01*
X2971825Y1344345D01*
X2979191Y1344345D01*
X2990113Y1347901D01*
X2997225Y1355267D01*
X3000781Y1366189D01*
X3000781Y1420799D01*
X3032277Y1420799D02*
G01*
X3072155Y1420799D01*
X3050311Y1391589D01*
X3061233Y1391589D01*
X3068599Y1388033D01*
X3072155Y1384477D01*
X3075711Y1373555D01*
X3075711Y1366189D01*
X3072155Y1355267D01*
X3064789Y1347901D01*
X3053867Y1344345D01*
X3043199Y1344345D01*
X3032277Y1347901D01*
X3028467Y1351711D01*
X3024911Y1358823D01*
X1939328Y40091D02*
G01*
X1993938Y40091D01*
X2004606Y43647D01*
X2011972Y51013D01*
X2015528Y61935D01*
X2015528Y69047D01*
X2011972Y79969D01*
X2004606Y87335D01*
X1993938Y90891D01*
X1939328Y90891D01*
X1950250Y165821D02*
G01*
X1942884Y158455D01*
X1939328Y147533D01*
X1939328Y133055D01*
X1942884Y122133D01*
X1950250Y115021D01*
X1957362Y115021D01*
X1964728Y118577D01*
X1968284Y122133D01*
X1972094Y129499D01*
X1979206Y151343D01*
X1983016Y158455D01*
X1986572Y162265D01*
X1993938Y165821D01*
X2004606Y165821D01*
X2011972Y158455D01*
X2015528Y147533D01*
X2015528Y133055D01*
X2011972Y122133D01*
X2004606Y115021D01*
X1939328Y189697D02*
G01*
X2015528Y189697D01*
X1939328Y189697D02*
G01*
X1939328Y222463D01*
X1942884Y233385D01*
X1946440Y237195D01*
X1953806Y240751D01*
X1961172Y240751D01*
X1968284Y237195D01*
X1972094Y233385D01*
X1975650Y222463D01*
X1975650Y189697D02*
G01*
X1975650Y222463D01*
X1979206Y233385D01*
X1983016Y237195D01*
X1990128Y240751D01*
X2001050Y240751D01*
X2008416Y237195D01*
X2011972Y233385D01*
X2015528Y222463D01*
X2015528Y189697D01*
X1009929Y2500807D02*
G01*
X1009929Y2424353D01*
X1009929Y2500807D02*
G01*
X1035329Y2500807D01*
X1046251Y2496997D01*
X1053617Y2489885D01*
X1057173Y2482519D01*
X1060983Y2471597D01*
X1060983Y2453563D01*
X1057173Y2442641D01*
X1053617Y2435275D01*
X1046251Y2427909D01*
X1035329Y2424353D01*
X1009929Y2424353D01*
X1084859Y2486075D02*
G01*
X1092225Y2489885D01*
X1103147Y2500807D01*
X1103147Y2424353D01*
X5316245Y1500809D02*
G01*
X5316245Y1442643D01*
X5312689Y1431721D01*
X5309133Y1427911D01*
X5301767Y1424355D01*
X5294655Y1424355D01*
X5287289Y1427911D01*
X5283733Y1431721D01*
X5279923Y1442643D01*
X5279923Y1449755D01*
X5347741Y1500809D02*
G01*
X5387619Y1500809D01*
X5365775Y1471599D01*
X5376697Y1471599D01*
X5384063Y1468043D01*
X5387619Y1464233D01*
X5391175Y1453565D01*
X5391175Y1446199D01*
X5387619Y1435277D01*
X5380253Y1427911D01*
X5369331Y1424355D01*
X5358409Y1424355D01*
X5347741Y1427911D01*
X5343931Y1431721D01*
X5340375Y1438833D01*
X4346247Y150675D02*
G01*
X4346247Y92509D01*
X4342691Y81587D01*
X4339135Y78031D01*
X4331769Y74475D01*
X4324657Y74475D01*
X4317291Y78031D01*
X4313735Y81587D01*
X4309925Y92509D01*
X4309925Y99875D01*
X4406699Y150675D02*
G01*
X4370377Y99875D01*
X4424987Y99875D01*
X4406699Y150675D02*
G01*
X4406699Y74475D01*
G36*
X1192072Y350164D02*
G01*
X1192072Y314909D01*
X1222552Y314909D01*
X1222552Y350164D01*
G37*
G36*
X1192072Y224942D02*
G01*
X1192072Y189687D01*
X1222552Y189687D01*
X1222552Y224942D01*
G37*
G36*
X4068064Y1717598D02*
G01*
X4115663Y1669999D01*
X4117594Y1669999D01*
X4109974Y1717598D01*
G37*
X2329992Y1279999D02*
G01*
X2529992Y1279999D01*
X2489995Y1319997D01*
X2329992Y1479991D02*
G01*
X2369990Y1440002D01*
X2329992Y1279999D02*
G01*
X2329992Y1479999D01*
X2289995Y1440002D01*
X2529992Y1279999D02*
G01*
X2489995Y1240000D01*
D13*
X4999969Y1199987D02*
G01*
X4999969Y1619986D01*
X4659970Y1619986D01*
X4659970Y1199987D01*
X4999969Y1199987D01*
D14*
X1160995Y60022D02*
G01*
X1160995Y140025D01*
X1271971Y29037D02*
G01*
X1191973Y29037D01*
X1271971Y171002D02*
G01*
X1191973Y171002D01*
X1329560Y28455D02*
G01*
X1409560Y28455D01*
X1440543Y59438D02*
G01*
X1440543Y139435D01*
X1329560Y170416D02*
G01*
X1409560Y170416D01*
D15*
X1390159Y197304D02*
G01*
X1390159Y217926D01*
X1390159Y342546D02*
G01*
X1390159Y322925D01*
D16*
X1214915Y342546D02*
G01*
X1390159Y342546D01*
X1214915Y197304D02*
G01*
X1390159Y197304D01*
X1255359Y342546D02*
G01*
X1255359Y197304D01*
X883925Y127482D02*
G01*
X883925Y31595D01*
X1016045Y31595D01*
X1016045Y127482D01*
X883925Y212725D02*
G01*
X883925Y308612D01*
X1016045Y308612D01*
X1016045Y212725D01*
X1016058Y522620D02*
G01*
X1016058Y618507D01*
X883937Y618507D01*
X883937Y522620D01*
X1016058Y437377D02*
G01*
X1016058Y341490D01*
X883937Y341490D01*
X883937Y437377D01*
D14*
X3779100Y2039896D02*
G01*
X3779100Y1959894D01*
X3668125Y2070882D02*
G01*
X3748123Y2070882D01*
X3668125Y1928916D02*
G01*
X3748123Y1928916D01*
X3610536Y2071463D02*
G01*
X3530536Y2071463D01*
X3499553Y2040481D02*
G01*
X3499553Y1960483D01*
X3610536Y1929503D02*
G01*
X3530536Y1929503D01*
X4121111Y1959942D02*
G01*
X4121111Y2039945D01*
X4232087Y1928957D02*
G01*
X4152089Y1928957D01*
X4232087Y2070922D02*
G01*
X4152089Y2070922D01*
X4289676Y1928375D02*
G01*
X4369676Y1928375D01*
X4400659Y1959358D02*
G01*
X4400659Y2039355D01*
X4289676Y2070336D02*
G01*
X4369676Y2070336D01*
X4269920Y1819135D02*
G01*
X4349922Y1819135D01*
X4238934Y1708160D02*
G01*
X4238934Y1788157D01*
X4380900Y1708160D02*
G01*
X4380900Y1788157D01*
X4238353Y1650570D02*
G01*
X4238353Y1570570D01*
X4269336Y1539587D02*
G01*
X4349333Y1539587D01*
X4380313Y1650570D02*
G01*
X4380313Y1570570D01*
X4450006Y1818881D02*
G01*
X4530008Y1818881D01*
X4419020Y1707906D02*
G01*
X4419020Y1787903D01*
X4560986Y1707906D02*
G01*
X4560986Y1787903D01*
X4418439Y1650316D02*
G01*
X4418439Y1570316D01*
X4449422Y1539333D02*
G01*
X4529419Y1539333D01*
X4560399Y1650316D02*
G01*
X4560399Y1570316D01*
X3084446Y1791068D02*
G01*
X3004444Y1791068D01*
X3115431Y1902043D02*
G01*
X3115431Y1822046D01*
X2973466Y1902043D02*
G01*
X2973466Y1822046D01*
X3116013Y1959632D02*
G01*
X3116013Y2039632D01*
X3085030Y2070615D02*
G01*
X3005033Y2070615D01*
X2974052Y1959632D02*
G01*
X2974052Y2039632D01*
X3174418Y2069071D02*
G01*
X3254420Y2069071D01*
X3143432Y1958096D02*
G01*
X3143432Y2038093D01*
X3285398Y1958096D02*
G01*
X3285398Y2038093D01*
X3142851Y1900506D02*
G01*
X3142851Y1820506D01*
X3173834Y1789523D02*
G01*
X3253831Y1789523D01*
X3284811Y1900506D02*
G01*
X3284811Y1820506D01*
X3354504Y2069071D02*
G01*
X3434506Y2069071D01*
X3323518Y1958096D02*
G01*
X3323518Y2038093D01*
X3465484Y1958096D02*
G01*
X3465484Y2038093D01*
X3322937Y1900506D02*
G01*
X3322937Y1820506D01*
X3353920Y1789523D02*
G01*
X3433917Y1789523D01*
X3464897Y1900506D02*
G01*
X3464897Y1820506D01*
X3481031Y1009982D02*
G01*
X3481031Y1089985D01*
X3592007Y978997D02*
G01*
X3512009Y978997D01*
X3592007Y1120962D02*
G01*
X3512009Y1120962D01*
X3649596Y978415D02*
G01*
X3729596Y978415D01*
X3760579Y1009398D02*
G01*
X3760579Y1089395D01*
X3649596Y1120376D02*
G01*
X3729596Y1120376D01*
X5468962Y970048D02*
G01*
X5468962Y890046D01*
X5357987Y1001034D02*
G01*
X5437985Y1001034D01*
X5357987Y859068D02*
G01*
X5437985Y859068D01*
X5300398Y1001615D02*
G01*
X5220398Y1001615D01*
X5189415Y970633D02*
G01*
X5189415Y890635D01*
X5300398Y859655D02*
G01*
X5220398Y859655D01*
X3478872Y1575076D02*
G01*
X3478872Y1495074D01*
X3367897Y1606062D02*
G01*
X3447895Y1606062D01*
X3367897Y1464096D02*
G01*
X3447895Y1464096D01*
X3310308Y1606643D02*
G01*
X3230308Y1606643D01*
X3199325Y1575661D02*
G01*
X3199325Y1495663D01*
X3310308Y1464683D02*
G01*
X3230308Y1464683D01*
X1618998Y1689973D02*
G01*
X1618998Y1609971D01*
X1508023Y1720959D02*
G01*
X1588020Y1720959D01*
X1508023Y1578993D02*
G01*
X1588020Y1578993D01*
X1450433Y1721540D02*
G01*
X1370434Y1721540D01*
X1339451Y1690557D02*
G01*
X1339451Y1610560D01*
X1450433Y1579580D02*
G01*
X1370434Y1579580D01*
X3069968Y990968D02*
G01*
X2989966Y990968D01*
X3100953Y1101943D02*
G01*
X3100953Y1021946D01*
X2958988Y1101943D02*
G01*
X2958988Y1021946D01*
X3101535Y1159532D02*
G01*
X3101535Y1239532D01*
X3070552Y1270515D02*
G01*
X2990555Y1270515D01*
X2959574Y1159532D02*
G01*
X2959574Y1239532D01*
X2239952Y2289035D02*
G01*
X2319954Y2289035D01*
X2208966Y2178060D02*
G01*
X2208966Y2258057D01*
X2350932Y2178060D02*
G01*
X2350932Y2258057D01*
X2208385Y2120470D02*
G01*
X2208385Y2040470D01*
X2239368Y2009487D02*
G01*
X2319365Y2009487D01*
X2350345Y2120470D02*
G01*
X2350345Y2040470D01*
X3319960Y428993D02*
G01*
X3399962Y428993D01*
X3288974Y318018D02*
G01*
X3288974Y398015D01*
X3430940Y318018D02*
G01*
X3430940Y398015D01*
X3288393Y260428D02*
G01*
X3288393Y180428D01*
X3319376Y149445D02*
G01*
X3399373Y149445D01*
X3430353Y260428D02*
G01*
X3430353Y180428D01*
X2630893Y1000076D02*
G01*
X2630893Y1080079D01*
X2741869Y969091D02*
G01*
X2661871Y969091D01*
X2741869Y1111056D02*
G01*
X2661871Y1111056D01*
X2799458Y968509D02*
G01*
X2879458Y968509D01*
X2910441Y999492D02*
G01*
X2910441Y1079489D01*
X2799458Y1110470D02*
G01*
X2879458Y1110470D01*
X4329010Y750084D02*
G01*
X4329010Y670082D01*
X4218035Y781070D02*
G01*
X4298033Y781070D01*
X4218035Y639104D02*
G01*
X4298033Y639104D01*
X4160446Y781651D02*
G01*
X4080446Y781651D01*
X4049463Y750669D02*
G01*
X4049463Y670671D01*
X4160446Y639691D02*
G01*
X4080446Y639691D01*
D17*
X3245459Y131991D02*
G01*
X3245459Y149374D01*
X3094431Y131991D02*
G01*
X3094431Y149374D01*
X3094431Y131991D02*
G01*
X3083326Y131991D01*
X3083326Y149374D01*
X3256564Y149374D02*
G01*
X3256564Y131991D01*
X3245459Y131991D01*
X3245459Y149374D02*
G01*
X3256564Y149374D01*
X3083326Y149374D02*
G01*
X3094431Y149374D01*
X3083326Y207279D02*
G01*
X3256564Y207279D01*
D16*
X3083326Y192991D02*
G01*
X3256564Y192991D01*
X3083326Y149374D02*
G01*
X3083326Y430608D01*
X3083326Y430608D02*
G01*
X3100125Y430608D01*
X3256564Y149374D02*
G01*
X3256564Y430608D01*
X3256564Y430608D02*
G01*
X3239764Y430608D01*
X1782086Y804877D02*
G01*
X1782086Y668886D01*
X1997905Y668886D01*
X1997905Y804877D01*
X1782086Y995118D02*
G01*
X1782086Y1131110D01*
X1997905Y1131110D01*
X1997905Y995118D01*
D14*
X5149992Y579996D02*
G01*
X4549990Y579996D01*
X4549990Y940000D02*
G01*
X5149992Y940000D01*
X5149992Y579996D02*
G01*
X5149992Y686884D01*
X5149992Y833112D02*
G01*
X5149992Y940000D01*
X4549990Y579996D02*
G01*
X4549990Y686884D01*
X4549990Y833112D02*
G01*
X4549990Y940000D01*
X5103990Y632998D02*
G01*
X4595990Y632998D01*
X4595990Y886998D01*
X5103990Y886998D01*
X5103990Y632998D01*
X4964290Y696498D02*
G01*
X4735690Y696498D01*
X4735690Y823498D01*
X4964290Y823498D01*
X4964290Y696498D01*
D16*
X1782086Y1285191D02*
G01*
X1782086Y1149200D01*
X1997905Y1149200D01*
X1997905Y1285191D01*
X1782086Y1475432D02*
G01*
X1782086Y1611424D01*
X1997905Y1611424D01*
X1997905Y1475432D01*
X5186050Y1952642D02*
G01*
X5186050Y2048530D01*
X5053929Y2048530D01*
X5053929Y1952642D01*
X5186050Y1867400D02*
G01*
X5186050Y1771512D01*
X5053929Y1771512D01*
X5053929Y1867400D01*
X5053929Y2167374D02*
G01*
X5053929Y2071486D01*
X5186050Y2071486D01*
X5186050Y2167374D01*
X5053929Y2252616D02*
G01*
X5053929Y2348504D01*
X5186050Y2348504D01*
X5186050Y2252616D01*
X4612614Y313847D02*
G01*
X4708502Y313847D01*
X4708502Y445968D01*
X4612614Y445968D01*
X4527372Y313847D02*
G01*
X4431484Y313847D01*
X4431484Y445968D01*
X4527372Y445968D01*
X4912588Y313847D02*
G01*
X5008476Y313847D01*
X5008476Y445968D01*
X4912588Y445968D01*
X4827346Y313847D02*
G01*
X4731458Y313847D01*
X4731458Y445968D01*
X4827346Y445968D01*
X5212562Y313847D02*
G01*
X5308450Y313847D01*
X5308450Y445968D01*
X5212562Y445968D01*
X5127320Y313847D02*
G01*
X5031432Y313847D01*
X5031432Y445968D01*
X5127320Y445968D01*
X5334005Y407390D02*
G01*
X5334005Y311503D01*
X5466125Y311503D01*
X5466125Y407390D01*
X5334005Y492633D02*
G01*
X5334005Y588520D01*
X5466125Y588520D01*
X5466125Y492633D01*
X2282672Y883823D02*
G01*
X2378560Y883823D01*
X2378560Y1015944D01*
X2282672Y1015944D01*
X2197430Y883823D02*
G01*
X2101542Y883823D01*
X2101542Y1015944D01*
X2197430Y1015944D01*
X5367611Y1033937D02*
G01*
X5463499Y1033937D01*
X5463499Y1166058D01*
X5367611Y1166058D01*
X5282369Y1033937D02*
G01*
X5186481Y1033937D01*
X5186481Y1166058D01*
X5282369Y1166058D01*
X2197430Y1166058D02*
G01*
X2101542Y1166058D01*
X2101542Y1033937D01*
X2197430Y1033937D01*
X2282672Y1166058D02*
G01*
X2378560Y1166058D01*
X2378560Y1033937D01*
X2282672Y1033937D01*
X2612618Y1533809D02*
G01*
X2708506Y1533809D01*
X2708506Y1665930D01*
X2612618Y1665930D01*
X2527376Y1533809D02*
G01*
X2431488Y1533809D01*
X2431488Y1665930D01*
X2527376Y1665930D01*
X2827350Y1665930D02*
G01*
X2731462Y1665930D01*
X2731462Y1533809D01*
X2827350Y1533809D01*
X2912592Y1665930D02*
G01*
X3008480Y1665930D01*
X3008480Y1533809D01*
X2912592Y1533809D01*
X1744616Y591517D02*
G01*
X1744616Y1188260D01*
X1075377Y591517D02*
G01*
X1075377Y1188260D01*
X1744616Y1188260D02*
G01*
X1075377Y1188260D01*
X4017131Y742619D02*
G01*
X4017131Y77378D01*
X3742852Y77378D01*
X3742852Y742619D01*
X4017131Y742619D01*
D14*
X4720988Y1030020D02*
G01*
X4720988Y1110023D01*
X4831963Y999035D02*
G01*
X4751966Y999035D01*
X4831963Y1141001D02*
G01*
X4751966Y1141001D01*
X4889553Y998453D02*
G01*
X4969553Y998453D01*
X5000536Y1029436D02*
G01*
X5000536Y1109433D01*
X4889553Y1140414D02*
G01*
X4969553Y1140414D01*
X4579967Y1200995D02*
G01*
X4499965Y1200995D01*
X4610953Y1311970D02*
G01*
X4610953Y1231973D01*
X4468987Y1311970D02*
G01*
X4468987Y1231973D01*
X4611535Y1369560D02*
G01*
X4611535Y1449560D01*
X4580552Y1480543D02*
G01*
X4500554Y1480543D01*
X4469574Y1369560D02*
G01*
X4469574Y1449560D01*
X829995Y2387996D02*
G01*
X829995Y1371996D01*
X829995Y2387996D02*
G01*
X9999Y2387996D01*
X829995Y1371996D02*
G01*
X10002Y1371996D01*
X10002Y2387996D02*
G01*
X10002Y1371996D01*
X616955Y2387996D02*
G01*
X616955Y1371996D01*
X220718Y2387996D02*
G01*
X220718Y1371996D01*
X68318Y2387996D02*
G01*
X68318Y1371996D01*
X708880Y2387996D02*
G01*
X708880Y2451496D01*
X623199Y2451496D01*
X623199Y2387996D01*
X153299Y2387996D02*
G01*
X153299Y2451496D01*
X67617Y2451496D01*
X67617Y2387996D01*
X829995Y1227998D02*
G01*
X829995Y211998D01*
X829995Y1227998D02*
G01*
X9999Y1227998D01*
X829995Y211998D02*
G01*
X10002Y211998D01*
X10002Y1227998D02*
G01*
X10002Y211998D01*
X616955Y1227998D02*
G01*
X616955Y211998D01*
X220718Y1227998D02*
G01*
X220718Y211998D01*
X68318Y1227998D02*
G01*
X68318Y211998D01*
X708880Y1227998D02*
G01*
X708880Y1291498D01*
X623199Y1291498D01*
X623199Y1227998D01*
X153299Y1227998D02*
G01*
X153299Y1291498D01*
X67617Y1291498D01*
X67617Y1227998D01*
D15*
X3822824Y1934860D02*
G01*
X3899024Y1934860D01*
X4075826Y1934860D02*
G01*
X3999626Y1934860D01*
X4075826Y2066980D02*
G01*
X3999626Y2066980D01*
D16*
X4075826Y2066980D02*
G01*
X4091056Y2051738D01*
X4091056Y1950095D01*
X4075826Y1934860D01*
D15*
X3822824Y2066980D02*
G01*
X3899024Y2066980D01*
D16*
X3822824Y1934860D02*
G01*
X3807581Y1950095D01*
X3807581Y2051738D01*
X3822824Y2066980D01*
D15*
X3991602Y1905134D02*
G01*
X3915402Y1905134D01*
X3738600Y1905134D02*
G01*
X3814800Y1905134D01*
X3738600Y1773013D02*
G01*
X3814800Y1773013D01*
D16*
X3738600Y1773013D02*
G01*
X3723370Y1788256D01*
X3723370Y1889899D01*
X3738600Y1905134D01*
D15*
X3991602Y1773013D02*
G01*
X3915402Y1773013D01*
D16*
X3991602Y1905134D02*
G01*
X4006844Y1889899D01*
X4006844Y1788256D01*
X3991602Y1773013D01*
D15*
X4117611Y1668045D02*
G01*
X4068041Y1717616D01*
D16*
X4117611Y1251948D02*
G01*
X4117611Y1202377D01*
X4068041Y1202377D01*
X3602372Y1251948D02*
G01*
X3602372Y1202377D01*
X3651943Y1202377D01*
X4117611Y1668045D02*
G01*
X4117611Y1717616D01*
X4068041Y1717616D01*
X3602372Y1668045D02*
G01*
X3602372Y1717616D01*
X3651943Y1717616D01*
X1807136Y2412616D02*
G01*
X1807136Y1747375D01*
X1532856Y1747375D01*
X1532856Y2412616D01*
X1807136Y2412616D01*
X2833044Y1432618D02*
G01*
X2907614Y1432618D01*
X2907614Y1408046D01*
X2833044Y1167376D02*
G01*
X2907614Y1167376D01*
X2907614Y1191948D01*
X2666944Y1432618D02*
G01*
X2592374Y1432618D01*
X2592374Y1408046D01*
X2666944Y1167376D02*
G01*
X2592374Y1167376D01*
X2592374Y1191948D01*
D14*
X2987192Y387677D02*
G01*
X2987192Y577306D01*
X2072792Y169298D02*
G01*
X2072792Y11991D01*
X2987192Y11991D01*
X2987192Y169298D01*
X2072792Y577306D02*
G01*
X2072792Y387677D01*
D18*
X1079997Y2133495D02*
G01*
X1079997Y2006495D01*
X1041897Y2108100D02*
G01*
X1079997Y2031900D01*
X1079997Y2031900D02*
G01*
X1118097Y2031900D01*
X1118097Y2108100D02*
G01*
X1079997Y2031900D01*
X1079997Y2108100D02*
G01*
X1118097Y2108100D01*
X1079997Y2031900D02*
G01*
X1041897Y2031900D01*
X1079997Y2108100D02*
G01*
X1041897Y2108100D01*
D14*
X1219995Y1981100D02*
G01*
X939998Y1981100D01*
X940000Y1839998D02*
G01*
X939998Y2300003D01*
X1219995Y1839998D02*
G01*
X1219997Y2300003D01*
X940000Y1839998D02*
G01*
X956884Y1839998D01*
X1203111Y1839998D02*
G01*
X1219995Y1839998D01*
X939998Y2300003D02*
G01*
X956884Y2300003D01*
X1203111Y2300003D02*
G01*
X1219997Y2300003D01*
D13*
X5212989Y2567995D02*
G01*
X5466989Y2567995D01*
X5466989Y1551995D01*
X5212989Y1551995D01*
X5212989Y1742495D01*
D19*
X5212989Y2567995D02*
G01*
X5212989Y1742495D01*
D13*
X5467990Y286999D02*
G01*
X5467990Y32999D01*
X4451990Y32999D01*
X4451990Y286999D01*
X4642490Y286999D01*
D19*
X5467990Y286999D02*
G01*
X4642490Y286999D01*
D20*
G75*
G01*
X5034948Y1219995D02*
G03*
X5034948Y1220249I15001J127D01*
D14*
G75*
G01*
X1440548Y59439D02*
G02*
X1409565Y28456I-30983J0D01*
G75*
G01*
X1409565Y170421D02*
G02*
X1440548Y139436I0J-30983D01*
G75*
G01*
X1191979Y29037D02*
G02*
X1160996Y60023I0J30983D01*
G75*
G01*
X1160996Y140020D02*
G02*
X1191979Y171003I30983J0D01*
G75*
G01*
X3499549Y2040481D02*
G02*
X3530531Y2071464I30982J0D01*
G75*
G01*
X3530531Y1929498D02*
G02*
X3499549Y1960484I0J30983D01*
G75*
G01*
X3748118Y2070882D02*
G02*
X3779101Y2039897I0J-30983D01*
G75*
G01*
X3779101Y1959900D02*
G02*
X3748118Y1928917I-30983J0D01*
G75*
G01*
X4400664Y1959359D02*
G02*
X4369681Y1928376I-30983J0D01*
G75*
G01*
X4369681Y2070341D02*
G02*
X4400664Y2039356I0J-30983D01*
G75*
G01*
X4152095Y1928957D02*
G02*
X4121112Y1959943I0J30983D01*
G75*
G01*
X4121112Y2039940D02*
G02*
X4152095Y2070923I30983J0D01*
G75*
G01*
X4269336Y1539583D02*
G02*
X4238353Y1570566I0J30983D01*
G75*
G01*
X4380319Y1570566D02*
G02*
X4349333Y1539583I-30983J0D01*
G75*
G01*
X4238935Y1788152D02*
G02*
X4269920Y1819135I30983J0D01*
G75*
G01*
X4349918Y1819135D02*
G02*
X4380901Y1788152I0J-30983D01*
G75*
G01*
X4449422Y1539329D02*
G02*
X4418439Y1570312I0J30983D01*
G75*
G01*
X4560405Y1570312D02*
G02*
X4529419Y1539329I-30983J0D01*
G75*
G01*
X4419021Y1787898D02*
G02*
X4450006Y1818881I30983J0D01*
G75*
G01*
X4530004Y1818881D02*
G02*
X4560987Y1787898I0J-30983D01*
G75*
G01*
X3085031Y2070621D02*
G02*
X3116014Y2039638I0J-30983D01*
G75*
G01*
X2974048Y2039638D02*
G02*
X3005033Y2070621I30983J0D01*
G75*
G01*
X3115432Y1822051D02*
G02*
X3084446Y1791068I-30983J0D01*
G75*
G01*
X3004449Y1791068D02*
G02*
X2973466Y1822051I0J30983D01*
G75*
G01*
X3173834Y1789519D02*
G02*
X3142851Y1820502I0J30983D01*
G75*
G01*
X3284817Y1820502D02*
G02*
X3253831Y1789519I-30983J0D01*
G75*
G01*
X3143433Y2038088D02*
G02*
X3174418Y2069071I30983J0D01*
G75*
G01*
X3254416Y2069071D02*
G02*
X3285399Y2038088I0J-30983D01*
G75*
G01*
X3353920Y1789519D02*
G02*
X3322937Y1820502I0J30983D01*
G75*
G01*
X3464903Y1820502D02*
G02*
X3433917Y1789519I-30983J0D01*
G75*
G01*
X3323519Y2038088D02*
G02*
X3354504Y2069071I30983J0D01*
G75*
G01*
X3434502Y2069071D02*
G02*
X3465485Y2038088I0J-30983D01*
G75*
G01*
X3760584Y1009399D02*
G02*
X3729601Y978416I-30983J0D01*
G75*
G01*
X3729601Y1120381D02*
G02*
X3760584Y1089396I0J-30983D01*
G75*
G01*
X3512015Y978997D02*
G02*
X3481032Y1009983I0J30983D01*
G75*
G01*
X3481032Y1089980D02*
G02*
X3512015Y1120963I30983J0D01*
G75*
G01*
X5189410Y970633D02*
G02*
X5220393Y1001616I30983J0D01*
G75*
G01*
X5220393Y859650D02*
G02*
X5189410Y890636I0J30983D01*
G75*
G01*
X5437980Y1001034D02*
G02*
X5468963Y970049I0J-30983D01*
G75*
G01*
X5468963Y890052D02*
G02*
X5437980Y859069I-30983J0D01*
G75*
G01*
X3199320Y1575661D02*
G02*
X3230303Y1606644I30983J0D01*
G75*
G01*
X3230303Y1464678D02*
G02*
X3199320Y1495664I0J30983D01*
G75*
G01*
X3447890Y1606062D02*
G02*
X3478873Y1575077I0J-30983D01*
G75*
G01*
X3478873Y1495080D02*
G02*
X3447890Y1464097I-30983J0D01*
G75*
G01*
X1339446Y1690558D02*
G02*
X1370429Y1721541I30983J0D01*
G75*
G01*
X1370429Y1579575D02*
G02*
X1339446Y1610561I0J30983D01*
G75*
G01*
X1588016Y1720959D02*
G02*
X1618999Y1689974I0J-30983D01*
G75*
G01*
X1618999Y1609976D02*
G02*
X1588016Y1578994I-30983J0D01*
G75*
G01*
X3070553Y1270521D02*
G02*
X3101536Y1239538I0J-30983D01*
G75*
G01*
X2959570Y1239538D02*
G02*
X2990555Y1270521I30983J0D01*
G75*
G01*
X3100954Y1021951D02*
G02*
X3069968Y990968I-30983J0D01*
G75*
G01*
X2989971Y990968D02*
G02*
X2958988Y1021951I0J30983D01*
G75*
G01*
X2239368Y2009483D02*
G02*
X2208385Y2040466I0J30983D01*
G75*
G01*
X2350351Y2040466D02*
G02*
X2319365Y2009483I-30983J0D01*
G75*
G01*
X2208967Y2258052D02*
G02*
X2239952Y2289035I30983J0D01*
G75*
G01*
X2319950Y2289035D02*
G02*
X2350933Y2258052I0J-30983D01*
G75*
G01*
X3319376Y149441D02*
G02*
X3288393Y180424I0J30983D01*
G75*
G01*
X3430359Y180424D02*
G02*
X3399373Y149441I-30983J0D01*
G75*
G01*
X3288975Y398010D02*
G02*
X3319960Y428993I30983J0D01*
G75*
G01*
X3399958Y428993D02*
G02*
X3430941Y398010I0J-30983D01*
G75*
G01*
X2910446Y999493D02*
G02*
X2879463Y968510I-30983J0D01*
G75*
G01*
X2879463Y1110475D02*
G02*
X2910446Y1079490I0J-30983D01*
G75*
G01*
X2661877Y969091D02*
G02*
X2630894Y1000077I0J30983D01*
G75*
G01*
X2630894Y1080074D02*
G02*
X2661877Y1111057I30983J0D01*
G75*
G01*
X4049458Y750669D02*
G02*
X4080441Y781652I30983J0D01*
G75*
G01*
X4080441Y639686D02*
G02*
X4049458Y670672I0J30983D01*
G75*
G01*
X4298028Y781070D02*
G02*
X4329011Y750085I0J-30983D01*
G75*
G01*
X4329011Y670088D02*
G02*
X4298028Y639105I-30983J0D01*
G75*
G01*
X5000541Y1029437D02*
G02*
X4969558Y998454I-30983J0D01*
G75*
G01*
X4969558Y1140419D02*
G02*
X5000541Y1109434I0J-30983D01*
G75*
G01*
X4751972Y999035D02*
G02*
X4720989Y1030021I0J30983D01*
G75*
G01*
X4720989Y1110018D02*
G02*
X4751972Y1141001I30983J0D01*
G75*
G01*
X4580552Y1480548D02*
G02*
X4611535Y1449565I0J-30983D01*
G75*
G01*
X4469569Y1449565D02*
G02*
X4500555Y1480548I30983J0D01*
G75*
G01*
X4610953Y1231979D02*
G02*
X4579968Y1200996I-30982J0D01*
G75*
G01*
X4499971Y1200996D02*
G02*
X4468988Y1231979I0J30983D01*
D11*
G75*
G01
X4099992Y1749984D02*
G03X4099992Y1749984I-10008J0D01*
D12*
G75*
G01
X2567000Y1376197D02*
G03X2567000Y1376197I-7493J0D01*
M02*
