G04 Layer: TopLayer*
G04 EasyEDA v6.5.15, 2022-10-09 22:19:18*
G04 792860b319f64621ac1ba377023e4090,0b3a2bb33c9248688526e96ab25d6e06,10*
G04 Gerber Generator version 0.2*
G04 Scale: 100 percent, Rotated: No, Reflected: No *
G04 Dimensions in millimeters *
G04 leading zeros omitted , absolute positions ,4 integer and 5 decimal *
%FSLAX45Y45*%
%MOMM*%

%AMMACRO1*21,1,$1,$2,0,0,$3*%
%ADD10C,0.5000*%
%ADD11C,0.8000*%
%ADD12C,1.0000*%
%ADD13C,0.3000*%
%ADD14C,0.5080*%
%ADD15C,0.4000*%
%ADD16C,0.8890*%
%ADD17R,1.2000X1.4000*%
%ADD18R,0.8000X0.9000*%
%ADD19R,1.0000X0.7500*%
%ADD20MACRO1,0.864X0.8065X0.0000*%
%ADD21R,0.8640X0.8065*%
%ADD22R,0.9000X0.8000*%
%ADD23R,1.1500X0.9500*%
%ADD24MACRO1,1.701X1.2075X0.0000*%
%ADD25R,1.7010X1.2075*%
%ADD26R,2.0000X1.3800*%
%ADD27C,0.8890*%
%ADD28C,0.5080*%
%ADD29MACRO1,0.864X0.8065X90.0000*%
%ADD30MACRO1,0.864X0.8065X-90.0000*%
%ADD31R,1.6000X3.0000*%
%ADD32R,5.8000X6.2000*%
%ADD33MACRO1,0.98X2.47X-90.0000*%
%ADD34MACRO1,3.6X2.47X90.0000*%
%ADD35R,0.8000X0.8640*%
%ADD36R,0.2800X0.6500*%
%ADD37R,0.6500X0.2800*%
%ADD38R,3.8000X3.8000*%
%ADD39R,0.6750X0.2800*%
%ADD40R,0.2800X0.6750*%
%ADD41R,0.3000X1.3000*%
%ADD42R,2.0000X2.0000*%
%ADD43C,2.4000*%
%ADD44O,1.1999976X1.7999964*%
%ADD45O,1.1999976X1.9999959999999999*%
%ADD46R,1.5748X1.5748*%
%ADD47C,1.5748*%
%ADD48C,0.6096*%
%ADD49C,0.0132*%

%LPD*%
G36*
X2949092Y1905507D02*
G01*
X2945180Y1906320D01*
X2942234Y1907539D01*
X2939084Y1909724D01*
X2735326Y2113381D01*
X2728366Y2118664D01*
X2720898Y2122424D01*
X2712770Y2124710D01*
X2703931Y2125522D01*
X2351125Y2125522D01*
X2347722Y2126081D01*
X2344775Y2127758D01*
X2342489Y2130298D01*
X2340914Y2132787D01*
X2337663Y2136038D01*
X2333752Y2138476D01*
X2328367Y2140356D01*
X2324811Y2142490D01*
X2322423Y2145893D01*
X2321560Y2150160D01*
X2322423Y2154224D01*
X2324811Y2157628D01*
X2328367Y2159762D01*
X2333752Y2161641D01*
X2337663Y2164080D01*
X2340914Y2167331D01*
X2343302Y2171192D01*
X2344877Y2175510D01*
X2345385Y2180640D01*
X2345385Y2193696D01*
X2308758Y2193696D01*
X2308758Y2150719D01*
X2308047Y2146858D01*
X2305761Y2143556D01*
X2302459Y2141321D01*
X2298598Y2140559D01*
X2261209Y2140559D01*
X2257348Y2141321D01*
X2254046Y2143556D01*
X2251811Y2146858D01*
X2251100Y2150719D01*
X2251100Y2193696D01*
X2210155Y2193696D01*
X2206244Y2194458D01*
X2202942Y2196693D01*
X2200757Y2199995D01*
X2199995Y2203856D01*
X2199995Y2236216D01*
X2200757Y2240127D01*
X2202942Y2243429D01*
X2206244Y2245614D01*
X2210155Y2246376D01*
X2251100Y2246376D01*
X2251100Y2280564D01*
X2235454Y2280564D01*
X2230374Y2279954D01*
X2226056Y2278481D01*
X2222195Y2276043D01*
X2215743Y2269388D01*
X2211628Y2267813D01*
X2207361Y2268118D01*
X2203500Y2270201D01*
X2200910Y2273655D01*
X2199995Y2277872D01*
X2199995Y2563926D01*
X2200757Y2567838D01*
X2202942Y2571140D01*
X2206244Y2573324D01*
X2210155Y2574086D01*
X3289808Y2574086D01*
X3293770Y2573324D01*
X3296970Y2571140D01*
X3299206Y2567838D01*
X3299968Y2563926D01*
X3299968Y2301036D01*
X3301034Y2300020D01*
X3433013Y2300020D01*
X3437331Y2299055D01*
X3440836Y2296414D01*
X3442868Y2292553D01*
X3443071Y2288133D01*
X3441395Y2284069D01*
X3435858Y2275992D01*
X3434029Y2272080D01*
X3463442Y2272080D01*
X3463442Y2289860D01*
X3464204Y2293772D01*
X3466439Y2297023D01*
X3469741Y2299258D01*
X3473602Y2300020D01*
X3510432Y2300020D01*
X3514344Y2299258D01*
X3517595Y2297023D01*
X3519881Y2293772D01*
X3520592Y2289860D01*
X3520592Y2272080D01*
X3550056Y2272080D01*
X3548227Y2275992D01*
X3542639Y2284069D01*
X3540963Y2288133D01*
X3541217Y2292553D01*
X3543249Y2296414D01*
X3546754Y2299055D01*
X3551021Y2300020D01*
X3589832Y2300020D01*
X3593693Y2299258D01*
X3596995Y2297023D01*
X3599230Y2293772D01*
X3600043Y2289860D01*
X3600043Y2075586D01*
X3599027Y2071370D01*
X3596436Y2067915D01*
X3596436Y2026361D01*
X3599027Y2022856D01*
X3600043Y2018639D01*
X3600043Y1981250D01*
X3599027Y1977034D01*
X3596436Y1973529D01*
X3596436Y1931974D01*
X3599027Y1928520D01*
X3600043Y1924304D01*
X3600043Y1915668D01*
X3599230Y1911807D01*
X3596995Y1908505D01*
X3593693Y1906270D01*
X3589832Y1905507D01*
X3465677Y1905507D01*
X3462274Y1906066D01*
X3459327Y1907743D01*
X3457041Y1910283D01*
X3455466Y1912823D01*
X3452215Y1916074D01*
X3448304Y1918512D01*
X3442919Y1920392D01*
X3439363Y1922525D01*
X3436975Y1925929D01*
X3436112Y1930196D01*
X3436975Y1934260D01*
X3439363Y1937664D01*
X3442919Y1939798D01*
X3448304Y1941677D01*
X3452215Y1944116D01*
X3455466Y1947367D01*
X3457854Y1951228D01*
X3459429Y1955546D01*
X3459987Y1960676D01*
X3459987Y1973732D01*
X3423361Y1973732D01*
X3423361Y1930755D01*
X3422548Y1926894D01*
X3420313Y1923592D01*
X3417011Y1921357D01*
X3413150Y1920595D01*
X3375761Y1920595D01*
X3371900Y1921357D01*
X3368598Y1923592D01*
X3366363Y1926894D01*
X3365652Y1930755D01*
X3365652Y1973732D01*
X3329025Y1973732D01*
X3329025Y1960676D01*
X3329584Y1955546D01*
X3331057Y1951228D01*
X3333546Y1947367D01*
X3336747Y1944116D01*
X3340608Y1941677D01*
X3346043Y1939798D01*
X3349548Y1937664D01*
X3351936Y1934260D01*
X3352850Y1929993D01*
X3351936Y1925929D01*
X3349548Y1922525D01*
X3346043Y1920392D01*
X3340608Y1918512D01*
X3336747Y1916074D01*
X3333546Y1912823D01*
X3331870Y1910283D01*
X3329584Y1907743D01*
X3326637Y1906066D01*
X3323285Y1905507D01*
X3285591Y1905507D01*
X3282187Y1906066D01*
X3279241Y1907743D01*
X3276955Y1910283D01*
X3275380Y1912823D01*
X3272129Y1916074D01*
X3268217Y1918512D01*
X3262833Y1920392D01*
X3259277Y1922525D01*
X3256889Y1925929D01*
X3256026Y1930196D01*
X3256889Y1934260D01*
X3259277Y1937664D01*
X3262833Y1939798D01*
X3268217Y1941677D01*
X3272129Y1944116D01*
X3275380Y1947367D01*
X3277768Y1951228D01*
X3279292Y1955546D01*
X3279851Y1960676D01*
X3279851Y1973732D01*
X3243224Y1973732D01*
X3243224Y1930755D01*
X3242513Y1926894D01*
X3240227Y1923592D01*
X3236925Y1921357D01*
X3233064Y1920595D01*
X3195675Y1920595D01*
X3191814Y1921357D01*
X3188512Y1923592D01*
X3186277Y1926894D01*
X3185515Y1930755D01*
X3185515Y1973732D01*
X3148888Y1973732D01*
X3148888Y1960676D01*
X3149447Y1955546D01*
X3150971Y1951228D01*
X3153410Y1947367D01*
X3156661Y1944116D01*
X3160522Y1941677D01*
X3165957Y1939798D01*
X3169462Y1937664D01*
X3171850Y1934260D01*
X3172764Y1929993D01*
X3171850Y1925929D01*
X3169462Y1922525D01*
X3165957Y1920392D01*
X3160522Y1918512D01*
X3156661Y1916074D01*
X3153410Y1912823D01*
X3151784Y1910283D01*
X3149498Y1907743D01*
X3146552Y1906066D01*
X3143199Y1905507D01*
X3115614Y1905507D01*
X3112262Y1906066D01*
X3109315Y1907743D01*
X3107029Y1910283D01*
X3105404Y1912823D01*
X3102254Y1916074D01*
X3098292Y1918512D01*
X3092958Y1920392D01*
X3089351Y1922525D01*
X3086963Y1925929D01*
X3086150Y1930196D01*
X3086963Y1934260D01*
X3089351Y1937664D01*
X3092958Y1939798D01*
X3098292Y1941677D01*
X3102254Y1944116D01*
X3105404Y1947367D01*
X3107842Y1951228D01*
X3109366Y1955546D01*
X3109925Y1960676D01*
X3109925Y1973732D01*
X3073298Y1973732D01*
X3073298Y1930755D01*
X3072536Y1926894D01*
X3070301Y1923592D01*
X3066999Y1921357D01*
X3063138Y1920595D01*
X3025800Y1920595D01*
X3021888Y1921357D01*
X3018586Y1923592D01*
X3016402Y1926894D01*
X3015589Y1930755D01*
X3015589Y1973732D01*
X2978962Y1973732D01*
X2978962Y1960676D01*
X2979521Y1955546D01*
X2981045Y1951228D01*
X2983534Y1947367D01*
X2986684Y1944116D01*
X2990596Y1941677D01*
X2995980Y1939798D01*
X2999536Y1937664D01*
X3001924Y1934260D01*
X3002788Y1929993D01*
X3001924Y1925929D01*
X2999536Y1922525D01*
X2995980Y1920392D01*
X2990596Y1918512D01*
X2986684Y1916074D01*
X2983534Y1912823D01*
X2981858Y1910283D01*
X2979572Y1907743D01*
X2976626Y1906066D01*
X2973324Y1905507D01*
G37*

%LPC*%
G36*
X3509568Y2028799D02*
G01*
X3543808Y2028799D01*
X3543808Y2065426D01*
X3530650Y2065426D01*
X3525520Y2064867D01*
X3521201Y2063343D01*
X3517341Y2060905D01*
X3514090Y2057704D01*
X3511702Y2053793D01*
X3510229Y2049475D01*
X3509568Y2044395D01*
G37*
G36*
X3329025Y2026412D02*
G01*
X3365652Y2026412D01*
X3365652Y2060600D01*
X3350006Y2060600D01*
X3344926Y2059990D01*
X3340608Y2058517D01*
X3336747Y2056079D01*
X3333546Y2052828D01*
X3331057Y2048967D01*
X3329584Y2044649D01*
X3329025Y2039518D01*
G37*
G36*
X3148888Y2026412D02*
G01*
X3185515Y2026412D01*
X3185515Y2060600D01*
X3169920Y2060600D01*
X3164840Y2059990D01*
X3160522Y2058517D01*
X3156661Y2056079D01*
X3153410Y2052828D01*
X3150971Y2048967D01*
X3149447Y2044649D01*
X3148888Y2039518D01*
G37*
G36*
X3073298Y2026412D02*
G01*
X3109925Y2026412D01*
X3109925Y2039518D01*
X3109366Y2044649D01*
X3107842Y2048967D01*
X3105404Y2052828D01*
X3102254Y2056079D01*
X3098292Y2058517D01*
X3093974Y2059990D01*
X3088894Y2060600D01*
X3073298Y2060600D01*
G37*
G36*
X2978962Y2026412D02*
G01*
X3015589Y2026412D01*
X3015589Y2060600D01*
X2999994Y2060600D01*
X2994964Y2059990D01*
X2990596Y2058517D01*
X2986684Y2056079D01*
X2983534Y2052828D01*
X2981045Y2048967D01*
X2979521Y2044649D01*
X2978962Y2039518D01*
G37*
G36*
X3423361Y2026412D02*
G01*
X3459987Y2026412D01*
X3459987Y2039518D01*
X3459429Y2044649D01*
X3457854Y2048967D01*
X3455466Y2052828D01*
X3452215Y2056079D01*
X3448304Y2058517D01*
X3443986Y2059990D01*
X3438906Y2060600D01*
X3423361Y2060600D01*
G37*
G36*
X3530650Y1934464D02*
G01*
X3543808Y1934464D01*
X3543808Y1971090D01*
X3509568Y1971090D01*
X3509568Y1955495D01*
X3510229Y1950415D01*
X3511702Y1946097D01*
X3514090Y1942185D01*
X3517341Y1938985D01*
X3521201Y1936546D01*
X3525520Y1935022D01*
G37*
G36*
X3243224Y2026412D02*
G01*
X3279851Y2026412D01*
X3279851Y2039518D01*
X3279292Y2044649D01*
X3277768Y2048967D01*
X3275380Y2052828D01*
X3272129Y2056079D01*
X3268217Y2058517D01*
X3263950Y2059990D01*
X3258820Y2060600D01*
X3243224Y2060600D01*
G37*
G36*
X3520592Y2185365D02*
G01*
X3522167Y2186025D01*
X3531006Y2191613D01*
X3538829Y2198573D01*
X3545484Y2206650D01*
X3550259Y2214930D01*
X3520592Y2214930D01*
G37*
G36*
X3463442Y2185365D02*
G01*
X3463442Y2214930D01*
X3433826Y2214930D01*
X3438601Y2206650D01*
X3445256Y2198573D01*
X3453079Y2191613D01*
X3461918Y2186025D01*
G37*
G36*
X2308758Y2246376D02*
G01*
X2345385Y2246376D01*
X2345385Y2259482D01*
X2344877Y2264613D01*
X2343302Y2268931D01*
X2340914Y2272792D01*
X2337663Y2276043D01*
X2333752Y2278481D01*
X2329484Y2279954D01*
X2324354Y2280564D01*
X2308758Y2280564D01*
G37*

%LPD*%
G36*
X1710131Y1799996D02*
G01*
X1706270Y1800809D01*
X1702968Y1802993D01*
X1700733Y1806295D01*
X1700022Y1810156D01*
X1700022Y2489860D01*
X1700733Y2493772D01*
X1702968Y2497023D01*
X1706270Y2499258D01*
X1710131Y2500020D01*
X2139797Y2500020D01*
X2143709Y2499258D01*
X2147011Y2497023D01*
X2149195Y2493772D01*
X2149957Y2489860D01*
X2149957Y1810156D01*
X2149195Y1806295D01*
X2147011Y1802993D01*
X2143709Y1800809D01*
X2139797Y1799996D01*
G37*

%LPC*%
G36*
X1830527Y1879498D02*
G01*
X1885391Y1879498D01*
X1885391Y1983689D01*
X1809496Y1983689D01*
X1809496Y1900580D01*
X1810054Y1895449D01*
X1811578Y1891131D01*
X1814017Y1887270D01*
X1817268Y1884070D01*
X1821129Y1881632D01*
X1825447Y1880107D01*
G37*
G36*
X2021586Y1879498D02*
G01*
X2076399Y1879498D01*
X2081580Y1880107D01*
X2085898Y1881632D01*
X2089759Y1884070D01*
X2092960Y1887270D01*
X2095398Y1891131D01*
X2096871Y1895449D01*
X2097481Y1900580D01*
X2097481Y1983689D01*
X2021586Y1983689D01*
G37*
G36*
X1809496Y2176373D02*
G01*
X1885391Y2176373D01*
X1885391Y2280513D01*
X1830527Y2280513D01*
X1825447Y2279954D01*
X1821129Y2278430D01*
X1817268Y2275992D01*
X1814017Y2272741D01*
X1811578Y2268880D01*
X1810054Y2264562D01*
X1809496Y2259431D01*
G37*
G36*
X2021586Y2176373D02*
G01*
X2097481Y2176373D01*
X2097481Y2259431D01*
X2096871Y2264562D01*
X2095398Y2268880D01*
X2092960Y2272741D01*
X2089759Y2275992D01*
X2085898Y2278430D01*
X2081580Y2279954D01*
X2076399Y2280513D01*
X2021586Y2280513D01*
G37*

%LPD*%
G36*
X3480409Y1570532D02*
G01*
X3476802Y1571193D01*
X3473704Y1573123D01*
X3471418Y1576019D01*
X3470351Y1579524D01*
X3469741Y1584655D01*
X3468268Y1588973D01*
X3465880Y1592884D01*
X3462578Y1596085D01*
X3460242Y1597558D01*
X3457701Y1599844D01*
X3456025Y1602841D01*
X3455466Y1606194D01*
X3455466Y1804365D01*
X3456228Y1808276D01*
X3458514Y1811528D01*
X3461715Y1813763D01*
X3465677Y1814525D01*
X3589731Y1814525D01*
X3593693Y1813763D01*
X3596944Y1811528D01*
X3599129Y1808276D01*
X3599891Y1804365D01*
X3599129Y1800453D01*
X3596944Y1797202D01*
X3593541Y1793798D01*
X3590848Y1791868D01*
X3587800Y1790903D01*
X3578606Y1789684D01*
X3569919Y1786889D01*
X3561943Y1782521D01*
X3554780Y1776831D01*
X3548786Y1769973D01*
X3544062Y1762150D01*
X3540861Y1753565D01*
X3539236Y1744573D01*
X3539236Y1735480D01*
X3540861Y1726488D01*
X3544062Y1717903D01*
X3548786Y1710080D01*
X3554780Y1703222D01*
X3561943Y1697532D01*
X3569919Y1693164D01*
X3578606Y1690370D01*
X3583178Y1689760D01*
X3587242Y1688287D01*
X3590493Y1684832D01*
X3593134Y1687830D01*
X3596944Y1689607D01*
X3605682Y1691589D01*
X3614115Y1695196D01*
X3621735Y1700225D01*
X3628390Y1706524D01*
X3632098Y1711706D01*
X3635298Y1714550D01*
X3639261Y1715820D01*
X3643477Y1715414D01*
X3647084Y1713280D01*
X3649573Y1709877D01*
X3650487Y1705711D01*
X3650487Y1679702D01*
X3649675Y1675790D01*
X3647541Y1672488D01*
X3644188Y1670304D01*
X3640328Y1669542D01*
X3599230Y1669542D01*
X3595166Y1670405D01*
X3591763Y1672843D01*
X3590493Y1674875D01*
X3589528Y1673047D01*
X3586073Y1670456D01*
X3581806Y1669542D01*
X3575202Y1668932D01*
X3570884Y1667408D01*
X3567023Y1665020D01*
X3563721Y1661769D01*
X3561283Y1657908D01*
X3559810Y1653590D01*
X3559200Y1648460D01*
X3559200Y1621586D01*
X3559810Y1616456D01*
X3560927Y1613357D01*
X3561486Y1610004D01*
X3560927Y1606651D01*
X3559810Y1603552D01*
X3559200Y1598472D01*
X3559200Y1580692D01*
X3558438Y1576781D01*
X3556254Y1573479D01*
X3552951Y1571294D01*
X3549040Y1570532D01*
G37*

%LPD*%
G36*
X3223920Y1420520D02*
G01*
X3220059Y1421282D01*
X3216757Y1423466D01*
X3188309Y1451864D01*
X3186125Y1455166D01*
X3185363Y1459026D01*
X3185363Y1669491D01*
X3184550Y1677365D01*
X3182213Y1684426D01*
X3178454Y1690928D01*
X3174695Y1695399D01*
X3095345Y1774748D01*
X3089198Y1779727D01*
X3087319Y1780692D01*
X3083966Y1783384D01*
X3082086Y1787245D01*
X3081934Y1791563D01*
X3083560Y1795525D01*
X3086709Y1798472D01*
X3090773Y1799843D01*
X3093974Y1800199D01*
X3098292Y1801672D01*
X3102254Y1804111D01*
X3105404Y1807362D01*
X3106928Y1809750D01*
X3109264Y1812289D01*
X3112211Y1813966D01*
X3115513Y1814525D01*
X3143300Y1814525D01*
X3146704Y1813966D01*
X3149650Y1812289D01*
X3151886Y1809750D01*
X3153410Y1807362D01*
X3156661Y1804111D01*
X3160522Y1801672D01*
X3164840Y1800199D01*
X3169920Y1799589D01*
X3258820Y1799589D01*
X3263950Y1800199D01*
X3268217Y1801672D01*
X3272129Y1804111D01*
X3275380Y1807362D01*
X3276854Y1809750D01*
X3279140Y1812289D01*
X3282086Y1813966D01*
X3285490Y1814525D01*
X3323386Y1814525D01*
X3326739Y1813966D01*
X3329686Y1812289D01*
X3331972Y1809750D01*
X3333546Y1807362D01*
X3336747Y1804111D01*
X3340608Y1801672D01*
X3344926Y1800199D01*
X3350006Y1799589D01*
X3354324Y1799589D01*
X3358184Y1798828D01*
X3361486Y1796643D01*
X3363722Y1793341D01*
X3364534Y1789430D01*
X3364534Y1606346D01*
X3363925Y1602994D01*
X3362248Y1599996D01*
X3359759Y1597761D01*
X3357118Y1596085D01*
X3353866Y1592884D01*
X3351479Y1588973D01*
X3349548Y1583588D01*
X3347415Y1580032D01*
X3344011Y1577644D01*
X3339795Y1576781D01*
X3335731Y1577644D01*
X3332327Y1580032D01*
X3330143Y1583588D01*
X3328263Y1588973D01*
X3325825Y1592884D01*
X3322574Y1596085D01*
X3318713Y1598523D01*
X3314395Y1600047D01*
X3309264Y1600606D01*
X3296259Y1600606D01*
X3296259Y1563979D01*
X3339236Y1563979D01*
X3343097Y1563217D01*
X3346348Y1560982D01*
X3348634Y1557680D01*
X3349345Y1553819D01*
X3349345Y1516430D01*
X3348634Y1512570D01*
X3346348Y1509268D01*
X3343097Y1507032D01*
X3339236Y1506270D01*
X3296259Y1506270D01*
X3296259Y1469644D01*
X3309264Y1469644D01*
X3314395Y1470202D01*
X3318713Y1471726D01*
X3322574Y1474165D01*
X3325825Y1477365D01*
X3328263Y1481277D01*
X3330143Y1486662D01*
X3332327Y1490218D01*
X3335731Y1492605D01*
X3339947Y1493469D01*
X3344011Y1492605D01*
X3347415Y1490218D01*
X3349548Y1486662D01*
X3351479Y1481277D01*
X3353866Y1477365D01*
X3357118Y1474165D01*
X3360978Y1471726D01*
X3365296Y1470202D01*
X3370427Y1469644D01*
X3449269Y1469644D01*
X3454450Y1470202D01*
X3458718Y1471726D01*
X3462578Y1474165D01*
X3465880Y1477365D01*
X3468268Y1481277D01*
X3469741Y1485595D01*
X3470300Y1490522D01*
X3471367Y1494028D01*
X3473704Y1496923D01*
X3476802Y1498854D01*
X3480409Y1499514D01*
X3549040Y1499514D01*
X3552951Y1498752D01*
X3556254Y1496568D01*
X3558438Y1493266D01*
X3559200Y1489354D01*
X3559200Y1471574D01*
X3559810Y1466494D01*
X3560927Y1463395D01*
X3561486Y1460042D01*
X3560927Y1456690D01*
X3559810Y1453591D01*
X3559200Y1448460D01*
X3559200Y1430680D01*
X3558438Y1426768D01*
X3556254Y1423466D01*
X3552951Y1421282D01*
X3549040Y1420520D01*
G37*

%LPC*%
G36*
X3230473Y1469644D02*
G01*
X3243529Y1469644D01*
X3243529Y1506270D01*
X3209391Y1506270D01*
X3209391Y1490675D01*
X3209950Y1485595D01*
X3211423Y1481277D01*
X3213862Y1477365D01*
X3217113Y1474165D01*
X3220974Y1471726D01*
X3225292Y1470202D01*
G37*
G36*
X3209391Y1563979D02*
G01*
X3243529Y1563979D01*
X3243529Y1600606D01*
X3230473Y1600606D01*
X3225292Y1600047D01*
X3220974Y1598523D01*
X3217113Y1596085D01*
X3213862Y1592884D01*
X3211423Y1588973D01*
X3209950Y1584655D01*
X3209391Y1579575D01*
G37*

%LPD*%
G36*
X3809949Y1263040D02*
G01*
X3806647Y1263599D01*
X3803497Y1264716D01*
X3798468Y1265275D01*
X3771595Y1265275D01*
X3769918Y1265072D01*
X3765702Y1265478D01*
X3761994Y1267612D01*
X3759504Y1271016D01*
X3758641Y1275181D01*
X3758641Y1358696D01*
X3675126Y1358696D01*
X3671011Y1359560D01*
X3667607Y1362049D01*
X3665474Y1365758D01*
X3665016Y1369974D01*
X3665220Y1371600D01*
X3665220Y1398473D01*
X3664661Y1403553D01*
X3663543Y1406652D01*
X3662984Y1410004D01*
X3663543Y1413357D01*
X3664661Y1416456D01*
X3665220Y1421587D01*
X3665220Y1448460D01*
X3664661Y1453591D01*
X3663543Y1456690D01*
X3662984Y1460042D01*
X3663543Y1463395D01*
X3664661Y1466494D01*
X3665220Y1471574D01*
X3665220Y1498447D01*
X3664661Y1503578D01*
X3663543Y1506677D01*
X3662984Y1510030D01*
X3663543Y1513382D01*
X3664661Y1516481D01*
X3665220Y1521612D01*
X3665220Y1548434D01*
X3665016Y1550060D01*
X3665474Y1554276D01*
X3667607Y1557985D01*
X3671011Y1560474D01*
X3675126Y1561388D01*
X3758641Y1561388D01*
X3758641Y1644853D01*
X3759504Y1649018D01*
X3761994Y1652422D01*
X3765702Y1654556D01*
X3769918Y1654962D01*
X3771595Y1654759D01*
X3798468Y1654759D01*
X3803497Y1655368D01*
X3806647Y1656435D01*
X3809949Y1656994D01*
X3813301Y1656435D01*
X3816400Y1655368D01*
X3821531Y1654759D01*
X3848404Y1654759D01*
X3853586Y1655368D01*
X3856634Y1656435D01*
X3860037Y1656994D01*
X3863340Y1656435D01*
X3866438Y1655368D01*
X3871518Y1654759D01*
X3898392Y1654759D01*
X3903573Y1655368D01*
X3906621Y1656435D01*
X3909974Y1656994D01*
X3913327Y1656435D01*
X3916426Y1655368D01*
X3921607Y1654759D01*
X3948379Y1654759D01*
X3950004Y1654962D01*
X3954272Y1654556D01*
X3957929Y1652422D01*
X3960418Y1649018D01*
X3961333Y1644853D01*
X3961333Y1561388D01*
X4044797Y1561388D01*
X4048963Y1560474D01*
X4052366Y1557985D01*
X4054500Y1554276D01*
X4054957Y1550060D01*
X4054754Y1548434D01*
X4054754Y1521612D01*
X4055313Y1516481D01*
X4056430Y1513382D01*
X4056938Y1510030D01*
X4056430Y1506677D01*
X4055313Y1503578D01*
X4054754Y1498447D01*
X4054754Y1471574D01*
X4055313Y1466494D01*
X4056430Y1463395D01*
X4056938Y1460042D01*
X4056430Y1456690D01*
X4055313Y1453591D01*
X4054754Y1448460D01*
X4054754Y1421587D01*
X4055313Y1416456D01*
X4056430Y1413357D01*
X4056938Y1410004D01*
X4056430Y1406652D01*
X4055313Y1403553D01*
X4054754Y1398473D01*
X4054754Y1371600D01*
X4054957Y1369974D01*
X4054500Y1365758D01*
X4052366Y1362049D01*
X4048963Y1359560D01*
X4044797Y1358696D01*
X3961333Y1358696D01*
X3961333Y1275181D01*
X3960418Y1271016D01*
X3957929Y1267612D01*
X3954272Y1265478D01*
X3950004Y1265072D01*
X3948379Y1265275D01*
X3921607Y1265275D01*
X3916426Y1264716D01*
X3913327Y1263599D01*
X3909974Y1263040D01*
X3906621Y1263599D01*
X3903573Y1264716D01*
X3898392Y1265275D01*
X3871518Y1265275D01*
X3866438Y1264716D01*
X3863340Y1263599D01*
X3860037Y1263040D01*
X3856634Y1263599D01*
X3853586Y1264716D01*
X3848404Y1265275D01*
X3821531Y1265275D01*
X3816400Y1264716D01*
X3813301Y1263599D01*
G37*

%LPD*%
G36*
X3101035Y1245616D02*
G01*
X3097682Y1246174D01*
X3094685Y1247800D01*
X3092500Y1250340D01*
X3090926Y1252728D01*
X3087725Y1255979D01*
X3083864Y1258417D01*
X3079496Y1259890D01*
X3074466Y1260500D01*
X2940558Y1260500D01*
X2936697Y1261262D01*
X2933395Y1263497D01*
X2931261Y1266799D01*
X2930448Y1270660D01*
X2930448Y1288440D01*
X2929890Y1293571D01*
X2928772Y1296670D01*
X2928162Y1300022D01*
X2928772Y1303375D01*
X2929890Y1306474D01*
X2930448Y1311605D01*
X2930448Y1338478D01*
X2929890Y1343558D01*
X2928772Y1346657D01*
X2928162Y1350010D01*
X2928772Y1353362D01*
X2929890Y1356461D01*
X2930448Y1361592D01*
X2930448Y1384350D01*
X2931261Y1388262D01*
X2933395Y1391564D01*
X2936697Y1393748D01*
X2940558Y1394510D01*
X3001111Y1394510D01*
X3004921Y1393748D01*
X3008223Y1391564D01*
X3136849Y1262938D01*
X3139084Y1259636D01*
X3139897Y1255776D01*
X3139084Y1251864D01*
X3136849Y1248562D01*
X3133547Y1246378D01*
X3129686Y1245616D01*
G37*

%LPD*%
G36*
X2645918Y1102309D02*
G01*
X2642209Y1103172D01*
X2639060Y1105306D01*
X2565704Y1178610D01*
X2563418Y1182116D01*
X2563164Y1184097D01*
X2561132Y1184452D01*
X2557627Y1186738D01*
X2543098Y1201216D01*
X2540914Y1204518D01*
X2540152Y1208430D01*
X2540152Y1530350D01*
X2540711Y1533702D01*
X2542336Y1536700D01*
X2544927Y1538935D01*
X2547721Y1540713D01*
X2551023Y1543964D01*
X2553411Y1547825D01*
X2554884Y1552143D01*
X2555494Y1557274D01*
X2555494Y1642516D01*
X2554884Y1647647D01*
X2553411Y1651965D01*
X2551023Y1655825D01*
X2547721Y1659077D01*
X2543911Y1661515D01*
X2539593Y1663039D01*
X2534412Y1663598D01*
X2454910Y1663598D01*
X2449779Y1663039D01*
X2445461Y1661515D01*
X2441600Y1659077D01*
X2438349Y1655825D01*
X2433777Y1648510D01*
X2430373Y1646224D01*
X2426411Y1645412D01*
X2363165Y1645412D01*
X2359304Y1646174D01*
X2356002Y1648358D01*
X2328418Y1675892D01*
X2326284Y1679193D01*
X2325471Y1683105D01*
X2325471Y2011527D01*
X2326284Y2015591D01*
X2328773Y2018995D01*
X2332278Y2021128D01*
X2333752Y2021636D01*
X2337663Y2024075D01*
X2340914Y2027326D01*
X2342388Y2029764D01*
X2344674Y2032304D01*
X2347722Y2033930D01*
X2351024Y2034539D01*
X2681427Y2034539D01*
X2685288Y2033727D01*
X2688590Y2031542D01*
X2874772Y1845360D01*
X2877058Y1841703D01*
X2878531Y1837893D01*
X2883204Y1830070D01*
X2889199Y1823212D01*
X2896362Y1817522D01*
X2904388Y1813153D01*
X2913075Y1810359D01*
X2922168Y1809140D01*
X2931261Y1809546D01*
X2940202Y1811578D01*
X2945180Y1813712D01*
X2949143Y1814525D01*
X2973425Y1814525D01*
X2976727Y1813966D01*
X2979674Y1812289D01*
X2981960Y1809750D01*
X2983534Y1807362D01*
X2989681Y1801012D01*
X2991154Y1796999D01*
X2990799Y1792732D01*
X2988716Y1788972D01*
X2985262Y1786432D01*
X2981147Y1785518D01*
X2690368Y1785518D01*
X2682494Y1784654D01*
X2675432Y1782368D01*
X2668981Y1778609D01*
X2664409Y1774748D01*
X2620670Y1730705D01*
X2615641Y1724507D01*
X2612288Y1717903D01*
X2610358Y1710588D01*
X2609900Y1704898D01*
X2609900Y1673148D01*
X2609240Y1669542D01*
X2607310Y1666392D01*
X2604414Y1664157D01*
X2596083Y1661515D01*
X2592222Y1659077D01*
X2589022Y1655825D01*
X2586634Y1651965D01*
X2585059Y1647647D01*
X2584500Y1642516D01*
X2584500Y1557274D01*
X2585059Y1552143D01*
X2586634Y1547825D01*
X2589022Y1543964D01*
X2592222Y1540713D01*
X2596083Y1538274D01*
X2605836Y1535176D01*
X2609088Y1532026D01*
X2612948Y1520291D01*
X2616708Y1513738D01*
X2620467Y1509318D01*
X2661513Y1468272D01*
X2663748Y1464970D01*
X2664460Y1461109D01*
X2664460Y1419656D01*
X2663748Y1415796D01*
X2661513Y1412494D01*
X2658211Y1410309D01*
X2654350Y1409496D01*
X2590596Y1409496D01*
X2585516Y1408938D01*
X2581198Y1407414D01*
X2577338Y1404975D01*
X2574036Y1401775D01*
X2571597Y1397914D01*
X2570073Y1393596D01*
X2569514Y1388465D01*
X2569514Y1361592D01*
X2570073Y1356461D01*
X2571191Y1353362D01*
X2571800Y1350010D01*
X2571191Y1346657D01*
X2570073Y1343558D01*
X2569514Y1338478D01*
X2569514Y1311605D01*
X2570073Y1306474D01*
X2571191Y1303375D01*
X2571800Y1300022D01*
X2571191Y1296670D01*
X2570073Y1293571D01*
X2569514Y1288440D01*
X2569514Y1261567D01*
X2570073Y1256487D01*
X2571191Y1253388D01*
X2571800Y1250035D01*
X2571191Y1246682D01*
X2570073Y1243584D01*
X2569514Y1238453D01*
X2569514Y1211580D01*
X2570073Y1206449D01*
X2571597Y1202131D01*
X2573375Y1199337D01*
X2574747Y1195730D01*
X2578354Y1194409D01*
X2581198Y1192631D01*
X2585516Y1191107D01*
X2590596Y1190498D01*
X2654350Y1190498D01*
X2658211Y1189736D01*
X2661513Y1187551D01*
X2663748Y1184249D01*
X2664460Y1180338D01*
X2664460Y1115110D01*
X2663850Y1111504D01*
X2661869Y1108354D01*
X2658973Y1106068D01*
X2649677Y1102918D01*
G37*

%LPD*%
G36*
X2823667Y998524D02*
G01*
X2819806Y999286D01*
X2816504Y1001521D01*
X2814269Y1004773D01*
X2813558Y1008684D01*
X2813558Y1011224D01*
X2770581Y1011224D01*
X2766720Y1011986D01*
X2763418Y1014221D01*
X2761132Y1017524D01*
X2760370Y1021384D01*
X2760370Y1058773D01*
X2761132Y1062634D01*
X2763418Y1065936D01*
X2766720Y1068171D01*
X2770581Y1068933D01*
X2813558Y1068933D01*
X2813558Y1105560D01*
X2800502Y1105560D01*
X2795320Y1105001D01*
X2791002Y1103477D01*
X2787142Y1101039D01*
X2783941Y1097838D01*
X2781452Y1093927D01*
X2779623Y1088542D01*
X2777490Y1084986D01*
X2774086Y1082598D01*
X2769768Y1081735D01*
X2765704Y1082598D01*
X2762300Y1084986D01*
X2760167Y1088542D01*
X2758338Y1093927D01*
X2755849Y1097838D01*
X2752648Y1101039D01*
X2748788Y1103477D01*
X2740964Y1106068D01*
X2738018Y1108354D01*
X2736138Y1111504D01*
X2735529Y1115110D01*
X2735529Y1134364D01*
X2735783Y1136802D01*
X2736596Y1139088D01*
X2736596Y1180998D01*
X2735783Y1183284D01*
X2735529Y1185672D01*
X2735427Y1200454D01*
X2734513Y1208278D01*
X2734513Y1211834D01*
X2735072Y1215136D01*
X2736596Y1218082D01*
X2736596Y1253032D01*
X2731414Y1252423D01*
X2728315Y1251356D01*
X2724962Y1250797D01*
X2721610Y1251356D01*
X2718511Y1252423D01*
X2713431Y1253032D01*
X2688234Y1253032D01*
X2684272Y1253794D01*
X2680970Y1255979D01*
X2678836Y1259281D01*
X2678023Y1263192D01*
X2678023Y1288440D01*
X2677464Y1293571D01*
X2676347Y1296670D01*
X2675788Y1300022D01*
X2676347Y1303375D01*
X2677464Y1306474D01*
X2678023Y1311605D01*
X2678023Y1336852D01*
X2678836Y1340764D01*
X2680970Y1344066D01*
X2684272Y1346250D01*
X2688234Y1347012D01*
X2713431Y1347012D01*
X2718511Y1347622D01*
X2721610Y1348689D01*
X2724962Y1349248D01*
X2728315Y1348689D01*
X2731414Y1347622D01*
X2736545Y1347012D01*
X2763418Y1347012D01*
X2768498Y1347622D01*
X2771597Y1348689D01*
X2775000Y1349248D01*
X2778302Y1348689D01*
X2781452Y1347622D01*
X2786532Y1347012D01*
X2811830Y1347012D01*
X2815691Y1346250D01*
X2818993Y1344066D01*
X2821127Y1340764D01*
X2821940Y1336852D01*
X2821940Y1311605D01*
X2822498Y1306474D01*
X2823565Y1303375D01*
X2824175Y1300022D01*
X2823565Y1296670D01*
X2822498Y1293571D01*
X2821940Y1288440D01*
X2821940Y1263192D01*
X2821279Y1259636D01*
X2819552Y1256588D01*
X2816707Y1254302D01*
X2813304Y1253134D01*
X2813304Y1221892D01*
X2817418Y1220266D01*
X2820466Y1217066D01*
X2821940Y1212850D01*
X2822498Y1206398D01*
X2824073Y1202131D01*
X2826461Y1198270D01*
X2829661Y1195070D01*
X2833928Y1191260D01*
X2835554Y1187246D01*
X2835300Y1184351D01*
X2837484Y1187551D01*
X2840736Y1189736D01*
X2844647Y1190498D01*
X2867761Y1190447D01*
X2876702Y1189532D01*
X2954375Y1189532D01*
X2958236Y1188720D01*
X2961538Y1186535D01*
X2963672Y1183233D01*
X2964484Y1179372D01*
X2964484Y1160576D01*
X2965043Y1155446D01*
X2966618Y1151128D01*
X2969006Y1147267D01*
X2972206Y1144016D01*
X2976118Y1141577D01*
X2981502Y1139698D01*
X2985109Y1137564D01*
X2987497Y1134160D01*
X2988310Y1129893D01*
X2987497Y1125829D01*
X2985109Y1122426D01*
X2981502Y1120292D01*
X2976118Y1118412D01*
X2972206Y1115974D01*
X2969006Y1112723D01*
X2966618Y1108862D01*
X2965043Y1104544D01*
X2964484Y1099413D01*
X2964484Y1086358D01*
X3001111Y1086358D01*
X3001111Y1129334D01*
X3001873Y1133195D01*
X3004159Y1136497D01*
X3007461Y1138732D01*
X3011271Y1139494D01*
X3048711Y1139494D01*
X3052572Y1138732D01*
X3055874Y1136497D01*
X3058058Y1133195D01*
X3058820Y1129334D01*
X3058820Y1086358D01*
X3095447Y1086358D01*
X3095447Y1099413D01*
X3094888Y1104544D01*
X3093364Y1108862D01*
X3090926Y1112723D01*
X3087725Y1115974D01*
X3083864Y1118412D01*
X3078429Y1120292D01*
X3074924Y1122426D01*
X3072536Y1125829D01*
X3071622Y1130096D01*
X3072536Y1134160D01*
X3074924Y1137564D01*
X3078429Y1139698D01*
X3083864Y1141577D01*
X3087725Y1144016D01*
X3090926Y1147267D01*
X3092602Y1149858D01*
X3094888Y1152398D01*
X3097834Y1154023D01*
X3101238Y1154582D01*
X3181400Y1154582D01*
X3185261Y1153820D01*
X3188563Y1151585D01*
X3215944Y1124102D01*
X3218129Y1120800D01*
X3218891Y1116939D01*
X3218891Y1008684D01*
X3218129Y1004773D01*
X3215944Y1001521D01*
X3212693Y999286D01*
X3208731Y998524D01*
X3103270Y998524D01*
X3099511Y999236D01*
X3096260Y1001318D01*
X3094075Y1004468D01*
X3093161Y1008227D01*
X3093669Y1012037D01*
X3094888Y1015441D01*
X3095447Y1020571D01*
X3095447Y1033678D01*
X3058820Y1033678D01*
X3058820Y1008684D01*
X3058058Y1004773D01*
X3055874Y1001521D01*
X3052572Y999286D01*
X3048711Y998524D01*
X3011271Y998524D01*
X3007461Y999286D01*
X3004159Y1001521D01*
X3001873Y1004773D01*
X3001111Y1008684D01*
X3001111Y1033678D01*
X2964484Y1033678D01*
X2964484Y1020571D01*
X2965043Y1015441D01*
X2966262Y1012037D01*
X2966821Y1008227D01*
X2965958Y1004468D01*
X2963672Y1001318D01*
X2960420Y999236D01*
X2956661Y998524D01*
X2910535Y998524D01*
X2906623Y999286D01*
X2903321Y1001521D01*
X2901188Y1004773D01*
X2900375Y1008684D01*
X2900375Y1011224D01*
X2866186Y1011224D01*
X2866186Y1008684D01*
X2865475Y1004773D01*
X2863240Y1001521D01*
X2859938Y999286D01*
X2856077Y998524D01*
G37*

%LPC*%
G36*
X2763316Y1221994D02*
G01*
X2786684Y1221994D01*
X2786684Y1253032D01*
X2781452Y1252423D01*
X2778302Y1251356D01*
X2775000Y1250797D01*
X2771597Y1251356D01*
X2768498Y1252423D01*
X2763316Y1253032D01*
G37*
G36*
X2866186Y1068933D02*
G01*
X2900375Y1068933D01*
X2900375Y1084529D01*
X2899765Y1089609D01*
X2898292Y1093927D01*
X2895854Y1097838D01*
X2892602Y1101039D01*
X2888742Y1103477D01*
X2884424Y1105001D01*
X2879293Y1105560D01*
X2866186Y1105560D01*
G37*
G36*
X2763418Y1144524D02*
G01*
X2768498Y1145082D01*
X2771597Y1146200D01*
X2775000Y1146759D01*
X2778302Y1146200D01*
X2781452Y1145082D01*
X2786684Y1144524D01*
X2786684Y1175562D01*
X2763316Y1175562D01*
G37*
G36*
X2813405Y1144524D02*
G01*
X2818536Y1145082D01*
X2822854Y1146606D01*
X2826715Y1149045D01*
X2829966Y1152296D01*
X2832404Y1156157D01*
X2833878Y1160475D01*
X2834538Y1165606D01*
X2834538Y1180338D01*
X2834843Y1182217D01*
X2833166Y1179068D01*
X2829661Y1176477D01*
X2825445Y1175562D01*
X2813304Y1175562D01*
G37*

%LPD*%
G36*
X3320084Y991514D02*
G01*
X3316224Y992327D01*
X3312922Y994511D01*
X3310686Y997813D01*
X3309975Y1001674D01*
X3309874Y1141526D01*
X3308654Y1150213D01*
X3306013Y1158189D01*
X3301949Y1165504D01*
X3296361Y1172362D01*
X3236722Y1232204D01*
X3234588Y1235506D01*
X3233775Y1239367D01*
X3234588Y1243279D01*
X3236722Y1246530D01*
X3240024Y1248765D01*
X3243986Y1249527D01*
X3611727Y1249527D01*
X3621684Y1250492D01*
X3640328Y1250543D01*
X3644188Y1249730D01*
X3647541Y1247546D01*
X3649675Y1244244D01*
X3650487Y1240383D01*
X3650386Y1220724D01*
X3649472Y1211732D01*
X3649472Y1123543D01*
X3648608Y1119479D01*
X3646220Y1116076D01*
X3642664Y1113942D01*
X3641191Y1113383D01*
X3637330Y1110945D01*
X3634028Y1107744D01*
X3631590Y1103833D01*
X3629761Y1098448D01*
X3627577Y1094892D01*
X3624173Y1092504D01*
X3619906Y1091641D01*
X3615842Y1092504D01*
X3612438Y1094892D01*
X3610356Y1098448D01*
X3608425Y1103833D01*
X3606037Y1107744D01*
X3602736Y1110945D01*
X3598875Y1113383D01*
X3594608Y1114907D01*
X3589477Y1115466D01*
X3576370Y1115466D01*
X3576370Y1078839D01*
X3619347Y1078839D01*
X3623208Y1078077D01*
X3626561Y1075842D01*
X3628745Y1072540D01*
X3629507Y1068679D01*
X3629507Y1031290D01*
X3628745Y1027430D01*
X3626561Y1024128D01*
X3623208Y1021892D01*
X3619347Y1021130D01*
X3576370Y1021130D01*
X3576370Y1001725D01*
X3575659Y997864D01*
X3573373Y994562D01*
X3570122Y992327D01*
X3566261Y991565D01*
X3533851Y991565D01*
X3529939Y992327D01*
X3526688Y994562D01*
X3524504Y997864D01*
X3523691Y1001725D01*
X3523691Y1021130D01*
X3489502Y1021130D01*
X3489502Y1005535D01*
X3489807Y1002842D01*
X3489401Y998626D01*
X3487318Y994968D01*
X3483914Y992428D01*
X3479749Y991565D01*
G37*

%LPC*%
G36*
X3489502Y1078839D02*
G01*
X3523691Y1078839D01*
X3523691Y1115466D01*
X3510584Y1115466D01*
X3505454Y1114907D01*
X3501136Y1113383D01*
X3497275Y1110945D01*
X3494024Y1107744D01*
X3491636Y1103833D01*
X3490163Y1099515D01*
X3489502Y1094435D01*
G37*

%LPD*%
G36*
X5119319Y816102D02*
G01*
X5115407Y816864D01*
X5112105Y819048D01*
X4944008Y987196D01*
X4942027Y990193D01*
X4938979Y992225D01*
X4916424Y1014730D01*
X4910277Y1019759D01*
X4906213Y1022553D01*
X4904282Y1025702D01*
X4903622Y1029360D01*
X4903622Y1041196D01*
X4860645Y1041196D01*
X4856784Y1041958D01*
X4853482Y1044143D01*
X4851247Y1047445D01*
X4850536Y1051356D01*
X4850536Y1088694D01*
X4851247Y1092606D01*
X4853482Y1095908D01*
X4856784Y1098092D01*
X4860645Y1098854D01*
X4903622Y1098854D01*
X4903622Y1135532D01*
X4890211Y1135532D01*
X4886350Y1136294D01*
X4882997Y1138478D01*
X4880813Y1141780D01*
X4880051Y1145692D01*
X4880813Y1149553D01*
X4882997Y1152855D01*
X4936693Y1206550D01*
X4939995Y1208735D01*
X4943856Y1209548D01*
X4974386Y1209548D01*
X4979568Y1210106D01*
X4983886Y1211630D01*
X4987747Y1214069D01*
X4990947Y1217269D01*
X4993386Y1221181D01*
X4994859Y1225499D01*
X4995468Y1230579D01*
X4995468Y1369466D01*
X4994859Y1374546D01*
X4993386Y1378864D01*
X4990947Y1382776D01*
X4987747Y1385976D01*
X4983886Y1388414D01*
X4979568Y1389938D01*
X4974386Y1390497D01*
X4855514Y1390497D01*
X4850434Y1389938D01*
X4846116Y1388414D01*
X4842256Y1385976D01*
X4835804Y1379118D01*
X4832045Y1377543D01*
X4827981Y1377543D01*
X4824222Y1379118D01*
X4817668Y1385976D01*
X4813808Y1388414D01*
X4809490Y1389938D01*
X4804359Y1390497D01*
X4781346Y1390497D01*
X4781346Y1341374D01*
X4824323Y1341374D01*
X4828184Y1340612D01*
X4831486Y1338376D01*
X4833670Y1335074D01*
X4834432Y1331214D01*
X4834432Y1268831D01*
X4833670Y1264920D01*
X4831486Y1261618D01*
X4828184Y1259433D01*
X4824323Y1258671D01*
X4781346Y1258671D01*
X4781346Y1209497D01*
X4804359Y1209497D01*
X4809490Y1210106D01*
X4814163Y1211732D01*
X4817973Y1212291D01*
X4821834Y1211376D01*
X4824933Y1209090D01*
X4826965Y1205788D01*
X4827727Y1201978D01*
X4826863Y1198168D01*
X4824679Y1194968D01*
X4768240Y1138478D01*
X4764938Y1136294D01*
X4761077Y1135532D01*
X4750562Y1135532D01*
X4745431Y1134922D01*
X4741113Y1133449D01*
X4737252Y1131011D01*
X4734001Y1127760D01*
X4731562Y1123899D01*
X4730038Y1119581D01*
X4729530Y1114552D01*
X4728413Y1111046D01*
X4726178Y1108151D01*
X4723079Y1106220D01*
X4719370Y1105560D01*
X4499000Y1105560D01*
X4495088Y1106322D01*
X4491786Y1108506D01*
X4406493Y1193800D01*
X4404309Y1197102D01*
X4403547Y1200962D01*
X4403547Y1364234D01*
X4404309Y1368145D01*
X4406493Y1371447D01*
X4409795Y1373632D01*
X4413758Y1374394D01*
X4464964Y1374394D01*
X4468622Y1373733D01*
X4471720Y1371854D01*
X4473956Y1368958D01*
X4476546Y1361135D01*
X4478985Y1357274D01*
X4482236Y1354023D01*
X4486097Y1351584D01*
X4491532Y1349705D01*
X4495038Y1347571D01*
X4497527Y1344168D01*
X4498340Y1339900D01*
X4497527Y1335836D01*
X4495038Y1332484D01*
X4491532Y1330350D01*
X4486097Y1328420D01*
X4482236Y1326032D01*
X4478985Y1322781D01*
X4476546Y1318920D01*
X4475073Y1314602D01*
X4474514Y1309471D01*
X4474514Y1296365D01*
X4511141Y1296365D01*
X4511141Y1339342D01*
X4511954Y1343253D01*
X4514088Y1346555D01*
X4517390Y1348740D01*
X4521250Y1349502D01*
X4558639Y1349502D01*
X4562551Y1348740D01*
X4565904Y1346555D01*
X4568088Y1343253D01*
X4568850Y1339342D01*
X4568850Y1296365D01*
X4605477Y1296365D01*
X4605477Y1309471D01*
X4604918Y1314602D01*
X4603445Y1318920D01*
X4600956Y1322781D01*
X4597704Y1326032D01*
X4593844Y1328420D01*
X4588408Y1330350D01*
X4584852Y1332484D01*
X4582464Y1335836D01*
X4581652Y1340104D01*
X4582464Y1344168D01*
X4584852Y1347571D01*
X4588408Y1349705D01*
X4593844Y1351584D01*
X4597704Y1354023D01*
X4600956Y1357274D01*
X4603445Y1361135D01*
X4605985Y1369009D01*
X4608220Y1371955D01*
X4611370Y1373835D01*
X4615027Y1374546D01*
X4634433Y1374546D01*
X4642358Y1375359D01*
X4653381Y1378864D01*
X4657547Y1378356D01*
X4661154Y1376273D01*
X4663592Y1372870D01*
X4664456Y1368755D01*
X4664456Y1341374D01*
X4708601Y1341374D01*
X4708601Y1390497D01*
X4690211Y1390497D01*
X4686350Y1391310D01*
X4683048Y1393494D01*
X4680813Y1396796D01*
X4680000Y1400657D01*
X4680813Y1404569D01*
X4683048Y1407871D01*
X4701692Y1426565D01*
X4705045Y1428750D01*
X4708906Y1429512D01*
X4804359Y1429512D01*
X4809490Y1430121D01*
X4813808Y1431594D01*
X4817668Y1434033D01*
X4824222Y1440891D01*
X4827981Y1442516D01*
X4832045Y1442516D01*
X4835804Y1440891D01*
X4842256Y1434033D01*
X4846116Y1431594D01*
X4850434Y1430121D01*
X4855514Y1429512D01*
X4878628Y1429512D01*
X4878628Y1478686D01*
X4835601Y1478686D01*
X4831740Y1479448D01*
X4828438Y1481632D01*
X4826254Y1484934D01*
X4825441Y1488846D01*
X4825441Y1551228D01*
X4826254Y1555089D01*
X4828438Y1558391D01*
X4831740Y1560626D01*
X4835601Y1561388D01*
X4878628Y1561388D01*
X4878628Y1610512D01*
X4855514Y1610512D01*
X4850434Y1609953D01*
X4846116Y1608429D01*
X4842256Y1605991D01*
X4835804Y1599133D01*
X4832045Y1597558D01*
X4827981Y1597558D01*
X4824222Y1599133D01*
X4817668Y1605991D01*
X4813808Y1608429D01*
X4809490Y1609953D01*
X4804359Y1610512D01*
X4685538Y1610512D01*
X4680458Y1609953D01*
X4676140Y1608429D01*
X4674666Y1607515D01*
X4670704Y1606092D01*
X4668774Y1606194D01*
X4668977Y1604314D01*
X4667504Y1600352D01*
X4666538Y1598879D01*
X4665014Y1594561D01*
X4664456Y1589481D01*
X4664456Y1493926D01*
X4663694Y1490014D01*
X4661509Y1486763D01*
X4623308Y1448511D01*
X4620006Y1446326D01*
X4616145Y1445514D01*
X4612284Y1446225D01*
X4607864Y1449527D01*
X4606290Y1451356D01*
X4605274Y1453489D01*
X4603445Y1458874D01*
X4600956Y1462735D01*
X4597704Y1465986D01*
X4593844Y1468424D01*
X4589526Y1469948D01*
X4584395Y1470507D01*
X4495596Y1470507D01*
X4490415Y1469948D01*
X4486097Y1468424D01*
X4482236Y1465986D01*
X4478985Y1462735D01*
X4476546Y1458874D01*
X4473956Y1450898D01*
X4471720Y1448003D01*
X4468622Y1446072D01*
X4464913Y1445412D01*
X4420971Y1445412D01*
X4417161Y1446174D01*
X4413859Y1448358D01*
X4329836Y1532331D01*
X4327652Y1535633D01*
X4326890Y1539494D01*
X4327652Y1543405D01*
X4329836Y1546707D01*
X4333138Y1548892D01*
X4337100Y1549654D01*
X4354322Y1549654D01*
X4359402Y1550263D01*
X4363720Y1551736D01*
X4367631Y1554175D01*
X4370882Y1557426D01*
X4372356Y1559814D01*
X4374591Y1562354D01*
X4377588Y1563979D01*
X4380941Y1564538D01*
X4418736Y1564538D01*
X4422140Y1563979D01*
X4425086Y1562354D01*
X4427321Y1559814D01*
X4429048Y1557172D01*
X4432198Y1553921D01*
X4436110Y1551482D01*
X4440428Y1550009D01*
X4445508Y1549400D01*
X4534408Y1549400D01*
X4539488Y1550009D01*
X4543806Y1551482D01*
X4547768Y1553921D01*
X4550918Y1557172D01*
X4552543Y1559763D01*
X4554829Y1562303D01*
X4557877Y1563928D01*
X4561179Y1564538D01*
X4586224Y1564589D01*
X4594809Y1565757D01*
X4602784Y1568450D01*
X4610150Y1572514D01*
X4616958Y1578203D01*
X4651654Y1612950D01*
X4655261Y1615236D01*
X4659122Y1615897D01*
X4659731Y1619758D01*
X4661966Y1623263D01*
X4667859Y1629206D01*
X4673041Y1636115D01*
X4676800Y1643583D01*
X4679086Y1651660D01*
X4679899Y1660499D01*
X4679899Y1864360D01*
X4680661Y1868271D01*
X4682947Y1871573D01*
X4686198Y1873757D01*
X4690059Y1874520D01*
X4751425Y1874520D01*
X4755286Y1873757D01*
X4758588Y1871573D01*
X4984546Y1645666D01*
X4991506Y1640382D01*
X4998974Y1636623D01*
X5007051Y1634337D01*
X5015890Y1633524D01*
X5230622Y1633524D01*
X5234482Y1632762D01*
X5237784Y1630527D01*
X5239969Y1627276D01*
X5240731Y1623364D01*
X5240731Y1600860D01*
X5241290Y1595729D01*
X5242864Y1591411D01*
X5245252Y1587550D01*
X5248554Y1584299D01*
X5252364Y1581861D01*
X5256682Y1580337D01*
X5261813Y1579778D01*
X5284368Y1579778D01*
X5288229Y1579016D01*
X5291531Y1576832D01*
X5293715Y1573530D01*
X5294477Y1569618D01*
X5294477Y1538630D01*
X5293715Y1534769D01*
X5291531Y1531467D01*
X5216245Y1456131D01*
X5211013Y1449171D01*
X5207254Y1441653D01*
X5204968Y1433576D01*
X5204206Y1424787D01*
X5204206Y1169568D01*
X5203545Y1166215D01*
X5201920Y1163218D01*
X5199430Y1160932D01*
X5196586Y1159205D01*
X5193334Y1155954D01*
X5190947Y1152093D01*
X5189372Y1147775D01*
X5188813Y1142644D01*
X5188813Y1057402D01*
X5189372Y1052271D01*
X5190947Y1047953D01*
X5193334Y1044092D01*
X5196586Y1040841D01*
X5200446Y1038402D01*
X5204764Y1036878D01*
X5209895Y1036319D01*
X5289397Y1036319D01*
X5294579Y1036878D01*
X5298897Y1038402D01*
X5302758Y1040841D01*
X5305958Y1044092D01*
X5308396Y1047953D01*
X5309870Y1052271D01*
X5310479Y1057402D01*
X5310479Y1142644D01*
X5309870Y1147775D01*
X5308396Y1152093D01*
X5305958Y1155954D01*
X5302758Y1159205D01*
X5299913Y1160983D01*
X5297322Y1163218D01*
X5295696Y1166215D01*
X5295138Y1169568D01*
X5295138Y1402181D01*
X5295950Y1406093D01*
X5298084Y1409395D01*
X5373319Y1484680D01*
X5378602Y1491640D01*
X5382361Y1499158D01*
X5384647Y1507236D01*
X5385511Y1516075D01*
X5385511Y1569618D01*
X5386222Y1573530D01*
X5388457Y1576832D01*
X5391759Y1579016D01*
X5395620Y1579778D01*
X5418175Y1579778D01*
X5423255Y1580337D01*
X5427573Y1581861D01*
X5431434Y1584299D01*
X5434736Y1587550D01*
X5437124Y1591411D01*
X5438698Y1595729D01*
X5439257Y1600860D01*
X5439257Y1757172D01*
X5438698Y1762302D01*
X5437124Y1766620D01*
X5434736Y1770481D01*
X5431434Y1773732D01*
X5427573Y1776171D01*
X5423255Y1777695D01*
X5418175Y1778254D01*
X5261813Y1778254D01*
X5256682Y1777695D01*
X5252364Y1776171D01*
X5248554Y1773732D01*
X5245252Y1770481D01*
X5242864Y1766620D01*
X5241290Y1762302D01*
X5240731Y1757172D01*
X5240731Y1734667D01*
X5239969Y1730806D01*
X5237784Y1727504D01*
X5234482Y1725269D01*
X5230622Y1724507D01*
X5038445Y1724507D01*
X5034584Y1725269D01*
X5031282Y1727504D01*
X4805324Y1953412D01*
X4798364Y1958644D01*
X4790897Y1962404D01*
X4782769Y1964689D01*
X4773980Y1965502D01*
X4659122Y1965502D01*
X4655159Y1966315D01*
X4650181Y1968449D01*
X4641240Y1970481D01*
X4632147Y1970887D01*
X4623054Y1969668D01*
X4614367Y1966874D01*
X4606391Y1962505D01*
X4599228Y1956816D01*
X4593234Y1949957D01*
X4588510Y1942134D01*
X4585309Y1933549D01*
X4583734Y1924557D01*
X4583734Y1915464D01*
X4585309Y1906473D01*
X4588256Y1898599D01*
X4588916Y1894992D01*
X4588916Y1683054D01*
X4588154Y1679193D01*
X4585919Y1675892D01*
X4568545Y1658518D01*
X4564888Y1656130D01*
X4560519Y1655572D01*
X4556404Y1656842D01*
X4553102Y1659737D01*
X4551172Y1662430D01*
X4547768Y1665884D01*
X4543806Y1668322D01*
X4538472Y1670202D01*
X4534865Y1672336D01*
X4532477Y1675739D01*
X4531664Y1680006D01*
X4532477Y1684070D01*
X4534865Y1687474D01*
X4538472Y1689607D01*
X4543806Y1691487D01*
X4547768Y1693925D01*
X4550918Y1697177D01*
X4553356Y1701038D01*
X4554931Y1705356D01*
X4555490Y1710486D01*
X4555490Y1723542D01*
X4518863Y1723542D01*
X4518863Y1680565D01*
X4518050Y1676704D01*
X4515815Y1673402D01*
X4512513Y1671167D01*
X4508652Y1670405D01*
X4471263Y1670405D01*
X4467402Y1671167D01*
X4464100Y1673402D01*
X4461865Y1676704D01*
X4461154Y1680565D01*
X4461154Y1723542D01*
X4424527Y1723542D01*
X4424527Y1710486D01*
X4425086Y1705356D01*
X4426559Y1701038D01*
X4429048Y1697177D01*
X4432198Y1693925D01*
X4436110Y1691487D01*
X4441494Y1689607D01*
X4445050Y1687474D01*
X4447438Y1684070D01*
X4448302Y1679803D01*
X4447438Y1675739D01*
X4445050Y1672336D01*
X4441494Y1670202D01*
X4436110Y1668322D01*
X4432198Y1665884D01*
X4429048Y1662633D01*
X4427575Y1660296D01*
X4425238Y1657756D01*
X4422241Y1656130D01*
X4418888Y1655572D01*
X4381093Y1655572D01*
X4377791Y1656130D01*
X4374743Y1657756D01*
X4372457Y1660296D01*
X4370882Y1662887D01*
X4367631Y1666138D01*
X4363720Y1668576D01*
X4358335Y1670456D01*
X4354779Y1672589D01*
X4352391Y1675993D01*
X4351528Y1680260D01*
X4352391Y1684324D01*
X4354779Y1687728D01*
X4358335Y1689862D01*
X4363720Y1691741D01*
X4367631Y1694180D01*
X4370882Y1697431D01*
X4373270Y1701292D01*
X4374845Y1705610D01*
X4375404Y1710740D01*
X4375404Y1723796D01*
X4338777Y1723796D01*
X4338777Y1680819D01*
X4337964Y1676958D01*
X4335729Y1673656D01*
X4332427Y1671421D01*
X4328566Y1670659D01*
X4291177Y1670659D01*
X4287316Y1671421D01*
X4284014Y1673656D01*
X4281779Y1676958D01*
X4281068Y1680819D01*
X4281068Y1723796D01*
X4244441Y1723796D01*
X4244441Y1710740D01*
X4245000Y1705610D01*
X4246473Y1701292D01*
X4248912Y1697431D01*
X4252163Y1694180D01*
X4256024Y1691741D01*
X4261459Y1689862D01*
X4264964Y1687728D01*
X4267352Y1684324D01*
X4268266Y1680057D01*
X4267352Y1675993D01*
X4264964Y1672589D01*
X4261459Y1670456D01*
X4256024Y1668576D01*
X4252163Y1666138D01*
X4248912Y1662887D01*
X4246473Y1659026D01*
X4245000Y1654708D01*
X4244441Y1649577D01*
X4244441Y1630680D01*
X4243578Y1626768D01*
X4241393Y1623466D01*
X4238091Y1621282D01*
X4234230Y1620520D01*
X4170883Y1620520D01*
X4166971Y1621282D01*
X4163720Y1623466D01*
X4161485Y1626768D01*
X4160774Y1630680D01*
X4160774Y1648460D01*
X4160164Y1653590D01*
X4158640Y1657908D01*
X4156201Y1661769D01*
X4152950Y1665020D01*
X4149090Y1667408D01*
X4144772Y1668932D01*
X4139641Y1669542D01*
X4116019Y1669542D01*
X4111447Y1670253D01*
X4104081Y1670253D01*
X4099407Y1669542D01*
X4079697Y1669542D01*
X4075734Y1670304D01*
X4072432Y1672488D01*
X4070248Y1675790D01*
X4069486Y1679702D01*
X4069587Y1699310D01*
X4070502Y1708302D01*
X4070502Y1736089D01*
X4071264Y1740001D01*
X4073448Y1743303D01*
X4214723Y1884527D01*
X4219702Y1890725D01*
X4221581Y1894484D01*
X4223918Y1897430D01*
X4227017Y1899361D01*
X4230725Y1900021D01*
X4299000Y1900021D01*
X4300016Y1901037D01*
X4300016Y1924304D01*
X4300931Y1928672D01*
X4303725Y1932178D01*
X4303725Y1973376D01*
X4300931Y1976882D01*
X4300016Y1981250D01*
X4300016Y2018639D01*
X4300931Y2023008D01*
X4303725Y2026513D01*
X4303725Y2039874D01*
X4304538Y2043734D01*
X4306722Y2047036D01*
X4310024Y2049272D01*
X4313885Y2050034D01*
X4346244Y2050034D01*
X4350156Y2049272D01*
X4353458Y2047036D01*
X4355693Y2043734D01*
X4356404Y2039874D01*
X4356404Y2028799D01*
X4390593Y2028799D01*
X4390593Y2039874D01*
X4391406Y2043734D01*
X4393539Y2047036D01*
X4396841Y2049272D01*
X4400804Y2050034D01*
X4898948Y2050034D01*
X4899964Y2050999D01*
X4899964Y2239873D01*
X4900777Y2243734D01*
X4902962Y2247036D01*
X4906213Y2249271D01*
X4910175Y2250033D01*
X4998974Y2250033D01*
X4999990Y2250998D01*
X4999990Y2563926D01*
X5000752Y2567838D01*
X5002936Y2571140D01*
X5006238Y2573324D01*
X5010200Y2574086D01*
X5463895Y2574086D01*
X5467858Y2573324D01*
X5471058Y2571140D01*
X5473293Y2567838D01*
X5474055Y2563926D01*
X5474055Y1163015D01*
X5473293Y1159154D01*
X5471058Y1155852D01*
X5467858Y1153617D01*
X5463895Y1152855D01*
X5460034Y1153617D01*
X5456732Y1155852D01*
X5453329Y1159205D01*
X5449519Y1161592D01*
X5443931Y1163523D01*
X5440273Y1165707D01*
X5437784Y1169212D01*
X5437022Y1173429D01*
X5438038Y1177544D01*
X5441645Y1185113D01*
X5444134Y1193901D01*
X5444947Y1202994D01*
X5444134Y1212138D01*
X5441645Y1220927D01*
X5437682Y1229156D01*
X5432348Y1236522D01*
X5425744Y1242822D01*
X5418175Y1247851D01*
X5409692Y1251458D01*
X5400802Y1253490D01*
X5391759Y1253896D01*
X5382615Y1252677D01*
X5373928Y1249883D01*
X5365902Y1245514D01*
X5358790Y1239824D01*
X5352745Y1232966D01*
X5348071Y1225143D01*
X5344922Y1216558D01*
X5343245Y1207566D01*
X5343245Y1198473D01*
X5344922Y1189482D01*
X5348071Y1180896D01*
X5352186Y1174038D01*
X5353558Y1170381D01*
X5353354Y1166469D01*
X5351729Y1162913D01*
X5348884Y1160221D01*
X5347208Y1159205D01*
X5344007Y1155954D01*
X5341569Y1152093D01*
X5340045Y1147775D01*
X5339486Y1142644D01*
X5339486Y1057402D01*
X5340045Y1052271D01*
X5341569Y1047953D01*
X5344007Y1044092D01*
X5347208Y1040841D01*
X5351170Y1038402D01*
X5358993Y1035812D01*
X5361940Y1033576D01*
X5363870Y1030427D01*
X5364530Y1026820D01*
X5364530Y1005128D01*
X5363870Y1001521D01*
X5361940Y998372D01*
X5358993Y996086D01*
X5351068Y993495D01*
X5347208Y991057D01*
X5344007Y987856D01*
X5341518Y983945D01*
X5339638Y978560D01*
X5337556Y975004D01*
X5334152Y972616D01*
X5329834Y971753D01*
X5325770Y972616D01*
X5322366Y975004D01*
X5320233Y978560D01*
X5318404Y983945D01*
X5315915Y987856D01*
X5312714Y991057D01*
X5308854Y993495D01*
X5304485Y995019D01*
X5299354Y995578D01*
X5286298Y995578D01*
X5286298Y958951D01*
X5329275Y958951D01*
X5333136Y958189D01*
X5336438Y955954D01*
X5338673Y952652D01*
X5339486Y948791D01*
X5339486Y911402D01*
X5338673Y907542D01*
X5336438Y904240D01*
X5333136Y902004D01*
X5329275Y901242D01*
X5286298Y901242D01*
X5286298Y859688D01*
X5285536Y855776D01*
X5283352Y852474D01*
X5280050Y850290D01*
X5276138Y849528D01*
X5243779Y849528D01*
X5239918Y850290D01*
X5236565Y852474D01*
X5234381Y855776D01*
X5233619Y859688D01*
X5233619Y901242D01*
X5199430Y901242D01*
X5199430Y885647D01*
X5200040Y880567D01*
X5201513Y876249D01*
X5203952Y872337D01*
X5207254Y869137D01*
X5208524Y868273D01*
X5211673Y865225D01*
X5213197Y861212D01*
X5212943Y856894D01*
X5210810Y853033D01*
X5207355Y850442D01*
X5203190Y849528D01*
X5150561Y849528D01*
X5145481Y848969D01*
X5141163Y847445D01*
X5137200Y845007D01*
X5134000Y841756D01*
X5131562Y837895D01*
X5130038Y833577D01*
X5129479Y826262D01*
X5128717Y822350D01*
X5126532Y819048D01*
X5123230Y816864D01*
G37*

%LPC*%
G36*
X4956302Y1098854D02*
G01*
X4990439Y1098854D01*
X4990439Y1114450D01*
X4989880Y1119581D01*
X4988407Y1123899D01*
X4985918Y1127760D01*
X4982718Y1131011D01*
X4978806Y1133449D01*
X4974488Y1134922D01*
X4969408Y1135532D01*
X4956302Y1135532D01*
G37*
G36*
X5385663Y2353056D02*
G01*
X5396179Y2359202D01*
X5406491Y2367432D01*
X5415788Y2376982D01*
X5423611Y2387650D01*
X5427827Y2395321D01*
X5385663Y2395321D01*
G37*
G36*
X5077358Y1924557D02*
G01*
X5162600Y1924557D01*
X5167731Y1925116D01*
X5172100Y1926640D01*
X5175961Y1929079D01*
X5179161Y1932330D01*
X5181650Y1936191D01*
X5183124Y1940509D01*
X5183682Y1945639D01*
X5183682Y2025142D01*
X5183124Y2030222D01*
X5181650Y2034539D01*
X5179161Y2038451D01*
X5175961Y2041652D01*
X5172100Y2044090D01*
X5167731Y2045614D01*
X5162600Y2046173D01*
X5077358Y2046173D01*
X5072227Y2045614D01*
X5067909Y2044090D01*
X5064048Y2041652D01*
X5060797Y2038451D01*
X5058359Y2034539D01*
X5055768Y2026157D01*
X5053482Y2023262D01*
X5050332Y2021332D01*
X5046726Y2020671D01*
X5039258Y2020620D01*
X5035448Y2021332D01*
X5032197Y2023465D01*
X5030724Y2024837D01*
X5023104Y2029866D01*
X5014722Y2033473D01*
X5005882Y2035505D01*
X4996688Y2035911D01*
X4987645Y2034692D01*
X4979009Y2031847D01*
X4970932Y2027529D01*
X4963820Y2021839D01*
X4957775Y2014931D01*
X4953152Y2007107D01*
X4949850Y1998573D01*
X4948275Y1989582D01*
X4948275Y1980438D01*
X4949850Y1971446D01*
X4953152Y1962912D01*
X4957775Y1955088D01*
X4963820Y1948180D01*
X4970932Y1942490D01*
X4979009Y1938172D01*
X4987645Y1935327D01*
X4996688Y1934108D01*
X5005882Y1934514D01*
X5014722Y1936546D01*
X5023104Y1940153D01*
X5030724Y1945182D01*
X5032451Y1946808D01*
X5035702Y1948891D01*
X5039461Y1949653D01*
X5046675Y1949653D01*
X5050332Y1948992D01*
X5053482Y1947113D01*
X5055768Y1944166D01*
X5058359Y1936191D01*
X5060797Y1932330D01*
X5064048Y1929079D01*
X5067909Y1926640D01*
X5072227Y1925116D01*
G37*
G36*
X4956302Y1004519D02*
G01*
X4969408Y1004519D01*
X4974488Y1005078D01*
X4978806Y1006602D01*
X4982718Y1009040D01*
X4985918Y1012291D01*
X4988407Y1016152D01*
X4989880Y1020470D01*
X4990439Y1025601D01*
X4990439Y1041196D01*
X4956302Y1041196D01*
G37*
G36*
X4338777Y1776475D02*
G01*
X4375404Y1776475D01*
X4375404Y1789582D01*
X4374845Y1794713D01*
X4373270Y1799031D01*
X4370882Y1802892D01*
X4367631Y1806143D01*
X4363720Y1808581D01*
X4359402Y1810054D01*
X4354322Y1810664D01*
X4338777Y1810664D01*
G37*
G36*
X4244441Y1776475D02*
G01*
X4281068Y1776475D01*
X4281068Y1810664D01*
X4265422Y1810664D01*
X4260342Y1810054D01*
X4256024Y1808581D01*
X4252163Y1806143D01*
X4248912Y1802892D01*
X4246473Y1799031D01*
X4245000Y1794713D01*
X4244441Y1789582D01*
G37*
G36*
X4951323Y1561388D02*
G01*
X4995468Y1561388D01*
X4995468Y1589481D01*
X4994859Y1594561D01*
X4993386Y1598879D01*
X4990947Y1602790D01*
X4987747Y1605991D01*
X4983886Y1608429D01*
X4979568Y1609953D01*
X4974386Y1610512D01*
X4951323Y1610512D01*
G37*
G36*
X4518863Y1776222D02*
G01*
X4555490Y1776222D01*
X4555490Y1789328D01*
X4554931Y1794459D01*
X4553356Y1798777D01*
X4550918Y1802638D01*
X4547768Y1805889D01*
X4543806Y1808327D01*
X4539488Y1809800D01*
X4534408Y1810410D01*
X4518863Y1810410D01*
G37*
G36*
X5199430Y958951D02*
G01*
X5233619Y958951D01*
X5233619Y995578D01*
X5220512Y995578D01*
X5215432Y995019D01*
X5211114Y993495D01*
X5207254Y991057D01*
X5203952Y987856D01*
X5201513Y983945D01*
X5200040Y979627D01*
X5199430Y974547D01*
G37*
G36*
X4424527Y1776222D02*
G01*
X4461154Y1776222D01*
X4461154Y1810410D01*
X4445508Y1810410D01*
X4440428Y1809800D01*
X4436110Y1808327D01*
X4432198Y1805889D01*
X4429048Y1802638D01*
X4426559Y1798777D01*
X4425086Y1794459D01*
X4424527Y1789328D01*
G37*
G36*
X5333339Y2088032D02*
G01*
X5346598Y2088032D01*
X5359704Y2089810D01*
X5372506Y2093315D01*
X5384698Y2098446D01*
X5396179Y2105202D01*
X5406491Y2113432D01*
X5415788Y2122982D01*
X5423611Y2133650D01*
X5429961Y2145233D01*
X5434736Y2157628D01*
X5437784Y2170531D01*
X5439156Y2183688D01*
X5438698Y2196947D01*
X5436463Y2210003D01*
X5432552Y2222703D01*
X5427014Y2234692D01*
X5419852Y2245868D01*
X5411266Y2255977D01*
X5401513Y2264867D01*
X5390540Y2272385D01*
X5378704Y2278380D01*
X5366156Y2282698D01*
X5353202Y2285339D01*
X5339943Y2286254D01*
X5326786Y2285339D01*
X5313730Y2282698D01*
X5305450Y2279853D01*
X5301742Y2279294D01*
X5298084Y2280107D01*
X5294934Y2282240D01*
X5267147Y2310079D01*
X5261000Y2315108D01*
X5254345Y2318461D01*
X5247081Y2320391D01*
X5241290Y2320848D01*
X5193233Y2320848D01*
X5189575Y2321509D01*
X5186426Y2323439D01*
X5184241Y2326335D01*
X5181650Y2334514D01*
X5179161Y2338425D01*
X5175961Y2341626D01*
X5172100Y2344064D01*
X5167731Y2345588D01*
X5162600Y2346147D01*
X5077358Y2346147D01*
X5072227Y2345588D01*
X5067909Y2344064D01*
X5064048Y2341626D01*
X5060797Y2338425D01*
X5058359Y2334514D01*
X5056835Y2330196D01*
X5056327Y2325116D01*
X5056327Y2245614D01*
X5056835Y2240483D01*
X5058359Y2236165D01*
X5060797Y2232304D01*
X5064048Y2229053D01*
X5067909Y2226614D01*
X5072227Y2225090D01*
X5077358Y2224532D01*
X5162600Y2224532D01*
X5167731Y2225090D01*
X5172100Y2226614D01*
X5175961Y2229053D01*
X5179161Y2232304D01*
X5181650Y2236165D01*
X5184241Y2244394D01*
X5186527Y2247290D01*
X5189575Y2249220D01*
X5193233Y2249881D01*
X5222697Y2249881D01*
X5226659Y2249068D01*
X5229961Y2246884D01*
X5244693Y2232152D01*
X5246725Y2229154D01*
X5247640Y2225598D01*
X5247182Y2221941D01*
X5243474Y2210003D01*
X5241290Y2196947D01*
X5240832Y2183688D01*
X5242204Y2170531D01*
X5245252Y2157628D01*
X5250027Y2145233D01*
X5256377Y2133650D01*
X5264200Y2122982D01*
X5273395Y2113432D01*
X5283809Y2105202D01*
X5295239Y2098446D01*
X5307431Y2093315D01*
X5320182Y2089810D01*
G37*
G36*
X4951323Y1429512D02*
G01*
X4974386Y1429512D01*
X4979568Y1430121D01*
X4983886Y1431594D01*
X4987747Y1434033D01*
X4990947Y1437284D01*
X4993386Y1441145D01*
X4994859Y1445463D01*
X4995468Y1450594D01*
X4995468Y1478686D01*
X4951323Y1478686D01*
G37*
G36*
X4568850Y1209548D02*
G01*
X4584395Y1209548D01*
X4589526Y1210106D01*
X4593844Y1211630D01*
X4597704Y1214069D01*
X4600956Y1217269D01*
X4603445Y1221181D01*
X4604918Y1225499D01*
X4605477Y1230579D01*
X4605477Y1243685D01*
X4568850Y1243685D01*
G37*
G36*
X4495596Y1209548D02*
G01*
X4511141Y1209548D01*
X4511141Y1243685D01*
X4474514Y1243685D01*
X4474514Y1230579D01*
X4475073Y1225499D01*
X4476546Y1221181D01*
X4478985Y1217269D01*
X4482236Y1214069D01*
X4486097Y1211630D01*
X4490415Y1210106D01*
G37*
G36*
X4685538Y1209497D02*
G01*
X4708601Y1209497D01*
X4708601Y1258671D01*
X4664456Y1258671D01*
X4664456Y1230579D01*
X4665014Y1225448D01*
X4666538Y1221130D01*
X4668977Y1217269D01*
X4672279Y1214018D01*
X4676140Y1211580D01*
X4680458Y1210106D01*
G37*
G36*
X5385663Y2486761D02*
G01*
X5427929Y2486761D01*
X5427014Y2488692D01*
X5419852Y2499868D01*
X5411266Y2509977D01*
X5401513Y2518867D01*
X5390540Y2526385D01*
X5385663Y2528824D01*
G37*
G36*
X5077358Y1773885D02*
G01*
X5162600Y1773885D01*
X5167731Y1774494D01*
X5172100Y1775968D01*
X5175961Y1778406D01*
X5179161Y1781657D01*
X5181650Y1785518D01*
X5184241Y1793748D01*
X5186426Y1796643D01*
X5189575Y1798574D01*
X5193233Y1799234D01*
X5241188Y1799234D01*
X5249011Y1800047D01*
X5256123Y1802333D01*
X5262626Y1806092D01*
X5267045Y1809902D01*
X5294934Y1837740D01*
X5298186Y1839925D01*
X5302097Y1840687D01*
X5320182Y1835810D01*
X5333339Y1834032D01*
X5346598Y1834032D01*
X5359704Y1835810D01*
X5372506Y1839315D01*
X5384698Y1844446D01*
X5396179Y1851202D01*
X5406491Y1859432D01*
X5415788Y1868982D01*
X5423611Y1879650D01*
X5429961Y1891233D01*
X5434736Y1903628D01*
X5437784Y1916531D01*
X5439156Y1929688D01*
X5438698Y1942947D01*
X5436463Y1956003D01*
X5432552Y1968703D01*
X5427014Y1980692D01*
X5419852Y1991868D01*
X5411266Y2001977D01*
X5401513Y2010867D01*
X5390540Y2018385D01*
X5378704Y2024380D01*
X5366156Y2028698D01*
X5353202Y2031339D01*
X5339943Y2032254D01*
X5326786Y2031339D01*
X5313730Y2028698D01*
X5301284Y2024380D01*
X5289397Y2018385D01*
X5278475Y2010867D01*
X5268722Y2001977D01*
X5260086Y1991868D01*
X5252974Y1980692D01*
X5247386Y1968703D01*
X5243474Y1956003D01*
X5241290Y1942947D01*
X5240832Y1929688D01*
X5242204Y1916531D01*
X5245252Y1903628D01*
X5247081Y1898853D01*
X5247741Y1895043D01*
X5246928Y1891233D01*
X5244795Y1887982D01*
X5229961Y1873199D01*
X5226659Y1870964D01*
X5222798Y1870202D01*
X5193233Y1870202D01*
X5189575Y1870862D01*
X5186527Y1872792D01*
X5184241Y1875688D01*
X5181650Y1883918D01*
X5179161Y1887778D01*
X5175961Y1891030D01*
X5172100Y1893468D01*
X5167731Y1894992D01*
X5162600Y1895551D01*
X5077358Y1895551D01*
X5072227Y1894992D01*
X5067909Y1893468D01*
X5064048Y1891030D01*
X5060797Y1887778D01*
X5058359Y1883918D01*
X5056835Y1879600D01*
X5056327Y1874469D01*
X5056327Y1794967D01*
X5056835Y1789836D01*
X5058359Y1785518D01*
X5060797Y1781657D01*
X5064048Y1778406D01*
X5067909Y1775968D01*
X5072227Y1774494D01*
G37*
G36*
X4356404Y1934464D02*
G01*
X4369511Y1934464D01*
X4374642Y1935022D01*
X4378960Y1936546D01*
X4382820Y1938985D01*
X4386072Y1942185D01*
X4388561Y1946097D01*
X4390034Y1950415D01*
X4390593Y1955495D01*
X4390593Y1971090D01*
X4356404Y1971090D01*
G37*
G36*
X5252059Y2486761D02*
G01*
X5294223Y2486761D01*
X5294223Y2528824D01*
X5289397Y2526385D01*
X5278475Y2518867D01*
X5268722Y2509977D01*
X5260086Y2499868D01*
X5252974Y2488692D01*
G37*
G36*
X5294223Y2353056D02*
G01*
X5294223Y2395321D01*
X5252161Y2395321D01*
X5256377Y2387650D01*
X5264200Y2376982D01*
X5273395Y2367432D01*
X5283809Y2359202D01*
G37*
G36*
X5077358Y2073859D02*
G01*
X5162600Y2073859D01*
X5167731Y2074468D01*
X5172100Y2075942D01*
X5175961Y2078380D01*
X5179161Y2081631D01*
X5181650Y2085492D01*
X5183124Y2089810D01*
X5183682Y2094941D01*
X5183682Y2174443D01*
X5183124Y2179574D01*
X5181650Y2183892D01*
X5179161Y2187752D01*
X5175961Y2191004D01*
X5172100Y2193442D01*
X5167731Y2194966D01*
X5162600Y2195525D01*
X5077358Y2195525D01*
X5072227Y2194966D01*
X5067909Y2193442D01*
X5064048Y2191004D01*
X5060797Y2187752D01*
X5058359Y2183892D01*
X5055666Y2175256D01*
X5053431Y2172360D01*
X5050332Y2170430D01*
X5046726Y2169769D01*
X5040223Y2169718D01*
X5036362Y2170430D01*
X5033111Y2172563D01*
X5031740Y2173833D01*
X5024120Y2178862D01*
X5015738Y2182469D01*
X5006797Y2184501D01*
X4997704Y2184908D01*
X4988661Y2183688D01*
X4979924Y2180894D01*
X4971897Y2176526D01*
X4964836Y2170836D01*
X4958740Y2163978D01*
X4954066Y2156155D01*
X4950866Y2147570D01*
X4949291Y2138578D01*
X4949291Y2129485D01*
X4950866Y2120493D01*
X4954066Y2111908D01*
X4958740Y2104085D01*
X4964836Y2097227D01*
X4971897Y2091537D01*
X4979924Y2087168D01*
X4988661Y2084374D01*
X4997704Y2083155D01*
X5006797Y2083562D01*
X5015738Y2085593D01*
X5024120Y2089200D01*
X5031740Y2094230D01*
X5033518Y2095906D01*
X5036718Y2097989D01*
X5040477Y2098751D01*
X5046726Y2098751D01*
X5050332Y2098090D01*
X5053482Y2096211D01*
X5055768Y2093315D01*
X5058359Y2085492D01*
X5060797Y2081631D01*
X5064048Y2078380D01*
X5067909Y2075942D01*
X5072227Y2074468D01*
G37*

%LPD*%
G36*
X5268518Y560882D02*
G01*
X5264658Y561644D01*
X5261356Y563829D01*
X5171998Y653186D01*
X5169814Y656488D01*
X5169052Y660349D01*
X5169814Y664260D01*
X5171998Y667562D01*
X5175300Y669747D01*
X5179263Y670509D01*
X5349392Y670509D01*
X5354574Y671118D01*
X5358841Y672592D01*
X5362702Y675030D01*
X5366004Y678281D01*
X5368391Y682142D01*
X5369864Y686460D01*
X5370474Y691591D01*
X5370474Y715721D01*
X5371338Y719886D01*
X5373827Y723290D01*
X5377484Y725424D01*
X5384393Y727659D01*
X5390946Y731418D01*
X5395366Y735228D01*
X5424678Y764540D01*
X5429758Y770737D01*
X5433060Y777341D01*
X5434990Y784606D01*
X5435447Y790397D01*
X5435447Y855065D01*
X5436108Y858723D01*
X5438038Y861821D01*
X5440984Y864108D01*
X5448808Y866698D01*
X5452668Y869137D01*
X5456732Y873150D01*
X5460034Y875385D01*
X5463895Y876147D01*
X5467858Y875385D01*
X5471058Y873150D01*
X5473293Y869848D01*
X5474055Y865987D01*
X5474055Y588111D01*
X5473293Y584200D01*
X5471058Y580948D01*
X5467858Y578713D01*
X5463895Y577951D01*
X5460034Y578713D01*
X5455970Y581660D01*
X5452110Y584098D01*
X5447792Y585622D01*
X5442661Y586181D01*
X5357418Y586181D01*
X5352288Y585622D01*
X5347970Y584098D01*
X5344109Y581660D01*
X5340858Y578408D01*
X5338470Y574548D01*
X5335828Y566369D01*
X5333593Y563473D01*
X5330393Y561543D01*
X5326786Y560882D01*
G37*

%LPD*%
G36*
X4460138Y443636D02*
G01*
X4456277Y444398D01*
X4452975Y446582D01*
X4450740Y449884D01*
X4450029Y453796D01*
X4450029Y649020D01*
X4449013Y650036D01*
X4330090Y650036D01*
X4326077Y650900D01*
X4322673Y653288D01*
X4320540Y656844D01*
X4319981Y660958D01*
X4320540Y668070D01*
X4321657Y672084D01*
X4324400Y675233D01*
X4328058Y677113D01*
X4332224Y677316D01*
X4336186Y675843D01*
X4341164Y672592D01*
X4345482Y671118D01*
X4350512Y670509D01*
X4393641Y670509D01*
X4393641Y719175D01*
X4340809Y719175D01*
X4340809Y691438D01*
X4340047Y687578D01*
X4337812Y684276D01*
X4334510Y682040D01*
X4330649Y681278D01*
X4286300Y681278D01*
X4286300Y660196D01*
X4285538Y656285D01*
X4283354Y652983D01*
X4280052Y650798D01*
X4276191Y650036D01*
X4243781Y650036D01*
X4239920Y650798D01*
X4236618Y652983D01*
X4234383Y656285D01*
X4233672Y660196D01*
X4233672Y681278D01*
X4190695Y681278D01*
X4186834Y682040D01*
X4183481Y684276D01*
X4181297Y687578D01*
X4180484Y691438D01*
X4180484Y728827D01*
X4181297Y732688D01*
X4183481Y735990D01*
X4186834Y738225D01*
X4190695Y738987D01*
X4233672Y738987D01*
X4233672Y775614D01*
X4220565Y775614D01*
X4215434Y775055D01*
X4211116Y773531D01*
X4207256Y771093D01*
X4204004Y767892D01*
X4201566Y763981D01*
X4199686Y758596D01*
X4197604Y755040D01*
X4194200Y752652D01*
X4189882Y751789D01*
X4185818Y752652D01*
X4182414Y755040D01*
X4180281Y758596D01*
X4178452Y763981D01*
X4175963Y767892D01*
X4172712Y771093D01*
X4168851Y773531D01*
X4164533Y775055D01*
X4159402Y775614D01*
X4080611Y775614D01*
X4075480Y775055D01*
X4071112Y773531D01*
X4067251Y771093D01*
X4064050Y767892D01*
X4061561Y763981D01*
X4061104Y762457D01*
X4058920Y758901D01*
X4055516Y756462D01*
X4051452Y755650D01*
X3922979Y755650D01*
X3919118Y756412D01*
X3915765Y758596D01*
X3738372Y935837D01*
X3736136Y939139D01*
X3735425Y943000D01*
X3735425Y978763D01*
X3735984Y982116D01*
X3737559Y985113D01*
X3740099Y987348D01*
X3742791Y989025D01*
X3745992Y992225D01*
X3748481Y996137D01*
X3749598Y999591D01*
X3751681Y1003046D01*
X3755034Y1005484D01*
X3758996Y1006348D01*
X3763010Y1005636D01*
X3766413Y1003401D01*
X3944518Y825296D01*
X3950665Y820318D01*
X3957269Y816914D01*
X3964584Y814984D01*
X3970375Y814527D01*
X4144416Y814527D01*
X4152341Y815340D01*
X4159402Y817625D01*
X4165904Y821436D01*
X4170375Y825195D01*
X4188764Y843534D01*
X4192066Y845769D01*
X4195927Y846531D01*
X4320235Y846531D01*
X4324502Y845616D01*
X4327906Y843076D01*
X4329988Y839317D01*
X4330395Y835050D01*
X4329480Y828344D01*
X4329480Y800862D01*
X4393641Y800862D01*
X4393641Y836371D01*
X4394454Y840232D01*
X4396638Y843534D01*
X4399889Y845769D01*
X4403801Y846531D01*
X4496155Y846531D01*
X4500067Y845769D01*
X4503318Y843534D01*
X4505604Y840232D01*
X4506315Y836371D01*
X4506315Y800862D01*
X4570476Y800862D01*
X4570476Y828344D01*
X4569663Y835050D01*
X4569968Y839317D01*
X4572050Y843076D01*
X4575556Y845616D01*
X4579670Y846531D01*
X4599127Y846531D01*
X4602988Y845769D01*
X4606290Y843534D01*
X4641545Y808278D01*
X4643678Y804976D01*
X4644491Y801116D01*
X4644491Y584200D01*
X4643678Y580288D01*
X4641545Y576986D01*
X4511141Y446582D01*
X4507788Y444398D01*
X4503928Y443636D01*
G37*

%LPC*%
G36*
X4506315Y670509D02*
G01*
X4549394Y670509D01*
X4554575Y671118D01*
X4558893Y672592D01*
X4562754Y675030D01*
X4565954Y678281D01*
X4568393Y682142D01*
X4569866Y686460D01*
X4570476Y691591D01*
X4570476Y719175D01*
X4506315Y719175D01*
G37*
G36*
X4286300Y738987D02*
G01*
X4309211Y738987D01*
X4309211Y773328D01*
X4304538Y775055D01*
X4299458Y775614D01*
X4286300Y775614D01*
G37*

%LPD*%
G36*
X3960164Y100025D02*
G01*
X3956304Y100787D01*
X3952951Y103022D01*
X3950766Y106273D01*
X3949954Y110185D01*
X3949954Y589838D01*
X3950766Y593750D01*
X3952951Y597052D01*
X3956304Y599236D01*
X3960164Y599998D01*
X4009288Y599998D01*
X4013250Y599236D01*
X4016501Y597052D01*
X4018686Y593750D01*
X4019448Y589838D01*
X4019448Y506374D01*
X4095343Y506374D01*
X4095343Y589838D01*
X4096156Y593750D01*
X4098391Y597052D01*
X4101693Y599236D01*
X4105554Y599998D01*
X4221429Y599998D01*
X4225290Y599236D01*
X4228592Y597052D01*
X4230827Y593750D01*
X4231640Y589838D01*
X4231640Y506374D01*
X4307484Y506374D01*
X4307484Y589838D01*
X4308297Y593750D01*
X4310430Y597052D01*
X4313732Y599236D01*
X4317695Y599998D01*
X4389831Y599998D01*
X4393692Y599236D01*
X4396994Y597052D01*
X4399229Y593750D01*
X4399991Y589838D01*
X4399991Y110185D01*
X4399229Y106273D01*
X4396994Y103022D01*
X4393692Y100787D01*
X4389831Y100025D01*
G37*

%LPC*%
G36*
X4040581Y209550D02*
G01*
X4095343Y209550D01*
X4095343Y313690D01*
X4019448Y313690D01*
X4019448Y230581D01*
X4020058Y225501D01*
X4021632Y221183D01*
X4024020Y217271D01*
X4027220Y214071D01*
X4031081Y211632D01*
X4035450Y210108D01*
G37*
G36*
X4231640Y209550D02*
G01*
X4286402Y209550D01*
X4291533Y210108D01*
X4295851Y211632D01*
X4299712Y214071D01*
X4302963Y217271D01*
X4305452Y221183D01*
X4306925Y225501D01*
X4307484Y230581D01*
X4307484Y313690D01*
X4231640Y313690D01*
G37*

%LPD*%
G36*
X36068Y25908D02*
G01*
X32156Y26720D01*
X28854Y28905D01*
X26670Y32207D01*
X25908Y36068D01*
X25908Y2563926D01*
X26670Y2567838D01*
X28854Y2571140D01*
X32156Y2573324D01*
X36068Y2574086D01*
X1639824Y2574086D01*
X1643684Y2573324D01*
X1646986Y2571140D01*
X1649222Y2567838D01*
X1650034Y2563926D01*
X1650034Y2160676D01*
X1649222Y2156815D01*
X1646986Y2153513D01*
X1643684Y2151278D01*
X1639824Y2150516D01*
X1386941Y2150516D01*
X1373784Y2149500D01*
X1263548Y2149500D01*
X1258468Y2148941D01*
X1254150Y2147417D01*
X1250238Y2144979D01*
X1247038Y2141778D01*
X1244549Y2137867D01*
X1243076Y2133549D01*
X1242466Y2128469D01*
X1242466Y2031593D01*
X1243076Y2026462D01*
X1244549Y2022144D01*
X1247038Y2018284D01*
X1250238Y2015032D01*
X1254150Y2012594D01*
X1258468Y2011121D01*
X1263548Y2010511D01*
X1373936Y2010511D01*
X1386941Y2009546D01*
X1639824Y2009546D01*
X1643684Y2008784D01*
X1646986Y2006549D01*
X1649222Y2003247D01*
X1650034Y1999386D01*
X1650034Y1751025D01*
X1650949Y1750009D01*
X1808073Y1750009D01*
X1812289Y1749094D01*
X1815693Y1746504D01*
X1817827Y1742693D01*
X1818081Y1738375D01*
X1816506Y1734312D01*
X1813458Y1731264D01*
X1799945Y1726895D01*
X1791919Y1722526D01*
X1784756Y1716836D01*
X1778762Y1709978D01*
X1774088Y1702155D01*
X1770888Y1693570D01*
X1769211Y1684578D01*
X1769211Y1675485D01*
X1770888Y1666493D01*
X1774088Y1657908D01*
X1778762Y1650085D01*
X1784756Y1643227D01*
X1791919Y1637538D01*
X1799945Y1633169D01*
X1803247Y1631797D01*
X1805127Y1630324D01*
X1809343Y1626107D01*
X1811477Y1623009D01*
X1812391Y1619300D01*
X1811832Y1615592D01*
X1809902Y1612290D01*
X1806956Y1609953D01*
X1803298Y1608836D01*
X1800352Y1608531D01*
X1796084Y1607007D01*
X1792224Y1604568D01*
X1788922Y1601317D01*
X1786534Y1597456D01*
X1785061Y1593138D01*
X1784400Y1588008D01*
X1784400Y1468424D01*
X1785061Y1463294D01*
X1786534Y1458976D01*
X1788922Y1455115D01*
X1792224Y1451864D01*
X1796084Y1449425D01*
X1800352Y1447901D01*
X1805482Y1447342D01*
X1974443Y1447342D01*
X1979574Y1447901D01*
X1983892Y1449425D01*
X1987804Y1451864D01*
X1991004Y1455115D01*
X1993493Y1458976D01*
X1994966Y1463294D01*
X1995525Y1468424D01*
X1995525Y1588008D01*
X1994966Y1593138D01*
X1993493Y1597456D01*
X1991004Y1601317D01*
X1987804Y1604568D01*
X1983892Y1607007D01*
X1979574Y1608531D01*
X1974443Y1609090D01*
X1944725Y1609090D01*
X1941322Y1609699D01*
X1938274Y1611426D01*
X1935988Y1614119D01*
X1934768Y1617421D01*
X1934311Y1620062D01*
X1931568Y1628190D01*
X1927504Y1635556D01*
X1921814Y1642364D01*
X1870100Y1694078D01*
X1868119Y1696872D01*
X1863750Y1706168D01*
X1858314Y1713534D01*
X1851761Y1719834D01*
X1844141Y1724863D01*
X1835759Y1728470D01*
X1829206Y1729943D01*
X1825447Y1731721D01*
X1822602Y1734870D01*
X1821383Y1738884D01*
X1821840Y1743049D01*
X1823974Y1746707D01*
X1827377Y1749145D01*
X1831492Y1750009D01*
X2198979Y1750009D01*
X2199995Y1751025D01*
X2199995Y2009343D01*
X2200757Y2013254D01*
X2202942Y2016556D01*
X2206244Y2018741D01*
X2210155Y2019503D01*
X2224328Y2019503D01*
X2228189Y2018741D01*
X2231491Y2016556D01*
X2233676Y2013254D01*
X2234488Y2009343D01*
X2234488Y1658264D01*
X2235708Y1649628D01*
X2238400Y1641652D01*
X2242464Y1634337D01*
X2248154Y1627530D01*
X2309215Y1566519D01*
X2316175Y1561236D01*
X2323693Y1557528D01*
X2331720Y1555191D01*
X2340559Y1554378D01*
X2426411Y1554378D01*
X2430373Y1553565D01*
X2433777Y1551279D01*
X2438349Y1543964D01*
X2441600Y1540713D01*
X2444445Y1538986D01*
X2446934Y1536700D01*
X2448560Y1533702D01*
X2449118Y1530350D01*
X2449220Y1183589D01*
X2450388Y1174953D01*
X2453081Y1166977D01*
X2457145Y1159662D01*
X2463393Y1152194D01*
X2465222Y1148842D01*
X2465781Y1145082D01*
X2464866Y1141374D01*
X2462580Y1138275D01*
X2459329Y1136243D01*
X2455672Y1135532D01*
X2386076Y1135532D01*
X2382418Y1136192D01*
X2379268Y1138123D01*
X2377084Y1141018D01*
X2375966Y1144524D01*
X2375611Y1147775D01*
X2374138Y1152093D01*
X2371648Y1155954D01*
X2368397Y1159205D01*
X2364536Y1161643D01*
X2360218Y1163167D01*
X2355088Y1163726D01*
X2275586Y1163726D01*
X2270506Y1163167D01*
X2266188Y1161643D01*
X2262327Y1159205D01*
X2259025Y1155954D01*
X2256688Y1152093D01*
X2255113Y1147775D01*
X2254504Y1142644D01*
X2254504Y1057402D01*
X2255113Y1052271D01*
X2256688Y1047953D01*
X2259025Y1044092D01*
X2262327Y1040841D01*
X2266188Y1038402D01*
X2270506Y1036878D01*
X2275586Y1036319D01*
X2355088Y1036319D01*
X2360218Y1036878D01*
X2364536Y1038402D01*
X2368397Y1040841D01*
X2371648Y1044092D01*
X2374138Y1047953D01*
X2375611Y1052271D01*
X2375966Y1055522D01*
X2377084Y1059027D01*
X2379268Y1061923D01*
X2382418Y1063853D01*
X2386076Y1064514D01*
X2451049Y1064514D01*
X2455011Y1063752D01*
X2458262Y1061567D01*
X2586888Y932891D01*
X2589123Y929589D01*
X2589936Y925728D01*
X2589123Y921816D01*
X2586888Y918514D01*
X2583586Y916330D01*
X2579725Y915568D01*
X2530602Y915568D01*
X2522728Y914704D01*
X2515666Y912418D01*
X2509164Y908659D01*
X2504694Y904900D01*
X2480208Y880414D01*
X2475280Y874217D01*
X2471877Y867613D01*
X2469896Y860348D01*
X2469591Y856386D01*
X2468626Y852779D01*
X2466441Y849731D01*
X2463190Y847750D01*
X2459532Y847039D01*
X2450693Y847039D01*
X2446731Y847801D01*
X2443429Y849985D01*
X2441244Y853287D01*
X2440482Y857199D01*
X2440482Y859840D01*
X2439670Y867714D01*
X2437333Y874776D01*
X2433574Y881278D01*
X2429814Y885748D01*
X2379167Y936396D01*
X2376982Y939698D01*
X2376170Y943559D01*
X2376170Y992530D01*
X2375611Y997661D01*
X2374138Y1001979D01*
X2371648Y1005840D01*
X2368397Y1009091D01*
X2364536Y1011529D01*
X2360218Y1013053D01*
X2355088Y1013612D01*
X2275586Y1013612D01*
X2270506Y1013053D01*
X2266188Y1011529D01*
X2262327Y1009091D01*
X2259025Y1005840D01*
X2256688Y1001979D01*
X2255113Y997661D01*
X2254504Y992530D01*
X2254504Y907287D01*
X2255113Y902157D01*
X2256688Y897839D01*
X2259025Y893978D01*
X2262327Y890727D01*
X2266188Y888288D01*
X2270506Y886764D01*
X2275586Y886206D01*
X2324709Y886206D01*
X2328672Y885444D01*
X2331872Y883259D01*
X2350770Y864362D01*
X2352954Y861060D01*
X2353716Y857199D01*
X2352954Y853287D01*
X2350770Y849985D01*
X2347468Y847801D01*
X2343556Y847039D01*
X2340508Y847039D01*
X2335479Y846429D01*
X2330043Y845159D01*
X2324506Y846480D01*
X2319477Y847039D01*
X2260549Y847039D01*
X2255418Y846480D01*
X2249982Y845159D01*
X2244547Y846429D01*
X2238857Y847039D01*
X2238857Y793851D01*
X2239467Y790244D01*
X2239467Y732840D01*
X2238857Y729234D01*
X2238857Y707948D01*
X2237841Y703681D01*
X2235250Y700176D01*
X2231288Y698144D01*
X2223922Y696163D01*
X2220264Y695858D01*
X2216658Y696925D01*
X2213711Y699160D01*
X2211781Y702310D01*
X2211120Y705967D01*
X2211120Y722680D01*
X2208834Y722680D01*
X2208834Y693724D01*
X2208022Y689864D01*
X2205888Y686562D01*
X2198471Y679145D01*
X2195220Y676960D01*
X2191258Y676198D01*
X2187397Y676960D01*
X2184095Y679145D01*
X2181961Y682447D01*
X2181148Y686358D01*
X2181148Y725982D01*
X2179218Y729183D01*
X2178456Y732840D01*
X2178456Y736142D01*
X2177542Y748487D01*
X2174900Y760222D01*
X2170480Y771448D01*
X2164486Y781862D01*
X2162810Y783894D01*
X2161082Y787247D01*
X2160625Y791006D01*
X2161641Y794613D01*
X2163927Y797661D01*
X2167077Y799693D01*
X2170836Y800404D01*
X2181148Y800404D01*
X2181148Y847039D01*
X2175408Y846429D01*
X2171090Y844956D01*
X2167229Y842518D01*
X2164029Y839266D01*
X2161540Y835406D01*
X2160066Y831087D01*
X2159508Y825957D01*
X2159508Y810920D01*
X2158593Y806653D01*
X2155901Y803198D01*
X2151989Y801116D01*
X2147620Y800912D01*
X2143607Y802538D01*
X2138273Y806196D01*
X2127402Y811428D01*
X2115870Y814984D01*
X2104034Y816762D01*
X2091943Y816762D01*
X2080107Y814984D01*
X2068575Y811428D01*
X2057755Y806196D01*
X2047798Y799439D01*
X2038959Y791260D01*
X2031492Y781862D01*
X2025446Y771448D01*
X2021078Y760222D01*
X2018436Y748487D01*
X2017522Y736142D01*
X2017522Y656894D01*
X2018436Y644499D01*
X2021078Y632815D01*
X2025446Y621588D01*
X2031492Y611174D01*
X2038959Y601776D01*
X2047798Y593598D01*
X2057755Y586841D01*
X2068575Y581609D01*
X2080107Y578053D01*
X2091943Y576275D01*
X2104034Y576275D01*
X2115870Y578053D01*
X2127402Y581609D01*
X2138273Y586841D01*
X2148128Y593598D01*
X2156968Y601776D01*
X2164486Y611174D01*
X2172970Y625856D01*
X2176170Y628142D01*
X2180031Y629005D01*
X2183841Y628345D01*
X2187194Y626313D01*
X2189530Y623163D01*
X2192934Y615797D01*
X2198471Y607872D01*
X2205329Y601065D01*
X2213254Y595528D01*
X2221992Y591413D01*
X2231390Y588924D01*
X2240991Y588060D01*
X2250592Y588924D01*
X2259939Y591413D01*
X2268677Y595528D01*
X2276602Y601065D01*
X2283460Y607872D01*
X2288997Y615797D01*
X2291384Y620776D01*
X2293874Y624179D01*
X2297582Y626211D01*
X2301900Y626567D01*
X2305812Y625144D01*
X2308961Y622249D01*
X2310536Y618337D01*
X2310841Y616458D01*
X2314092Y607923D01*
X2318816Y600100D01*
X2324811Y593191D01*
X2331974Y587502D01*
X2340000Y583184D01*
X2348636Y580339D01*
X2357678Y579120D01*
X2366873Y579526D01*
X2375712Y581558D01*
X2384094Y585165D01*
X2391714Y590194D01*
X2398318Y596493D01*
X2401824Y601319D01*
X2404973Y604164D01*
X2408986Y605485D01*
X2413152Y605028D01*
X2416810Y602945D01*
X2419299Y599541D01*
X2420213Y595426D01*
X2420213Y590092D01*
X2419604Y586486D01*
X2417724Y583336D01*
X2414778Y579932D01*
X2410104Y572109D01*
X2406904Y563575D01*
X2405227Y554583D01*
X2405227Y545439D01*
X2406904Y536448D01*
X2410104Y527913D01*
X2414778Y520090D01*
X2420772Y513181D01*
X2427935Y507492D01*
X2435961Y503174D01*
X2444648Y500329D01*
X2453741Y499109D01*
X2462834Y499516D01*
X2471775Y501548D01*
X2480157Y505155D01*
X2487777Y510184D01*
X2494330Y516483D01*
X2499715Y523900D01*
X2503678Y532130D01*
X2506116Y540918D01*
X2506929Y550011D01*
X2506116Y559104D01*
X2503678Y567893D01*
X2499715Y576122D01*
X2492044Y586841D01*
X2491282Y590804D01*
X2491282Y594309D01*
X2491994Y598220D01*
X2494229Y601522D01*
X2497531Y603758D01*
X2501392Y604520D01*
X2539441Y604520D01*
X2547315Y605332D01*
X2558389Y608888D01*
X2562606Y608380D01*
X2566162Y606247D01*
X2568600Y602843D01*
X2569514Y598779D01*
X2569514Y520344D01*
X2568854Y516737D01*
X2567025Y513638D01*
X2563774Y509981D01*
X2559100Y502158D01*
X2555900Y493572D01*
X2554224Y484581D01*
X2554224Y475488D01*
X2555900Y466496D01*
X2559100Y457911D01*
X2563774Y450088D01*
X2569768Y443230D01*
X2576931Y437540D01*
X2584958Y433171D01*
X2593644Y430377D01*
X2602738Y429158D01*
X2611831Y429564D01*
X2620772Y431596D01*
X2629154Y435203D01*
X2636774Y440232D01*
X2643327Y446532D01*
X2648712Y453898D01*
X2652674Y462127D01*
X2655112Y470916D01*
X2655925Y480009D01*
X2655112Y489153D01*
X2652674Y497941D01*
X2648712Y506120D01*
X2642463Y514604D01*
X2640990Y517448D01*
X2640482Y520598D01*
X2640482Y616000D01*
X2641396Y620166D01*
X2643886Y623620D01*
X2647645Y625703D01*
X2651861Y626059D01*
X2655925Y624687D01*
X2659024Y621741D01*
X2664104Y607923D01*
X2668778Y600100D01*
X2674772Y593191D01*
X2681935Y587502D01*
X2689961Y583184D01*
X2698648Y580339D01*
X2707741Y579120D01*
X2716834Y579526D01*
X2725775Y581558D01*
X2734157Y585165D01*
X2741777Y590194D01*
X2748330Y596493D01*
X2753715Y603910D01*
X2756611Y609904D01*
X2759151Y613206D01*
X2762859Y615238D01*
X2767025Y615594D01*
X2771038Y614172D01*
X2774086Y611327D01*
X2776474Y607872D01*
X2783382Y601065D01*
X2791307Y595528D01*
X2800045Y591413D01*
X2809341Y588924D01*
X2818993Y588060D01*
X2828594Y588924D01*
X2837942Y591413D01*
X2846679Y595528D01*
X2854604Y601065D01*
X2861513Y607872D01*
X2867050Y615797D01*
X2870454Y623163D01*
X2872740Y626313D01*
X2876143Y628345D01*
X2880004Y629005D01*
X2883763Y628142D01*
X2887014Y625856D01*
X2895498Y611174D01*
X2903016Y601776D01*
X2911856Y593598D01*
X2921711Y586841D01*
X2932582Y581609D01*
X2944063Y578053D01*
X2955950Y576275D01*
X2967990Y576275D01*
X2979877Y578053D01*
X2991358Y581609D01*
X3002229Y586841D01*
X3012135Y593598D01*
X3020974Y601776D01*
X3028442Y611174D01*
X3034538Y621588D01*
X3038856Y632815D01*
X3041548Y644499D01*
X3042462Y656894D01*
X3042462Y736142D01*
X3041548Y748487D01*
X3038856Y760222D01*
X3034538Y771448D01*
X3028442Y781862D01*
X3020974Y791260D01*
X3012135Y799439D01*
X3002229Y806196D01*
X2991358Y811428D01*
X2979877Y814984D01*
X2967990Y816762D01*
X2955950Y816762D01*
X2944063Y814984D01*
X2932582Y811428D01*
X2921711Y806196D01*
X2916377Y802538D01*
X2912313Y800912D01*
X2907995Y801116D01*
X2904032Y803198D01*
X2901391Y806653D01*
X2900527Y810920D01*
X2900527Y825957D01*
X2899867Y831087D01*
X2898394Y835406D01*
X2895955Y839266D01*
X2892704Y842518D01*
X2888843Y844956D01*
X2884525Y846429D01*
X2878836Y847039D01*
X2878836Y800404D01*
X2889148Y800404D01*
X2892907Y799693D01*
X2896108Y797661D01*
X2898343Y794613D01*
X2899308Y791006D01*
X2898851Y787247D01*
X2897124Y783894D01*
X2895498Y781862D01*
X2889504Y771448D01*
X2885084Y760222D01*
X2882392Y748487D01*
X2881477Y736142D01*
X2881477Y732840D01*
X2880766Y729183D01*
X2878836Y725982D01*
X2878836Y686358D01*
X2878074Y682447D01*
X2875838Y679145D01*
X2872536Y676960D01*
X2868676Y676198D01*
X2864764Y676960D01*
X2861513Y679145D01*
X2854147Y686562D01*
X2851912Y689864D01*
X2851099Y693724D01*
X2851099Y722680D01*
X2848813Y722680D01*
X2848813Y705967D01*
X2848152Y702310D01*
X2846222Y699160D01*
X2843276Y696925D01*
X2839720Y695858D01*
X2836011Y696163D01*
X2828645Y698144D01*
X2824784Y700176D01*
X2822092Y703681D01*
X2821127Y707948D01*
X2821127Y729284D01*
X2820466Y732840D01*
X2820466Y760222D01*
X2820619Y761949D01*
X2820619Y790244D01*
X2821127Y793394D01*
X2821127Y853998D01*
X2820619Y857199D01*
X2820619Y861314D01*
X2821381Y865225D01*
X2823565Y868527D01*
X2826918Y870712D01*
X2830779Y871474D01*
X3124098Y871474D01*
X3127959Y870712D01*
X3131464Y868324D01*
X3133648Y865022D01*
X3134461Y861161D01*
X3134461Y537413D01*
X3133648Y533552D01*
X3131464Y530250D01*
X3128213Y528015D01*
X3124250Y527253D01*
X3113024Y527253D01*
X3107893Y526694D01*
X3103575Y525170D01*
X3099663Y522732D01*
X3096463Y519531D01*
X3094075Y515620D01*
X3092500Y511301D01*
X3091942Y506222D01*
X3091942Y412343D01*
X3092500Y407212D01*
X3094075Y402894D01*
X3096463Y399034D01*
X3099663Y395782D01*
X3103575Y393344D01*
X3107893Y391820D01*
X3113024Y391261D01*
X3226866Y391261D01*
X3231946Y391820D01*
X3236264Y393344D01*
X3240227Y395782D01*
X3243427Y399034D01*
X3245815Y402894D01*
X3247390Y407212D01*
X3247948Y412343D01*
X3247948Y506222D01*
X3247390Y511301D01*
X3245815Y515620D01*
X3243427Y519531D01*
X3240227Y522732D01*
X3236264Y525170D01*
X3231946Y526694D01*
X3226866Y527253D01*
X3215640Y527253D01*
X3211677Y528015D01*
X3208375Y530250D01*
X3206191Y533552D01*
X3205429Y537413D01*
X3205429Y879551D01*
X3203752Y893064D01*
X3205175Y897178D01*
X3208172Y900328D01*
X3212236Y901903D01*
X3226511Y900531D01*
X3642664Y900582D01*
X3646068Y900023D01*
X3649014Y898398D01*
X3658108Y887425D01*
X3869029Y676757D01*
X3876040Y671474D01*
X3883507Y667766D01*
X3896309Y664210D01*
X3899509Y661568D01*
X3901338Y657910D01*
X3901541Y653796D01*
X3899966Y649020D01*
X3899966Y465683D01*
X3899204Y461772D01*
X3897020Y458470D01*
X3893718Y456285D01*
X3889857Y455523D01*
X3749852Y455523D01*
X3745788Y456387D01*
X3742385Y458774D01*
X3740302Y462381D01*
X3738372Y467918D01*
X3735984Y471779D01*
X3732682Y474980D01*
X3728821Y477418D01*
X3724554Y478942D01*
X3719423Y479501D01*
X3473602Y479501D01*
X3468420Y478942D01*
X3464102Y477418D01*
X3460242Y474980D01*
X3457041Y471779D01*
X3454552Y467868D01*
X3453079Y463550D01*
X3452520Y458470D01*
X3452520Y361594D01*
X3453079Y356463D01*
X3454552Y352145D01*
X3457041Y348284D01*
X3460242Y345033D01*
X3464102Y342595D01*
X3468420Y341122D01*
X3473602Y340512D01*
X3719423Y340512D01*
X3724554Y341122D01*
X3728821Y342595D01*
X3732682Y345033D01*
X3735984Y348284D01*
X3738372Y352145D01*
X3740302Y357682D01*
X3742385Y361238D01*
X3745788Y363677D01*
X3749852Y364540D01*
X3889857Y364540D01*
X3893718Y363728D01*
X3897020Y361543D01*
X3899204Y358241D01*
X3899966Y354380D01*
X3899966Y36068D01*
X3899204Y32207D01*
X3897020Y28905D01*
X3893718Y26720D01*
X3889857Y25908D01*
X1434033Y25908D01*
X1429918Y26822D01*
X1426413Y29413D01*
X1424381Y33172D01*
X1424025Y37439D01*
X1425498Y41503D01*
X1428445Y46177D01*
X1429918Y50495D01*
X1430477Y55575D01*
X1430477Y71170D01*
X1396288Y71170D01*
X1396288Y36068D01*
X1395577Y32207D01*
X1393342Y28905D01*
X1390040Y26720D01*
X1386128Y25908D01*
X1353769Y25908D01*
X1349908Y26720D01*
X1346606Y28905D01*
X1344422Y32207D01*
X1343609Y36068D01*
X1343609Y71170D01*
X1300632Y71170D01*
X1296771Y71932D01*
X1293520Y74168D01*
X1291234Y77470D01*
X1290472Y81330D01*
X1290472Y118719D01*
X1291234Y122580D01*
X1293520Y125882D01*
X1296771Y128117D01*
X1300632Y128879D01*
X1343609Y128879D01*
X1343609Y165506D01*
X1330604Y165506D01*
X1325422Y164947D01*
X1321104Y163423D01*
X1317244Y160985D01*
X1314043Y157784D01*
X1311554Y153873D01*
X1309725Y148488D01*
X1307541Y144932D01*
X1304188Y142544D01*
X1299870Y141681D01*
X1295806Y142544D01*
X1292402Y144932D01*
X1290269Y148488D01*
X1288389Y153873D01*
X1285951Y157784D01*
X1282750Y160985D01*
X1280261Y162560D01*
X1277670Y164846D01*
X1276045Y167843D01*
X1275486Y171196D01*
X1275486Y224536D01*
X1274216Y233171D01*
X1271625Y241147D01*
X1267409Y248564D01*
X1263497Y253492D01*
X1256182Y260908D01*
X1254048Y264160D01*
X1253236Y268020D01*
X1253236Y306882D01*
X1252677Y312013D01*
X1251204Y316331D01*
X1248714Y320192D01*
X1245514Y323443D01*
X1241602Y325882D01*
X1237284Y327355D01*
X1232204Y327964D01*
X1133348Y327964D01*
X1128217Y327355D01*
X1123899Y325882D01*
X1120038Y323443D01*
X1114501Y317703D01*
X1111554Y316077D01*
X1108252Y315518D01*
X1005636Y315518D01*
X1001725Y316280D01*
X998423Y318516D01*
X996238Y321818D01*
X995476Y325678D01*
X995476Y336448D01*
X996289Y340461D01*
X998575Y343763D01*
X1005890Y348386D01*
X1009142Y351637D01*
X1011580Y355498D01*
X1013104Y359816D01*
X1013663Y364947D01*
X1013663Y444449D01*
X1013104Y449580D01*
X1011580Y453898D01*
X1009142Y457758D01*
X1005890Y461009D01*
X1002080Y463448D01*
X997712Y464921D01*
X992581Y465531D01*
X907338Y465531D01*
X902208Y464921D01*
X897890Y463448D01*
X894029Y461009D01*
X890778Y457758D01*
X888339Y453898D01*
X886866Y449580D01*
X886307Y444449D01*
X886307Y364947D01*
X886866Y359816D01*
X888339Y355498D01*
X890778Y351637D01*
X894029Y348386D01*
X901344Y343763D01*
X903681Y340461D01*
X904494Y336448D01*
X904494Y313690D01*
X903681Y309727D01*
X901344Y306374D01*
X894029Y301752D01*
X890778Y298500D01*
X888339Y294640D01*
X886815Y290322D01*
X886307Y285191D01*
X886307Y205689D01*
X886815Y200558D01*
X888339Y196240D01*
X890778Y192379D01*
X894029Y189128D01*
X897890Y186740D01*
X902208Y185216D01*
X907338Y184607D01*
X992581Y184607D01*
X997712Y185216D01*
X1002080Y186740D01*
X1005890Y189128D01*
X1009142Y192379D01*
X1011580Y196240D01*
X1013104Y200558D01*
X1013663Y205689D01*
X1013663Y214375D01*
X1014425Y218236D01*
X1016609Y221538D01*
X1019911Y223774D01*
X1023823Y224536D01*
X1108151Y224536D01*
X1111504Y223977D01*
X1114450Y222300D01*
X1120038Y216458D01*
X1123899Y214020D01*
X1128217Y212547D01*
X1133348Y211937D01*
X1172210Y211937D01*
X1176121Y211175D01*
X1179423Y208991D01*
X1181506Y206908D01*
X1183690Y203606D01*
X1184452Y199694D01*
X1184452Y171145D01*
X1183894Y167792D01*
X1182319Y164846D01*
X1179728Y162560D01*
X1177239Y160985D01*
X1174038Y157784D01*
X1171600Y153873D01*
X1171092Y152349D01*
X1168908Y148793D01*
X1165504Y146354D01*
X1161440Y145542D01*
X1144727Y145542D01*
X1140714Y146354D01*
X1135735Y148488D01*
X1126794Y150520D01*
X1117701Y150926D01*
X1108659Y149707D01*
X1099972Y146862D01*
X1091895Y142544D01*
X1084783Y136855D01*
X1078788Y129946D01*
X1074064Y122123D01*
X1070864Y113588D01*
X1069238Y104597D01*
X1069238Y95453D01*
X1070864Y86461D01*
X1074064Y77927D01*
X1078788Y70104D01*
X1084783Y63195D01*
X1091895Y57505D01*
X1099972Y53187D01*
X1108659Y50342D01*
X1117701Y49123D01*
X1126794Y49530D01*
X1135735Y51562D01*
X1140714Y53695D01*
X1144727Y54508D01*
X1161440Y54508D01*
X1165504Y53695D01*
X1168908Y51257D01*
X1171092Y47701D01*
X1171600Y46177D01*
X1174496Y41503D01*
X1175969Y37439D01*
X1175613Y33172D01*
X1173530Y29413D01*
X1170127Y26822D01*
X1165910Y25908D01*
X1017574Y25908D01*
X1013409Y26822D01*
X1009954Y29413D01*
X1007871Y33172D01*
X1007516Y37439D01*
X1008989Y41503D01*
X1011580Y45618D01*
X1013104Y49936D01*
X1013663Y55067D01*
X1013663Y68275D01*
X977900Y68275D01*
X977900Y36068D01*
X977188Y32207D01*
X974953Y28905D01*
X971651Y26720D01*
X967740Y25908D01*
X932230Y25908D01*
X928319Y26720D01*
X924966Y28905D01*
X922782Y32207D01*
X922019Y36068D01*
X922019Y68275D01*
X886307Y68275D01*
X886307Y55067D01*
X886815Y49936D01*
X888339Y45618D01*
X890930Y41503D01*
X892403Y37439D01*
X892048Y33172D01*
X889965Y29413D01*
X886510Y26822D01*
X882345Y25908D01*
G37*

%LPC*%
G36*
X1263548Y2240534D02*
G01*
X1318361Y2240534D01*
X1318361Y2279192D01*
X1242466Y2279192D01*
X1242466Y2261616D01*
X1243076Y2256485D01*
X1244549Y2252167D01*
X1247038Y2248255D01*
X1250238Y2245055D01*
X1254150Y2242616D01*
X1258468Y2241092D01*
G37*
G36*
X1938832Y788670D02*
G01*
X1995525Y788670D01*
X1995525Y811936D01*
X1994966Y817067D01*
X1993493Y821385D01*
X1991004Y825246D01*
X1987804Y828497D01*
X1983892Y830935D01*
X1979574Y832459D01*
X1974443Y833018D01*
X1938832Y833018D01*
G37*
G36*
X1454556Y2340864D02*
G01*
X1530502Y2340864D01*
X1530502Y2358440D01*
X1529943Y2363571D01*
X1528368Y2367889D01*
X1525981Y2371750D01*
X1522780Y2375001D01*
X1518818Y2377440D01*
X1514500Y2378964D01*
X1509420Y2379522D01*
X1454556Y2379522D01*
G37*
G36*
X1454556Y2240534D02*
G01*
X1509420Y2240534D01*
X1514500Y2241092D01*
X1518818Y2242616D01*
X1522780Y2245055D01*
X1525981Y2248255D01*
X1528368Y2252167D01*
X1529943Y2256485D01*
X1530502Y2261616D01*
X1530502Y2279192D01*
X1454556Y2279192D01*
G37*
G36*
X1784400Y788670D02*
G01*
X1841093Y788670D01*
X1841093Y833018D01*
X1805482Y833018D01*
X1800352Y832459D01*
X1796084Y830935D01*
X1792224Y828497D01*
X1788922Y825246D01*
X1786534Y821385D01*
X1785061Y817067D01*
X1784400Y811936D01*
G37*
G36*
X977900Y121310D02*
G01*
X1013663Y121310D01*
X1013663Y134569D01*
X1013104Y139700D01*
X1011580Y144018D01*
X1009142Y147878D01*
X1005890Y151130D01*
X1002080Y153517D01*
X997712Y155041D01*
X992581Y155651D01*
X977900Y155651D01*
G37*
G36*
X886307Y121310D02*
G01*
X922019Y121310D01*
X922019Y155651D01*
X907338Y155651D01*
X902208Y155041D01*
X897890Y153517D01*
X894029Y151130D01*
X890778Y147878D01*
X888339Y144018D01*
X886815Y139700D01*
X886307Y134569D01*
G37*
G36*
X1396288Y128879D02*
G01*
X1430477Y128879D01*
X1430477Y144475D01*
X1429918Y149555D01*
X1428445Y153873D01*
X1425956Y157784D01*
X1422704Y160985D01*
X1418844Y163423D01*
X1414526Y164947D01*
X1409395Y165506D01*
X1396288Y165506D01*
G37*
G36*
X419963Y1993544D02*
G01*
X435965Y1994458D01*
X451815Y1997202D01*
X467207Y2001723D01*
X481939Y2007971D01*
X495909Y2015845D01*
X508914Y2025294D01*
X520700Y2036114D01*
X531215Y2048256D01*
X540258Y2061464D01*
X547827Y2075688D01*
X553567Y2090623D01*
X557631Y2106117D01*
X559917Y2122017D01*
X560374Y2138019D01*
X559054Y2154021D01*
X556869Y2164791D01*
X556717Y2168093D01*
X557682Y2171242D01*
X559612Y2173986D01*
X612190Y2226564D01*
X615492Y2228748D01*
X619404Y2229510D01*
X949350Y2229510D01*
X953262Y2228748D01*
X956513Y2226564D01*
X958697Y2223262D01*
X959459Y2219350D01*
X959459Y2200605D01*
X960069Y2195474D01*
X961542Y2191156D01*
X963980Y2187295D01*
X967232Y2184044D01*
X971092Y2181606D01*
X975410Y2180082D01*
X980592Y2179523D01*
X1179423Y2179523D01*
X1184503Y2180082D01*
X1188821Y2181606D01*
X1192733Y2184044D01*
X1195933Y2187295D01*
X1198372Y2191156D01*
X1199896Y2195474D01*
X1200454Y2200605D01*
X1200454Y2399436D01*
X1199896Y2404567D01*
X1198372Y2408885D01*
X1195933Y2412746D01*
X1192733Y2415997D01*
X1188821Y2418435D01*
X1184503Y2419959D01*
X1179423Y2420518D01*
X980592Y2420518D01*
X975410Y2419959D01*
X971092Y2418435D01*
X967232Y2415997D01*
X963980Y2412746D01*
X961542Y2408885D01*
X960069Y2404567D01*
X959459Y2399436D01*
X959459Y2380691D01*
X958697Y2376779D01*
X956513Y2373477D01*
X953262Y2371293D01*
X949350Y2370531D01*
X586384Y2370531D01*
X574954Y2369616D01*
X564184Y2367026D01*
X553974Y2362809D01*
X544576Y2357018D01*
X535838Y2349601D01*
X459892Y2273655D01*
X457098Y2271674D01*
X453847Y2270709D01*
X450392Y2270912D01*
X443941Y2272436D01*
X427990Y2274265D01*
X411937Y2274265D01*
X396036Y2272436D01*
X380390Y2268829D01*
X365302Y2263444D01*
X350875Y2256332D01*
X337413Y2247696D01*
X324967Y2237536D01*
X313842Y2226005D01*
X303987Y2213305D01*
X295757Y2199589D01*
X289052Y2185009D01*
X284124Y2169718D01*
X280924Y2154021D01*
X279552Y2138019D01*
X280009Y2122017D01*
X282295Y2106117D01*
X286359Y2090623D01*
X292201Y2075688D01*
X299669Y2061464D01*
X308711Y2048256D01*
X319227Y2036114D01*
X331063Y2025294D01*
X344017Y2015845D01*
X357987Y2007971D01*
X372770Y2001723D01*
X388162Y1997202D01*
X403961Y1994458D01*
G37*
G36*
X2091943Y168249D02*
G01*
X2104034Y168249D01*
X2115870Y170078D01*
X2127402Y173583D01*
X2138273Y178816D01*
X2148128Y185623D01*
X2156968Y193802D01*
X2164486Y203200D01*
X2170480Y213614D01*
X2174900Y224790D01*
X2177542Y236524D01*
X2178456Y248869D01*
X2178456Y308152D01*
X2177542Y320497D01*
X2174900Y332232D01*
X2170480Y343408D01*
X2164486Y353822D01*
X2156968Y363270D01*
X2148128Y371449D01*
X2138273Y378206D01*
X2127402Y383438D01*
X2115870Y386943D01*
X2104034Y388772D01*
X2091943Y388772D01*
X2080107Y386943D01*
X2068575Y383438D01*
X2057755Y378206D01*
X2047798Y371449D01*
X2038959Y363270D01*
X2031492Y353822D01*
X2025446Y343408D01*
X2021078Y332232D01*
X2018436Y320497D01*
X2017522Y308152D01*
X2017522Y248869D01*
X2018436Y236524D01*
X2021078Y224790D01*
X2025446Y213614D01*
X2031492Y203200D01*
X2038959Y193802D01*
X2047798Y185623D01*
X2057755Y178816D01*
X2068575Y173583D01*
X2080107Y170078D01*
G37*
G36*
X2955950Y168249D02*
G01*
X2967990Y168249D01*
X2979877Y170078D01*
X2991358Y173583D01*
X3002229Y178816D01*
X3012135Y185623D01*
X3020974Y193802D01*
X3028442Y203200D01*
X3034538Y213614D01*
X3038856Y224790D01*
X3041548Y236524D01*
X3042462Y248869D01*
X3042462Y308152D01*
X3041548Y320497D01*
X3038856Y332232D01*
X3034538Y343408D01*
X3028442Y353822D01*
X3020974Y363270D01*
X3012135Y371449D01*
X3002229Y378206D01*
X2991358Y383438D01*
X2979877Y386943D01*
X2967990Y388772D01*
X2955950Y388772D01*
X2944063Y386943D01*
X2932582Y383438D01*
X2921711Y378206D01*
X2911856Y371449D01*
X2903016Y363270D01*
X2895498Y353822D01*
X2889504Y343408D01*
X2885084Y332232D01*
X2882392Y320497D01*
X2881477Y308152D01*
X2881477Y248869D01*
X2882392Y236524D01*
X2885084Y224790D01*
X2889504Y213614D01*
X2895498Y203200D01*
X2903016Y193802D01*
X2911856Y185623D01*
X2921711Y178816D01*
X2932582Y173583D01*
X2944063Y170078D01*
G37*
G36*
X2848813Y800404D02*
G01*
X2851099Y800404D01*
X2851099Y847039D01*
X2848813Y847039D01*
G37*
G36*
X2208834Y800404D02*
G01*
X2211120Y800404D01*
X2211120Y847039D01*
X2208834Y847039D01*
G37*
G36*
X1448612Y211937D02*
G01*
X1466697Y211937D01*
X1471879Y212547D01*
X1476197Y214020D01*
X1480058Y216458D01*
X1483258Y219710D01*
X1485696Y223570D01*
X1487170Y227888D01*
X1487779Y233019D01*
X1487779Y244856D01*
X1448612Y244856D01*
G37*
G36*
X1367891Y211937D02*
G01*
X1385925Y211937D01*
X1385925Y244856D01*
X1346809Y244856D01*
X1346809Y233019D01*
X1347368Y227888D01*
X1348841Y223570D01*
X1351330Y219710D01*
X1354531Y216458D01*
X1358392Y214020D01*
X1362710Y212547D01*
G37*
G36*
X1448612Y295046D02*
G01*
X1487779Y295046D01*
X1487779Y306882D01*
X1487170Y312013D01*
X1485696Y316331D01*
X1483258Y320192D01*
X1480058Y323443D01*
X1476197Y325882D01*
X1471879Y327355D01*
X1466697Y327964D01*
X1448612Y327964D01*
G37*
G36*
X1346809Y295046D02*
G01*
X1385925Y295046D01*
X1385925Y327964D01*
X1367891Y327964D01*
X1362710Y327355D01*
X1358392Y325882D01*
X1354531Y323443D01*
X1351330Y320192D01*
X1348841Y316331D01*
X1347368Y312013D01*
X1346809Y306882D01*
G37*
G36*
X296265Y1692351D02*
G01*
X353618Y1692351D01*
X353618Y1749704D01*
X350875Y1748332D01*
X337413Y1739696D01*
X324967Y1729536D01*
X313842Y1718005D01*
X303987Y1705305D01*
G37*
G36*
X486308Y1692351D02*
G01*
X543763Y1692351D01*
X535940Y1705305D01*
X526135Y1718005D01*
X514959Y1729536D01*
X502564Y1739696D01*
X489051Y1748332D01*
X486308Y1749704D01*
G37*
G36*
X419963Y325526D02*
G01*
X435965Y326440D01*
X451815Y329184D01*
X467207Y333705D01*
X481939Y339953D01*
X495909Y347827D01*
X508914Y357276D01*
X520700Y368096D01*
X531215Y380238D01*
X540258Y393496D01*
X547827Y407670D01*
X553567Y422605D01*
X557631Y438150D01*
X559917Y453999D01*
X560374Y470052D01*
X559206Y483819D01*
X559714Y487984D01*
X561848Y491591D01*
X565251Y493979D01*
X569315Y494842D01*
X903782Y494842D01*
X907338Y494538D01*
X992581Y494538D01*
X997712Y495096D01*
X1002080Y496620D01*
X1005890Y499059D01*
X1009142Y502259D01*
X1011580Y506171D01*
X1013104Y510489D01*
X1013663Y515620D01*
X1013663Y595122D01*
X1013104Y600202D01*
X1011580Y604520D01*
X1009142Y608431D01*
X1005890Y611632D01*
X1002080Y614070D01*
X997712Y615594D01*
X992581Y616153D01*
X907338Y616153D01*
X903986Y615848D01*
X509625Y615848D01*
X499567Y615086D01*
X489864Y612648D01*
X480720Y608685D01*
X474167Y604570D01*
X470916Y601929D01*
X467918Y600252D01*
X464515Y599694D01*
X443941Y604469D01*
X427990Y606298D01*
X411937Y606298D01*
X396036Y604469D01*
X380390Y600811D01*
X365302Y595426D01*
X350875Y588365D01*
X337413Y579678D01*
X324967Y569518D01*
X313842Y558038D01*
X303987Y545338D01*
X295757Y531571D01*
X289052Y516991D01*
X284124Y501751D01*
X280924Y486003D01*
X279552Y470052D01*
X280009Y453999D01*
X282295Y438150D01*
X286359Y422605D01*
X292201Y407670D01*
X299669Y393496D01*
X308711Y380238D01*
X319227Y368096D01*
X331063Y357276D01*
X344017Y347827D01*
X357987Y339953D01*
X372770Y333705D01*
X388162Y329184D01*
X403961Y326440D01*
G37*
G36*
X1576324Y1678889D02*
G01*
X1610461Y1678889D01*
X1610461Y1694434D01*
X1609902Y1699564D01*
X1608378Y1703882D01*
X1605940Y1707743D01*
X1602740Y1710994D01*
X1598879Y1713433D01*
X1594561Y1714957D01*
X1589379Y1715516D01*
X1576324Y1715516D01*
G37*
G36*
X1120546Y377088D02*
G01*
X1699463Y377088D01*
X1704543Y377698D01*
X1708861Y379222D01*
X1712722Y381660D01*
X1715922Y384860D01*
X1718411Y388721D01*
X1719884Y393039D01*
X1720545Y398170D01*
X1720545Y1017016D01*
X1719884Y1022146D01*
X1718411Y1026464D01*
X1715922Y1030325D01*
X1712722Y1033576D01*
X1708861Y1036015D01*
X1704543Y1037539D01*
X1699463Y1038098D01*
X1490624Y1038098D01*
X1486712Y1038860D01*
X1483461Y1041095D01*
X1481277Y1044397D01*
X1480464Y1048258D01*
X1480464Y1581302D01*
X1481378Y1585518D01*
X1484020Y1588973D01*
X1487728Y1591056D01*
X1492046Y1591360D01*
X1496161Y1589836D01*
X1501140Y1586585D01*
X1505458Y1585112D01*
X1510538Y1584502D01*
X1523593Y1584502D01*
X1523593Y1621180D01*
X1490624Y1621180D01*
X1486712Y1621942D01*
X1483461Y1624126D01*
X1481277Y1627428D01*
X1480464Y1631340D01*
X1480464Y1668729D01*
X1481277Y1672589D01*
X1483461Y1675892D01*
X1486763Y1678076D01*
X1490624Y1678889D01*
X1523593Y1678889D01*
X1523593Y1715516D01*
X1510538Y1715516D01*
X1505458Y1714957D01*
X1501140Y1713433D01*
X1496161Y1710232D01*
X1492046Y1708708D01*
X1487779Y1709013D01*
X1484020Y1711096D01*
X1481378Y1714550D01*
X1480464Y1718767D01*
X1480464Y1770380D01*
X1481277Y1774240D01*
X1483461Y1777542D01*
X1486763Y1779727D01*
X1490624Y1780539D01*
X1509420Y1780539D01*
X1514500Y1781098D01*
X1518818Y1782622D01*
X1522780Y1785061D01*
X1525981Y1788261D01*
X1528368Y1792173D01*
X1529943Y1796491D01*
X1530502Y1801571D01*
X1530502Y1898446D01*
X1529943Y1903577D01*
X1528368Y1907895D01*
X1525981Y1911756D01*
X1522780Y1915007D01*
X1518818Y1917446D01*
X1514500Y1918919D01*
X1509420Y1919528D01*
X1399082Y1919528D01*
X1386484Y1920493D01*
X1373936Y1919528D01*
X1263548Y1919528D01*
X1258468Y1918919D01*
X1254150Y1917446D01*
X1250238Y1915007D01*
X1247038Y1911756D01*
X1244549Y1907895D01*
X1243076Y1903577D01*
X1242466Y1898446D01*
X1242466Y1801571D01*
X1243076Y1796491D01*
X1244549Y1792173D01*
X1247038Y1788261D01*
X1250238Y1785061D01*
X1254150Y1782622D01*
X1258468Y1781098D01*
X1263548Y1780539D01*
X1329334Y1780539D01*
X1333195Y1779727D01*
X1336497Y1777542D01*
X1338681Y1774240D01*
X1339545Y1770380D01*
X1339545Y1730654D01*
X1338681Y1726793D01*
X1336497Y1723491D01*
X1333195Y1721256D01*
X1329334Y1720494D01*
X1243380Y1720494D01*
X1239520Y1721256D01*
X1236218Y1723491D01*
X1203452Y1756257D01*
X1201267Y1759559D01*
X1200454Y1763420D01*
X1200454Y1939442D01*
X1199896Y1944573D01*
X1198372Y1948891D01*
X1195933Y1952752D01*
X1192733Y1956003D01*
X1188821Y1958441D01*
X1184503Y1959965D01*
X1179423Y1960524D01*
X980592Y1960524D01*
X975410Y1959965D01*
X971092Y1958441D01*
X967232Y1956003D01*
X963980Y1952752D01*
X961542Y1948891D01*
X960069Y1944573D01*
X959459Y1939442D01*
X959459Y1740611D01*
X960069Y1735480D01*
X961542Y1731162D01*
X963980Y1727301D01*
X967232Y1724050D01*
X971092Y1721612D01*
X975410Y1720088D01*
X980592Y1719529D01*
X1036574Y1719529D01*
X1040434Y1718767D01*
X1043736Y1716532D01*
X1159865Y1600454D01*
X1168552Y1592986D01*
X1178001Y1587246D01*
X1188415Y1582928D01*
X1192174Y1581150D01*
X1194917Y1578000D01*
X1196136Y1573987D01*
X1195679Y1569821D01*
X1193546Y1566214D01*
X1190142Y1563776D01*
X1186027Y1562912D01*
X1101547Y1562912D01*
X1096416Y1562354D01*
X1092098Y1560830D01*
X1088237Y1558391D01*
X1084986Y1555140D01*
X1082548Y1551279D01*
X1081074Y1546961D01*
X1080465Y1541830D01*
X1080465Y1473098D01*
X1079754Y1469186D01*
X1077518Y1465884D01*
X1074216Y1463700D01*
X1070305Y1462938D01*
X838758Y1462938D01*
X827328Y1462024D01*
X816610Y1459433D01*
X806399Y1455216D01*
X796950Y1449425D01*
X788263Y1442008D01*
X459892Y1113637D01*
X457098Y1111656D01*
X453847Y1110742D01*
X450392Y1110945D01*
X443941Y1112469D01*
X427990Y1114298D01*
X411937Y1114298D01*
X396036Y1112469D01*
X380390Y1108811D01*
X365302Y1103426D01*
X350875Y1096365D01*
X337413Y1087678D01*
X324967Y1077518D01*
X313842Y1066038D01*
X303987Y1053338D01*
X295757Y1039571D01*
X289052Y1024991D01*
X284124Y1009751D01*
X280924Y994003D01*
X279552Y978052D01*
X280009Y961999D01*
X282295Y946150D01*
X286359Y930605D01*
X292201Y915669D01*
X299669Y901496D01*
X308711Y888237D01*
X319227Y876096D01*
X331063Y865276D01*
X344017Y855827D01*
X357987Y847953D01*
X372770Y841705D01*
X388162Y837184D01*
X403961Y834440D01*
X419963Y833526D01*
X435965Y834440D01*
X451815Y837184D01*
X467207Y841705D01*
X481939Y847953D01*
X495909Y855827D01*
X508914Y865276D01*
X520700Y876096D01*
X531215Y888237D01*
X540258Y901496D01*
X547827Y915669D01*
X553567Y930605D01*
X557631Y946150D01*
X559917Y961999D01*
X560374Y978052D01*
X559054Y994003D01*
X556869Y1004773D01*
X556717Y1008075D01*
X557682Y1011275D01*
X559612Y1013968D01*
X864616Y1318971D01*
X867918Y1321155D01*
X871778Y1321917D01*
X1070305Y1321917D01*
X1074216Y1321155D01*
X1077518Y1318971D01*
X1079754Y1315669D01*
X1080465Y1311757D01*
X1080465Y1242974D01*
X1081074Y1237843D01*
X1082548Y1233525D01*
X1084986Y1229664D01*
X1088237Y1226413D01*
X1092098Y1223975D01*
X1096416Y1222502D01*
X1101547Y1221892D01*
X1260398Y1221892D01*
X1265529Y1222502D01*
X1269847Y1223975D01*
X1273708Y1226413D01*
X1276959Y1229664D01*
X1279448Y1233525D01*
X1280922Y1237843D01*
X1281480Y1242974D01*
X1281480Y1541830D01*
X1280922Y1546961D01*
X1279448Y1551279D01*
X1276959Y1555140D01*
X1273708Y1558391D01*
X1269949Y1560728D01*
X1266850Y1563776D01*
X1265377Y1567840D01*
X1265631Y1572158D01*
X1267663Y1575968D01*
X1271168Y1578610D01*
X1275384Y1579524D01*
X1329334Y1579524D01*
X1333195Y1578762D01*
X1336497Y1576527D01*
X1338681Y1573225D01*
X1339443Y1569364D01*
X1339443Y1048258D01*
X1338681Y1044397D01*
X1336497Y1041095D01*
X1333195Y1038860D01*
X1329334Y1038098D01*
X1120546Y1038098D01*
X1115415Y1037539D01*
X1111097Y1036015D01*
X1107236Y1033576D01*
X1103985Y1030325D01*
X1101547Y1026464D01*
X1100074Y1022146D01*
X1099464Y1017016D01*
X1099464Y398170D01*
X1100074Y393039D01*
X1101547Y388721D01*
X1103985Y384860D01*
X1107236Y381660D01*
X1111097Y379222D01*
X1115415Y377698D01*
G37*
G36*
X3294430Y386334D02*
G01*
X3331057Y386334D01*
X3331057Y420522D01*
X3315462Y420522D01*
X3310432Y419912D01*
X3306114Y418439D01*
X3302152Y416001D01*
X3298951Y412750D01*
X3296513Y408889D01*
X3294989Y404571D01*
X3294430Y399440D01*
G37*
G36*
X3388766Y386334D02*
G01*
X3425393Y386334D01*
X3425393Y399440D01*
X3424834Y404571D01*
X3423361Y408889D01*
X3420872Y412750D01*
X3417671Y416001D01*
X3413760Y418439D01*
X3409442Y419912D01*
X3404362Y420522D01*
X3388766Y420522D01*
G37*
G36*
X1242466Y2340864D02*
G01*
X1318361Y2340864D01*
X1318361Y2379522D01*
X1263548Y2379522D01*
X1258468Y2378964D01*
X1254150Y2377440D01*
X1250238Y2375001D01*
X1247038Y2371750D01*
X1244549Y2367889D01*
X1243076Y2363571D01*
X1242466Y2358440D01*
G37*
G36*
X353618Y1502410D02*
G01*
X353618Y1559661D01*
X296418Y1559661D01*
X299669Y1553464D01*
X308711Y1540256D01*
X319227Y1528114D01*
X331063Y1517294D01*
X344017Y1507845D01*
G37*
G36*
X2191258Y886206D02*
G01*
X2204516Y886206D01*
X2209596Y886764D01*
X2213914Y888288D01*
X2217775Y890727D01*
X2221077Y893978D01*
X2223414Y897839D01*
X2224938Y902157D01*
X2225598Y907287D01*
X2225598Y921969D01*
X2191258Y921969D01*
G37*
G36*
X486308Y1502410D02*
G01*
X495909Y1507845D01*
X508914Y1517294D01*
X520700Y1528114D01*
X531215Y1540256D01*
X540258Y1553464D01*
X543560Y1559661D01*
X486308Y1559661D01*
G37*
G36*
X3113024Y52781D02*
G01*
X3226866Y52781D01*
X3231946Y53340D01*
X3236264Y54864D01*
X3240227Y57302D01*
X3243427Y60502D01*
X3245815Y64414D01*
X3247390Y68732D01*
X3247948Y73812D01*
X3247948Y130200D01*
X3248761Y134061D01*
X3250895Y137363D01*
X3283000Y169418D01*
X3285947Y171450D01*
X3289452Y172364D01*
X3293059Y171958D01*
X3296259Y170332D01*
X3302152Y164033D01*
X3306114Y161594D01*
X3310432Y160121D01*
X3315462Y159512D01*
X3351936Y159512D01*
X3355797Y158750D01*
X3359048Y156565D01*
X3369157Y146608D01*
X3376066Y141376D01*
X3383584Y137617D01*
X3391611Y135331D01*
X3400450Y134518D01*
X3443071Y134518D01*
X3447186Y133654D01*
X3450590Y131267D01*
X3452723Y127660D01*
X3454552Y122123D01*
X3457041Y118262D01*
X3460242Y115062D01*
X3464102Y112623D01*
X3468420Y111099D01*
X3473602Y110540D01*
X3719423Y110540D01*
X3724554Y111099D01*
X3728821Y112623D01*
X3732682Y115062D01*
X3735984Y118262D01*
X3738372Y122174D01*
X3739946Y126492D01*
X3740454Y131572D01*
X3740454Y228447D01*
X3739946Y233578D01*
X3738372Y237896D01*
X3735984Y241757D01*
X3732682Y245008D01*
X3728821Y247446D01*
X3724554Y248970D01*
X3719423Y249529D01*
X3473602Y249529D01*
X3468420Y248970D01*
X3464102Y247446D01*
X3460242Y245008D01*
X3457041Y241757D01*
X3454552Y237896D01*
X3452723Y232511D01*
X3450590Y229006D01*
X3447287Y226618D01*
X3443325Y225704D01*
X3435858Y225501D01*
X3431844Y226212D01*
X3428492Y228396D01*
X3426206Y231749D01*
X3425393Y235661D01*
X3425393Y259435D01*
X3424834Y264566D01*
X3423361Y268884D01*
X3420872Y272745D01*
X3417671Y275996D01*
X3413760Y278434D01*
X3408375Y280314D01*
X3404819Y282448D01*
X3402431Y285851D01*
X3401568Y290118D01*
X3402431Y294182D01*
X3404819Y297586D01*
X3408375Y299720D01*
X3413760Y301599D01*
X3417671Y304038D01*
X3420872Y307289D01*
X3423361Y311150D01*
X3424834Y315468D01*
X3425393Y320598D01*
X3425393Y333654D01*
X3388766Y333654D01*
X3388766Y290677D01*
X3388004Y286816D01*
X3385769Y283514D01*
X3382467Y281279D01*
X3378606Y280517D01*
X3341268Y280517D01*
X3337407Y281279D01*
X3334054Y283514D01*
X3331870Y286816D01*
X3331057Y290677D01*
X3331057Y333654D01*
X3294430Y333654D01*
X3294430Y320598D01*
X3294989Y315468D01*
X3296513Y311150D01*
X3298951Y307289D01*
X3302152Y304038D01*
X3306114Y301599D01*
X3311448Y299720D01*
X3315004Y297586D01*
X3317392Y294182D01*
X3318256Y289915D01*
X3317392Y285851D01*
X3315004Y282448D01*
X3311448Y280314D01*
X3306114Y278434D01*
X3302152Y275996D01*
X3298951Y272745D01*
X3297377Y270256D01*
X3295091Y267766D01*
X3292144Y266090D01*
X3288792Y265531D01*
X3267354Y265480D01*
X3258820Y264261D01*
X3250895Y261620D01*
X3243529Y257505D01*
X3236722Y251866D01*
X3176625Y191719D01*
X3173323Y189534D01*
X3169412Y188772D01*
X3113024Y188772D01*
X3107893Y188163D01*
X3103575Y186690D01*
X3099663Y184251D01*
X3096463Y181000D01*
X3094075Y177139D01*
X3092500Y172821D01*
X3091942Y167690D01*
X3091942Y73812D01*
X3092500Y68732D01*
X3094075Y64414D01*
X3096463Y60502D01*
X3099663Y57302D01*
X3103575Y54864D01*
X3107893Y53340D01*
G37*
G36*
X2125014Y886206D02*
G01*
X2138172Y886206D01*
X2138172Y921969D01*
X2103932Y921969D01*
X2103932Y907287D01*
X2104491Y902157D01*
X2105964Y897839D01*
X2108454Y893978D01*
X2111654Y890727D01*
X2115515Y888288D01*
X2119833Y886764D01*
G37*
G36*
X3473602Y570534D02*
G01*
X3528364Y570534D01*
X3528364Y609193D01*
X3452520Y609193D01*
X3452520Y591616D01*
X3453079Y586486D01*
X3454552Y582168D01*
X3457041Y578307D01*
X3460242Y575056D01*
X3464102Y572617D01*
X3468420Y571093D01*
G37*
G36*
X3664559Y570534D02*
G01*
X3719423Y570534D01*
X3724554Y571093D01*
X3728821Y572617D01*
X3732682Y575056D01*
X3735984Y578307D01*
X3738372Y582168D01*
X3739946Y586486D01*
X3740454Y591616D01*
X3740454Y609193D01*
X3664559Y609193D01*
G37*
G36*
X2191258Y1127963D02*
G01*
X2225598Y1127963D01*
X2225598Y1142644D01*
X2224938Y1147775D01*
X2223414Y1152093D01*
X2221077Y1155954D01*
X2217775Y1159205D01*
X2213914Y1161643D01*
X2209596Y1163167D01*
X2204516Y1163726D01*
X2191258Y1163726D01*
G37*
G36*
X2103932Y1127963D02*
G01*
X2138172Y1127963D01*
X2138172Y1163726D01*
X2125014Y1163726D01*
X2119833Y1163167D01*
X2115515Y1161643D01*
X2111654Y1159205D01*
X2108454Y1155954D01*
X2105964Y1152093D01*
X2104491Y1147775D01*
X2103932Y1142644D01*
G37*
G36*
X2125014Y1036319D02*
G01*
X2138172Y1036319D01*
X2138172Y1072083D01*
X2103932Y1072083D01*
X2103932Y1057402D01*
X2104491Y1052271D01*
X2105964Y1047953D01*
X2108454Y1044092D01*
X2111654Y1040841D01*
X2115515Y1038402D01*
X2119833Y1036878D01*
G37*
G36*
X2191258Y1036319D02*
G01*
X2204516Y1036319D01*
X2209596Y1036878D01*
X2213914Y1038402D01*
X2217775Y1040841D01*
X2221077Y1044092D01*
X2223414Y1047953D01*
X2224938Y1052271D01*
X2225598Y1057402D01*
X2225598Y1072083D01*
X2191258Y1072083D01*
G37*
G36*
X2191258Y977849D02*
G01*
X2225598Y977849D01*
X2225598Y992530D01*
X2224938Y997661D01*
X2223414Y1001979D01*
X2221077Y1005840D01*
X2217775Y1009091D01*
X2213914Y1011529D01*
X2209596Y1013053D01*
X2204516Y1013612D01*
X2191258Y1013612D01*
G37*
G36*
X2103932Y977849D02*
G01*
X2138172Y977849D01*
X2138172Y1013612D01*
X2125014Y1013612D01*
X2119833Y1013053D01*
X2115515Y1011529D01*
X2111654Y1009091D01*
X2108454Y1005840D01*
X2105964Y1001979D01*
X2104491Y997661D01*
X2103932Y992530D01*
G37*
G36*
X1805482Y967028D02*
G01*
X1974443Y967028D01*
X1979574Y967587D01*
X1983892Y969111D01*
X1987804Y971550D01*
X1991004Y974801D01*
X1993493Y978662D01*
X1994966Y982980D01*
X1995525Y988110D01*
X1995525Y1107694D01*
X1994966Y1112824D01*
X1993493Y1117142D01*
X1991004Y1121003D01*
X1987804Y1124254D01*
X1983892Y1126693D01*
X1979574Y1128217D01*
X1974443Y1128776D01*
X1960625Y1128776D01*
X1956714Y1129538D01*
X1953463Y1131773D01*
X1951228Y1135024D01*
X1950516Y1138936D01*
X1950516Y1141425D01*
X1951228Y1145336D01*
X1953463Y1148588D01*
X1956714Y1150823D01*
X1960625Y1151585D01*
X1974443Y1151585D01*
X1979574Y1152144D01*
X1983892Y1153668D01*
X1987804Y1156106D01*
X1991004Y1159357D01*
X1993493Y1163218D01*
X1994966Y1167536D01*
X1995525Y1172667D01*
X1995525Y1292250D01*
X1994966Y1297381D01*
X1993493Y1301699D01*
X1991004Y1305560D01*
X1987804Y1308811D01*
X1983892Y1311249D01*
X1979574Y1312773D01*
X1974443Y1313332D01*
X1805482Y1313332D01*
X1800352Y1312773D01*
X1796084Y1311249D01*
X1792224Y1308811D01*
X1788922Y1305560D01*
X1786534Y1301699D01*
X1785061Y1297381D01*
X1784400Y1292250D01*
X1784400Y1201978D01*
X1783638Y1198118D01*
X1781454Y1194816D01*
X1778152Y1192631D01*
X1774291Y1191818D01*
X1747977Y1191818D01*
X1744014Y1192631D01*
X1740763Y1194816D01*
X1726895Y1208684D01*
X1724761Y1211681D01*
X1723948Y1215186D01*
X1724304Y1218793D01*
X1725980Y1222044D01*
X1728622Y1224483D01*
X1731772Y1226413D01*
X1734921Y1229664D01*
X1737360Y1233525D01*
X1738934Y1237843D01*
X1739493Y1242974D01*
X1739493Y1541830D01*
X1738934Y1546961D01*
X1737360Y1551279D01*
X1734921Y1555140D01*
X1731772Y1558391D01*
X1727911Y1560830D01*
X1723542Y1562354D01*
X1718411Y1562912D01*
X1559560Y1562912D01*
X1554429Y1562354D01*
X1550111Y1560830D01*
X1546250Y1558391D01*
X1542999Y1555140D01*
X1540611Y1551279D01*
X1539036Y1546961D01*
X1538478Y1541830D01*
X1538478Y1242974D01*
X1539036Y1237843D01*
X1540611Y1233525D01*
X1542999Y1229664D01*
X1546250Y1226413D01*
X1550111Y1224026D01*
X1554429Y1222502D01*
X1559560Y1221892D01*
X1568297Y1221892D01*
X1572107Y1221181D01*
X1575308Y1219149D01*
X1577492Y1216050D01*
X1578457Y1212342D01*
X1578965Y1203299D01*
X1579270Y1201267D01*
X1581658Y1191615D01*
X1584706Y1184300D01*
X1589836Y1175715D01*
X1596390Y1168044D01*
X1675638Y1088796D01*
X1681683Y1083462D01*
X1690065Y1078026D01*
X1691893Y1077061D01*
X1701190Y1073404D01*
X1710943Y1071321D01*
X1718970Y1070864D01*
X1774291Y1070864D01*
X1778152Y1070051D01*
X1781454Y1067866D01*
X1783638Y1064564D01*
X1784400Y1060704D01*
X1784400Y988110D01*
X1785061Y982980D01*
X1786534Y978662D01*
X1788922Y974801D01*
X1792224Y971550D01*
X1796084Y969111D01*
X1800352Y967587D01*
G37*
G36*
X1938832Y671271D02*
G01*
X1974443Y671271D01*
X1979574Y671830D01*
X1983892Y673354D01*
X1987804Y675792D01*
X1991004Y679043D01*
X1993493Y682904D01*
X1994966Y687222D01*
X1995525Y692353D01*
X1995525Y715619D01*
X1938832Y715619D01*
G37*
G36*
X3664559Y670864D02*
G01*
X3740454Y670864D01*
X3740454Y688441D01*
X3739946Y693572D01*
X3738372Y697890D01*
X3735984Y701751D01*
X3732682Y705002D01*
X3728821Y707440D01*
X3724554Y708964D01*
X3719423Y709523D01*
X3664559Y709523D01*
G37*
G36*
X3452520Y670864D02*
G01*
X3528364Y670864D01*
X3528364Y709523D01*
X3473602Y709523D01*
X3468420Y708964D01*
X3464102Y707440D01*
X3460242Y705002D01*
X3457041Y701751D01*
X3454552Y697890D01*
X3453079Y693572D01*
X3452520Y688441D01*
G37*
G36*
X1805482Y671271D02*
G01*
X1841093Y671271D01*
X1841093Y715619D01*
X1784400Y715619D01*
X1784400Y692353D01*
X1785061Y687222D01*
X1786534Y682904D01*
X1788922Y679043D01*
X1792224Y675792D01*
X1796084Y673354D01*
X1800352Y671830D01*
G37*
G36*
X1576324Y1584502D02*
G01*
X1589379Y1584502D01*
X1594561Y1585112D01*
X1598879Y1586636D01*
X1602740Y1589024D01*
X1605940Y1592275D01*
X1608378Y1596136D01*
X1609902Y1600454D01*
X1610461Y1605584D01*
X1610461Y1621180D01*
X1576324Y1621180D01*
G37*

%LPD*%
G36*
X4460138Y25908D02*
G01*
X4456277Y26720D01*
X4452975Y28905D01*
X4450740Y32207D01*
X4450029Y36068D01*
X4450029Y306070D01*
X4450740Y309981D01*
X4452975Y313283D01*
X4456277Y315468D01*
X4460138Y316230D01*
X4534408Y316230D01*
X4539538Y316788D01*
X4543907Y318312D01*
X4547768Y320751D01*
X4550968Y324002D01*
X4553356Y327863D01*
X4554931Y332181D01*
X4555490Y337312D01*
X4555490Y386334D01*
X4556252Y390245D01*
X4558436Y393547D01*
X4567174Y402234D01*
X4570425Y404418D01*
X4574286Y405180D01*
X4578197Y404418D01*
X4581550Y402234D01*
X4583734Y398932D01*
X4584496Y395020D01*
X4584496Y337312D01*
X4585055Y332181D01*
X4586579Y327863D01*
X4588967Y324002D01*
X4592218Y320751D01*
X4596079Y318312D01*
X4604359Y315722D01*
X4607204Y313436D01*
X4609134Y310286D01*
X4609795Y306679D01*
X4609795Y269443D01*
X4609033Y265531D01*
X4606848Y262229D01*
X4603546Y260045D01*
X4599635Y259283D01*
X4500829Y259283D01*
X4495698Y258673D01*
X4491431Y257149D01*
X4487468Y254762D01*
X4484268Y251510D01*
X4481880Y247650D01*
X4480306Y243332D01*
X4479747Y238201D01*
X4479747Y81838D01*
X4480306Y76758D01*
X4481880Y72440D01*
X4484268Y68529D01*
X4487468Y65328D01*
X4491431Y62890D01*
X4495698Y61366D01*
X4500829Y60807D01*
X4657191Y60807D01*
X4662271Y61366D01*
X4666589Y62890D01*
X4670450Y65328D01*
X4673752Y68529D01*
X4676140Y72440D01*
X4677613Y76758D01*
X4678273Y81838D01*
X4678273Y211632D01*
X4678527Y214223D01*
X4680356Y220929D01*
X4680813Y226771D01*
X4680813Y306679D01*
X4681474Y310286D01*
X4683404Y313436D01*
X4686350Y315722D01*
X4694478Y318312D01*
X4698339Y320751D01*
X4701641Y324002D01*
X4704029Y327863D01*
X4705604Y332181D01*
X4706112Y337312D01*
X4706112Y422554D01*
X4705604Y427685D01*
X4704029Y432003D01*
X4701641Y435864D01*
X4698339Y439115D01*
X4694478Y441553D01*
X4690211Y443077D01*
X4685080Y443636D01*
X4633061Y443636D01*
X4629200Y444398D01*
X4625898Y446582D01*
X4623663Y449884D01*
X4622952Y453796D01*
X4623663Y457657D01*
X4625898Y460959D01*
X4704689Y539800D01*
X4709668Y545947D01*
X4713071Y552551D01*
X4715002Y559866D01*
X4715459Y565658D01*
X4715459Y779780D01*
X4716272Y783691D01*
X4718456Y786993D01*
X4721758Y789178D01*
X4725619Y789940D01*
X4729530Y789178D01*
X4732832Y786993D01*
X4756200Y763676D01*
X4758334Y760374D01*
X4759147Y756462D01*
X4759147Y453186D01*
X4758436Y449580D01*
X4756505Y446430D01*
X4753610Y444144D01*
X4745431Y441553D01*
X4741570Y439115D01*
X4738319Y435864D01*
X4735880Y432003D01*
X4734407Y427685D01*
X4733848Y422554D01*
X4733848Y337312D01*
X4734407Y332181D01*
X4735880Y327863D01*
X4738319Y324002D01*
X4741570Y320751D01*
X4745431Y318312D01*
X4749749Y316788D01*
X4754930Y316230D01*
X4834432Y316230D01*
X4839512Y316788D01*
X4843830Y318312D01*
X4847691Y320751D01*
X4850993Y324002D01*
X4853381Y327863D01*
X4854854Y332181D01*
X4855514Y337312D01*
X4855514Y422554D01*
X4854854Y427685D01*
X4853381Y432003D01*
X4850993Y435864D01*
X4847691Y439115D01*
X4843830Y441553D01*
X4835601Y444144D01*
X4832705Y446430D01*
X4830775Y449580D01*
X4830114Y453186D01*
X4830114Y774852D01*
X4829251Y782777D01*
X4826965Y789787D01*
X4823206Y796340D01*
X4819446Y800760D01*
X4732020Y888187D01*
X4729784Y891489D01*
X4729073Y895350D01*
X4729784Y899261D01*
X4732020Y902563D01*
X4735322Y904748D01*
X4739182Y905510D01*
X4856073Y905510D01*
X4859934Y904748D01*
X4863236Y902563D01*
X4998516Y767283D01*
X5000701Y763981D01*
X5001463Y760120D01*
X5001463Y663549D01*
X5002276Y655675D01*
X5004562Y648614D01*
X5008372Y642061D01*
X5012131Y637641D01*
X5056124Y593699D01*
X5058308Y590397D01*
X5059070Y586486D01*
X5059070Y453186D01*
X5058410Y449580D01*
X5056479Y446430D01*
X5053634Y444144D01*
X5045456Y441553D01*
X5041595Y439115D01*
X5038293Y435864D01*
X5035854Y432003D01*
X5034330Y427685D01*
X5033772Y422554D01*
X5033772Y337312D01*
X5034330Y332181D01*
X5035854Y327863D01*
X5038293Y324002D01*
X5041595Y320751D01*
X5045456Y318312D01*
X5049774Y316788D01*
X5054854Y316230D01*
X5134356Y316230D01*
X5139486Y316788D01*
X5143804Y318312D01*
X5147665Y320751D01*
X5150916Y324002D01*
X5153304Y327863D01*
X5154879Y332181D01*
X5155438Y337312D01*
X5155438Y422554D01*
X5154879Y427685D01*
X5153304Y432003D01*
X5150916Y435864D01*
X5147665Y439115D01*
X5143804Y441553D01*
X5135575Y444144D01*
X5132679Y446430D01*
X5130749Y449580D01*
X5130088Y453186D01*
X5130088Y570179D01*
X5130850Y574090D01*
X5133035Y577342D01*
X5136388Y579577D01*
X5140248Y580339D01*
X5144109Y579577D01*
X5147411Y577342D01*
X5224170Y500634D01*
X5230317Y495655D01*
X5236972Y492302D01*
X5244236Y490321D01*
X5250027Y489864D01*
X5326786Y489864D01*
X5330393Y489204D01*
X5333593Y487273D01*
X5335828Y484378D01*
X5338470Y476148D01*
X5340858Y472287D01*
X5344109Y469036D01*
X5347970Y466648D01*
X5352288Y465124D01*
X5357418Y464515D01*
X5442661Y464515D01*
X5447792Y465124D01*
X5452110Y466648D01*
X5460034Y471982D01*
X5463895Y472744D01*
X5467858Y471982D01*
X5471058Y469798D01*
X5473293Y466496D01*
X5474055Y462584D01*
X5474055Y437489D01*
X5473293Y433578D01*
X5471058Y430276D01*
X5467858Y428091D01*
X5463895Y427329D01*
X5460034Y428091D01*
X5455970Y431038D01*
X5452110Y433425D01*
X5447792Y434949D01*
X5442661Y435559D01*
X5357418Y435559D01*
X5352288Y434949D01*
X5347970Y433425D01*
X5344109Y431038D01*
X5340858Y427786D01*
X5338470Y423926D01*
X5336895Y419608D01*
X5336336Y414477D01*
X5336336Y334975D01*
X5336895Y329844D01*
X5338470Y325526D01*
X5340858Y321665D01*
X5344109Y318414D01*
X5347970Y315976D01*
X5352288Y314452D01*
X5355590Y314096D01*
X5359095Y313029D01*
X5361940Y310794D01*
X5363870Y307644D01*
X5364530Y303987D01*
X5364530Y268478D01*
X5363616Y264160D01*
X5360924Y260705D01*
X5357063Y258673D01*
X5352745Y258419D01*
X5350916Y258724D01*
X5337657Y259181D01*
X5324500Y257860D01*
X5311597Y254762D01*
X5299202Y250037D01*
X5287568Y243636D01*
X5276900Y235813D01*
X5267401Y226567D01*
X5259171Y216154D01*
X5252415Y204774D01*
X5247284Y192582D01*
X5243779Y179781D01*
X5241950Y166674D01*
X5241950Y153416D01*
X5243779Y140258D01*
X5247284Y127457D01*
X5252415Y115265D01*
X5259171Y103885D01*
X5267401Y93472D01*
X5276900Y84277D01*
X5287568Y76403D01*
X5299202Y70053D01*
X5311597Y65278D01*
X5324500Y62179D01*
X5337657Y60858D01*
X5350916Y61315D01*
X5363972Y63500D01*
X5376672Y67462D01*
X5388711Y72999D01*
X5399836Y80162D01*
X5409996Y88696D01*
X5418836Y98552D01*
X5426354Y109474D01*
X5432348Y121310D01*
X5436666Y133807D01*
X5439308Y146812D01*
X5440172Y160020D01*
X5439308Y173228D01*
X5436666Y186232D01*
X5432501Y198221D01*
X5431942Y202184D01*
X5435092Y213664D01*
X5435549Y219506D01*
X5435549Y303987D01*
X5436209Y307644D01*
X5438140Y310794D01*
X5441086Y313029D01*
X5444591Y314096D01*
X5447792Y314452D01*
X5452110Y315976D01*
X5460034Y321360D01*
X5463895Y322122D01*
X5467858Y321360D01*
X5471058Y319125D01*
X5473293Y315823D01*
X5474055Y311962D01*
X5474055Y36068D01*
X5473293Y32207D01*
X5471058Y28905D01*
X5467858Y26720D01*
X5463895Y25908D01*
G37*

%LPC*%
G36*
X4829657Y60858D02*
G01*
X4842916Y61315D01*
X4855972Y63500D01*
X4868672Y67462D01*
X4880711Y72999D01*
X4891836Y80162D01*
X4901996Y88696D01*
X4910836Y98552D01*
X4918354Y109474D01*
X4924348Y121310D01*
X4928666Y133807D01*
X4931308Y146812D01*
X4932172Y160020D01*
X4931308Y173228D01*
X4928666Y186232D01*
X4925822Y194513D01*
X4925263Y198272D01*
X4926076Y201930D01*
X4928209Y205028D01*
X4970018Y246837D01*
X4975047Y253034D01*
X4978349Y259638D01*
X4980381Y266903D01*
X4980838Y272745D01*
X4980838Y306679D01*
X4981498Y310286D01*
X4983429Y313436D01*
X4986274Y315722D01*
X4994452Y318312D01*
X4998313Y320751D01*
X5001564Y324002D01*
X5004054Y327863D01*
X5005527Y332181D01*
X5006086Y337312D01*
X5006086Y422554D01*
X5005527Y427685D01*
X5004054Y432003D01*
X5001564Y435864D01*
X4998313Y439115D01*
X4994452Y441553D01*
X4990134Y443077D01*
X4985004Y443636D01*
X4905502Y443636D01*
X4900422Y443077D01*
X4896104Y441553D01*
X4892192Y439115D01*
X4888941Y435864D01*
X4886604Y432003D01*
X4885029Y427685D01*
X4884420Y422554D01*
X4884420Y337312D01*
X4885029Y332181D01*
X4886604Y327863D01*
X4888941Y324002D01*
X4892192Y320751D01*
X4896104Y318312D01*
X4904282Y315722D01*
X4907229Y313436D01*
X4909159Y310286D01*
X4909769Y306679D01*
X4909769Y291236D01*
X4909058Y287375D01*
X4906873Y284073D01*
X4878070Y255371D01*
X4875123Y253288D01*
X4871516Y252374D01*
X4867910Y252831D01*
X4855972Y256540D01*
X4842916Y258724D01*
X4829657Y259181D01*
X4816500Y257860D01*
X4803597Y254762D01*
X4791202Y250037D01*
X4779568Y243636D01*
X4768900Y235813D01*
X4759401Y226567D01*
X4751171Y216154D01*
X4744415Y204774D01*
X4739284Y192582D01*
X4735779Y179781D01*
X4733950Y166674D01*
X4733950Y153416D01*
X4735779Y140258D01*
X4739284Y127457D01*
X4744415Y115265D01*
X4751171Y103885D01*
X4759401Y93472D01*
X4768900Y84277D01*
X4779568Y76403D01*
X4791202Y70053D01*
X4803597Y65278D01*
X4816500Y62179D01*
G37*
G36*
X5083657Y60858D02*
G01*
X5096916Y61315D01*
X5109972Y63500D01*
X5122672Y67462D01*
X5134711Y72999D01*
X5145836Y80162D01*
X5155996Y88696D01*
X5164836Y98552D01*
X5172354Y109474D01*
X5178348Y121310D01*
X5182666Y133807D01*
X5185308Y146812D01*
X5186172Y160020D01*
X5185308Y173228D01*
X5182666Y186232D01*
X5179822Y194513D01*
X5179263Y198272D01*
X5180076Y201930D01*
X5182209Y205028D01*
X5269992Y292811D01*
X5275072Y299110D01*
X5277612Y303784D01*
X5279491Y309626D01*
X5281422Y312978D01*
X5284368Y315417D01*
X5288026Y316585D01*
X5290159Y316788D01*
X5294477Y318312D01*
X5298338Y320751D01*
X5301538Y324002D01*
X5303977Y327863D01*
X5305501Y332181D01*
X5306060Y337312D01*
X5306060Y422554D01*
X5305501Y427685D01*
X5303977Y432003D01*
X5301538Y435864D01*
X5298338Y439115D01*
X5294477Y441553D01*
X5290159Y443077D01*
X5284978Y443636D01*
X5205476Y443636D01*
X5200345Y443077D01*
X5196027Y441553D01*
X5192166Y439115D01*
X5188915Y435864D01*
X5186527Y432003D01*
X5185054Y427685D01*
X5184394Y422554D01*
X5184394Y337312D01*
X5185054Y332181D01*
X5186527Y327863D01*
X5189169Y323596D01*
X5190490Y320446D01*
X5190693Y317093D01*
X5189728Y313791D01*
X5187746Y310997D01*
X5132070Y255371D01*
X5129123Y253288D01*
X5125516Y252374D01*
X5121910Y252831D01*
X5109972Y256540D01*
X5096916Y258724D01*
X5083657Y259181D01*
X5070500Y257860D01*
X5057597Y254762D01*
X5045202Y250037D01*
X5033568Y243636D01*
X5022900Y235813D01*
X5013401Y226567D01*
X5005171Y216154D01*
X4998415Y204774D01*
X4993284Y192582D01*
X4989779Y179781D01*
X4987950Y166674D01*
X4987950Y153416D01*
X4989779Y140258D01*
X4993284Y127457D01*
X4998415Y115265D01*
X5005171Y103885D01*
X5013401Y93472D01*
X5022900Y84277D01*
X5033568Y76403D01*
X5045202Y70053D01*
X5057597Y65278D01*
X5070500Y62179D01*
G37*

%LPD*%
D10*
X1229994Y99999D02*
G01*
X1119997Y99999D01*
X1182738Y269999D02*
G01*
X1229994Y222742D01*
X1229994Y99999D01*
X949998Y245336D02*
G01*
X974661Y269999D01*
X1182738Y269999D01*
X949998Y404662D02*
G01*
X949998Y245336D01*
D11*
X419988Y465988D02*
G01*
X509336Y555335D01*
X949998Y555335D01*
D12*
X1409994Y1649996D02*
G01*
X1409994Y1826498D01*
X1386509Y1849983D01*
X419999Y2133996D02*
G01*
X586005Y2300003D01*
X1079995Y2300003D01*
X419988Y973988D02*
G01*
X838398Y1392397D01*
X1180980Y1392397D01*
X1410004Y1649984D02*
G01*
X1409974Y1649953D01*
X1409974Y707593D01*
X1080010Y1840001D02*
G01*
X1080010Y1779986D01*
X1210012Y1649984D01*
X1410004Y1649984D01*
D11*
X1879998Y1131313D02*
G01*
X1718680Y1131313D01*
X1638985Y1211008D01*
X1638985Y1392402D01*
X1889988Y1232433D02*
G01*
X1889988Y1057549D01*
X1879998Y1047559D01*
D13*
X3709995Y1999993D02*
G01*
X3879999Y1999998D01*
D14*
X3707917Y2554655D02*
G01*
X3709949Y1999919D01*
D13*
X3492037Y2243503D02*
G01*
X3492037Y2554645D01*
D10*
X4119905Y710107D02*
G01*
X3899941Y710107D01*
X3689883Y919911D01*
X3689883Y1049959D01*
D13*
X4107746Y1435003D02*
G01*
X4220979Y1435003D01*
X4301997Y1353982D01*
X4301997Y1246987D01*
X4107713Y1485061D02*
G01*
X4250969Y1485061D01*
X4368063Y1367967D01*
X4368063Y1182039D01*
X4480077Y1070025D01*
X4789957Y1070025D01*
X4107713Y1535099D02*
G01*
X4276877Y1535099D01*
X4402099Y1409877D01*
X4540021Y1409877D01*
X4107713Y1284909D02*
G01*
X4107713Y1222171D01*
X4199915Y1129969D01*
X4199915Y1099997D01*
X4189984Y1999996D02*
G01*
X4189981Y1999998D01*
X4020009Y1999998D01*
X4034993Y1707743D02*
G01*
X4034993Y1754995D01*
X4189984Y1909986D01*
X4189984Y1999996D01*
D12*
X1780672Y2080006D02*
G01*
X1953488Y2080006D01*
X1386509Y2080006D02*
G01*
X1780672Y2080006D01*
D11*
X2107242Y2080000D02*
G01*
X2279987Y2079995D01*
X1953488Y2080006D02*
G01*
X2107242Y2080000D01*
D13*
X2700007Y1401241D02*
G01*
X2700007Y1479984D01*
X2645331Y1534660D01*
X2645331Y1599996D01*
X2749994Y1401241D02*
G01*
X2749994Y1479997D01*
X2794657Y1524660D01*
X2794657Y1599996D01*
X3612240Y1284991D02*
G01*
X3165000Y1284991D01*
X3019993Y1429997D01*
X2828762Y1429997D01*
X2800007Y1401241D01*
X2876181Y1224991D02*
G01*
X3005002Y1224991D01*
X3029993Y1200000D01*
X2700004Y1198750D02*
G01*
X2699994Y1198740D01*
X2699994Y1040003D01*
X2405004Y761509D02*
G01*
X2405004Y860325D01*
X2315331Y949998D01*
X2705003Y761509D02*
G01*
X2705003Y894989D01*
X2659994Y939998D01*
X2629994Y939998D01*
X2469995Y1099997D01*
X2315331Y1099997D01*
X3684986Y1212245D02*
G01*
X3684986Y1055006D01*
X3689995Y1049997D01*
X4107743Y1635003D02*
G01*
X4107743Y1584990D01*
X4107746Y1584990D02*
G01*
X4284883Y1584990D01*
X4309948Y1610055D01*
X3984985Y1707748D02*
G01*
X3934998Y1707748D01*
X4539990Y1409999D02*
G01*
X4634986Y1409999D01*
X4744999Y1520012D01*
X4789985Y1069995D02*
G01*
X4789985Y1109992D01*
X4915001Y1235008D01*
X4915001Y1299997D01*
X5119979Y1834692D02*
G01*
X5241691Y1834692D01*
X5339991Y1932993D01*
X5119979Y2285339D02*
G01*
X5241648Y2285339D01*
X5339991Y2186993D01*
X4998999Y1984933D02*
G01*
X5119903Y1985441D01*
X4107746Y1384990D02*
G01*
X4167982Y1384990D01*
X4232986Y1319987D01*
X5000015Y2134031D02*
G01*
X5119903Y2134539D01*
X4107733Y1334996D02*
G01*
X4149973Y1334996D01*
X4172460Y1312517D01*
X4172460Y1257526D01*
X4329988Y1099997D01*
X2504973Y761415D02*
G01*
X2504973Y854887D01*
X2530119Y880033D01*
X2579903Y880033D01*
X2605049Y854887D01*
X2605049Y761415D01*
X2604998Y480009D02*
G01*
X2605003Y480014D01*
X2605003Y761512D01*
X2455951Y550087D02*
G01*
X2454935Y761415D01*
X2554991Y761509D02*
G01*
X2554991Y654994D01*
X2539994Y639998D01*
X2455511Y639998D01*
X5340990Y159999D02*
G01*
X5400065Y219075D01*
X5400065Y374675D01*
X5086990Y159999D02*
G01*
X5245277Y318287D01*
X5245277Y379907D01*
X4832990Y159999D02*
G01*
X4945303Y272313D01*
X4945303Y379907D01*
X4578990Y159999D02*
G01*
X4645329Y226339D01*
X4645329Y379907D01*
X4034993Y1212245D02*
G01*
X4034993Y1194993D01*
X4099991Y1129995D01*
D10*
X1819935Y1679882D02*
G01*
X1889988Y1609826D01*
X1889988Y1528191D01*
D13*
X3984985Y1212245D02*
G01*
X3984985Y1126002D01*
X4055998Y1054989D01*
X5400065Y525348D02*
G01*
X5249638Y525348D01*
X5088989Y685998D01*
X5088989Y791997D01*
X4890988Y989998D01*
X4719990Y989998D01*
X4685990Y1023998D01*
X4116992Y1023998D01*
X4083992Y990998D01*
X4030992Y990998D01*
X3934998Y1086993D01*
X3934998Y1212245D01*
X3884985Y1212245D02*
G01*
X3884985Y1071003D01*
X4010992Y944996D01*
X4105991Y944996D01*
X4135991Y974996D01*
X4660991Y974996D01*
X4694989Y940998D01*
X4874988Y940998D01*
X5036990Y778997D01*
X5036990Y662998D01*
X5094604Y605383D01*
X5094604Y379907D01*
X3834998Y1212245D02*
G01*
X3834998Y1053990D01*
X3989992Y898997D01*
X4126991Y898997D01*
X4155993Y927999D01*
X4641989Y927999D01*
X4794630Y775357D01*
X4794630Y379907D01*
X3784986Y1212245D02*
G01*
X3784986Y1035004D01*
X3969992Y849998D01*
X4144992Y849998D01*
X4176991Y881997D01*
X4617991Y881997D01*
X4679990Y819998D01*
X4679990Y565241D01*
X4494656Y379907D01*
X3612245Y1535003D02*
G01*
X3410005Y1535003D01*
X3410000Y1534998D01*
X3734998Y1707748D02*
G01*
X3734998Y1754990D01*
X3719992Y1769996D01*
X3709992Y1779996D01*
X3659992Y1779996D01*
X3629992Y1779996D01*
X3589992Y1739996D01*
X5393992Y1202992D02*
G01*
X5400319Y1196665D01*
X5400319Y1099997D01*
X5400319Y1099997D02*
G01*
X5399994Y1099672D01*
X5399994Y929998D01*
X5249989Y759998D02*
G01*
X5369989Y759998D01*
X5399989Y789998D01*
X5399991Y929998D01*
D10*
X2279987Y2079995D02*
G01*
X2279987Y1660004D01*
X2340122Y1599869D01*
X2494661Y1599869D01*
X2494658Y1599867D02*
G01*
X2494658Y1185331D01*
X2639987Y1040003D01*
X2699994Y1040003D01*
D13*
X2305004Y761509D02*
G01*
X2305004Y684989D01*
X2359995Y629998D01*
X2709994Y629998D02*
G01*
X2754990Y674994D01*
X2754990Y761484D01*
D10*
X3169993Y120759D02*
G01*
X3269231Y219997D01*
X3359993Y219997D01*
X3359993Y219997D02*
G01*
X3399995Y179994D01*
X3596485Y179994D01*
X3596485Y409991D02*
G01*
X4163489Y409991D01*
D13*
X3934434Y1840001D02*
G01*
X3934993Y1839442D01*
X3934993Y1707748D01*
X3612159Y1334947D02*
G01*
X3184931Y1334947D01*
X3100095Y1420037D01*
X3100095Y1649907D01*
X3050057Y1699945D01*
X2839999Y1699945D01*
X2794533Y1654733D01*
X2794533Y1600123D01*
X3612159Y1384985D02*
G01*
X3204997Y1384985D01*
X3149879Y1440103D01*
X3149879Y1669973D01*
X3069869Y1749983D01*
X2689885Y1749983D01*
X2645435Y1705279D01*
X2645435Y1600123D01*
D10*
X2279987Y2079995D02*
G01*
X2704439Y2079995D01*
X2924436Y1859998D01*
X3044436Y1859996D01*
X3044436Y1859996D02*
G01*
X3394435Y1859996D01*
X3394435Y1859996D02*
G01*
X3774447Y1859996D01*
X3794445Y1839998D01*
X3394435Y1859996D02*
G01*
X3409995Y1844436D01*
X3409995Y1534995D01*
X2924436Y1499999D02*
G01*
X2945307Y1520870D01*
X2945307Y1599869D01*
X4634433Y1919998D02*
G01*
X4634433Y1659999D01*
X4584428Y1609994D01*
X4489991Y1609994D01*
X4489983Y1610029D02*
G01*
X4309897Y1610029D01*
X4634433Y1919998D02*
G01*
X4774432Y1919998D01*
X5015435Y1678995D01*
X5339989Y1678995D01*
X5339989Y1678995D02*
G01*
X5339989Y1515557D01*
X5249654Y1425221D01*
X5249654Y1099997D01*
X4163494Y409994D02*
G01*
X4120006Y453478D01*
X4120006Y710006D01*
D13*
X2754990Y761484D02*
G01*
X2785013Y761484D01*
D10*
X3082061Y807897D02*
G01*
X3049041Y840917D01*
X2860065Y840917D01*
X2850921Y832027D01*
D13*
X2860065Y840917D02*
G01*
X2835000Y815853D01*
X2835000Y761509D01*
X2864998Y761509D02*
G01*
X2864998Y784438D01*
X2921477Y840917D01*
X2785135Y761415D02*
G01*
X2785135Y885113D01*
X2806979Y906957D01*
X3143021Y906957D01*
X3169945Y880033D01*
X3169945Y459155D01*
D15*
X3240557Y946073D02*
G01*
X3221918Y946073D01*
X3209993Y957999D01*
X2721993Y957999D01*
X2699994Y979998D01*
X2699994Y1039992D01*
D10*
X3225993Y945997D02*
G01*
X3689995Y946073D01*
X3264435Y946000D02*
G01*
X3264433Y969949D01*
X3264433Y1139875D01*
X3204489Y1200073D01*
X3029991Y1200073D01*
D16*
X3492042Y2534325D02*
G01*
X3492042Y2242225D01*
D14*
X3707942Y2554645D02*
G01*
X3926382Y2554645D01*
X3926382Y2290485D01*
X4177842Y2290485D01*
X4177842Y2554645D01*
X4398822Y2554645D01*
X4398822Y2290485D01*
X4650282Y2290485D01*
X4650282Y2554645D01*
X4871262Y2554645D01*
X4871262Y2389545D01*
X3471722Y2554645D02*
G01*
X3707942Y2554645D01*
X3707942Y2115225D01*
D17*
G01*
X4744989Y1520004D03*
G01*
X4914991Y1299989D03*
G01*
X4744989Y1299989D03*
G01*
X4914991Y1520004D03*
D18*
G01*
X1229994Y99999D03*
G01*
X1369999Y99999D03*
D19*
G01*
X1417294Y269925D03*
G01*
X1182776Y269925D03*
D20*
G01*
X949985Y94778D03*
D21*
G01*
X949985Y245440D03*
D20*
G01*
X949998Y555324D03*
D21*
G01*
X949998Y404662D03*
D18*
G01*
X3710101Y1999919D03*
G01*
X3570096Y1999919D03*
G01*
X4190111Y1999919D03*
G01*
X4330115Y1999919D03*
D22*
G01*
X4309897Y1750136D03*
G01*
X4309897Y1610131D03*
G01*
X4489983Y1749882D03*
G01*
X4489983Y1609877D03*
G01*
X3044469Y1860067D03*
G01*
X3044469Y2000072D03*
G01*
X3214395Y2000072D03*
G01*
X3214395Y1860067D03*
G01*
X3394481Y2000072D03*
G01*
X3394481Y1860067D03*
D18*
G01*
X3550030Y1049959D03*
G01*
X3690035Y1049959D03*
G01*
X5399963Y930071D03*
G01*
X5259959Y930071D03*
G01*
X3409873Y1535099D03*
G01*
X3269868Y1535099D03*
G01*
X1549999Y1649996D03*
G01*
X1409994Y1649996D03*
D22*
G01*
X3029991Y1059967D03*
G01*
X3029991Y1199972D03*
G01*
X2279929Y2220036D03*
G01*
X2279929Y2080031D03*
G01*
X3359937Y359994D03*
G01*
X3359937Y219989D03*
D18*
G01*
X2699893Y1040053D03*
G01*
X2839897Y1040053D03*
G01*
X4260011Y710107D03*
G01*
X4120006Y710107D03*
D23*
G01*
X3169945Y459232D03*
G01*
X3169945Y120751D03*
D24*
G01*
X1889996Y752121D03*
D25*
G01*
X1889996Y1047877D03*
D26*
G01*
X5250002Y759993D03*
G01*
X4450003Y759993D03*
D27*
G01*
X3492042Y2243505D03*
D28*
G01*
X3707942Y2116505D03*
D24*
G01*
X1889996Y1232435D03*
D25*
G01*
X1889996Y1528191D03*
D20*
G01*
X5119989Y1985346D03*
D21*
G01*
X5119979Y1834692D03*
D20*
G01*
X5119989Y2134670D03*
D21*
G01*
X5119979Y2285314D03*
D29*
G01*
X4645318Y379907D03*
G01*
X4494668Y379907D03*
G01*
X4945292Y379907D03*
G01*
X4794642Y379907D03*
G01*
X5245266Y379907D03*
G01*
X5094616Y379907D03*
D20*
G01*
X5400065Y374686D03*
D21*
G01*
X5400065Y525348D03*
D29*
G01*
X2315376Y949883D03*
G01*
X2164726Y949883D03*
G01*
X5400315Y1099997D03*
G01*
X5249665Y1099997D03*
D30*
G01*
X2164726Y1099997D03*
G01*
X2315376Y1099997D03*
D29*
G01*
X2645322Y1599869D03*
G01*
X2494672Y1599869D03*
D30*
G01*
X2794646Y1599869D03*
G01*
X2945296Y1599869D03*
D31*
G01*
X1638993Y1392397D03*
G01*
X1180980Y1392397D03*
D32*
G01*
X1409987Y707588D03*
D33*
G01*
X3596492Y639999D03*
G01*
X3596492Y409999D03*
G01*
X3596492Y179998D03*
D34*
G01*
X4163491Y409999D03*
D18*
G01*
X4789982Y1070000D03*
G01*
X4929987Y1070000D03*
D22*
G01*
X4539995Y1270000D03*
G01*
X4539995Y1410004D03*
D35*
G01*
X3880002Y1999996D03*
G01*
X4019981Y1999996D03*
G01*
X3934434Y1839976D03*
G01*
X3794429Y1839976D03*
D36*
G01*
X4034993Y1707743D03*
G01*
X3984980Y1707743D03*
G01*
X3934993Y1707743D03*
G01*
X3884980Y1707743D03*
G01*
X3834993Y1707743D03*
G01*
X3784980Y1707743D03*
G01*
X3734993Y1707743D03*
G01*
X3684981Y1707743D03*
D37*
G01*
X3612235Y1634998D03*
G01*
X3612235Y1584985D03*
G01*
X3612235Y1534998D03*
G01*
X3612235Y1484985D03*
G01*
X3612235Y1434998D03*
G01*
X3612235Y1384985D03*
G01*
X3612235Y1334998D03*
G01*
X3612235Y1284986D03*
D36*
G01*
X3684981Y1212240D03*
G01*
X3734993Y1212240D03*
G01*
X3784980Y1212240D03*
G01*
X3834993Y1212240D03*
G01*
X3884980Y1212240D03*
G01*
X3934993Y1212240D03*
G01*
X3984980Y1212240D03*
G01*
X4034993Y1212240D03*
D37*
G01*
X4107738Y1284986D03*
G01*
X4107738Y1334998D03*
G01*
X4107738Y1384985D03*
G01*
X4107738Y1434998D03*
G01*
X4107738Y1484985D03*
G01*
X4107738Y1534998D03*
G01*
X4107738Y1584985D03*
G01*
X4107738Y1634998D03*
D38*
G01*
X3859987Y1459992D03*
D33*
G01*
X1386497Y2309996D03*
G01*
X1386497Y2079995D03*
G01*
X1386497Y1849995D03*
D34*
G01*
X1953496Y2079995D03*
D39*
G01*
X2623794Y1375003D03*
G01*
X2623794Y1324991D03*
G01*
X2623794Y1275003D03*
G01*
X2623794Y1224991D03*
D40*
G01*
X2700020Y1198753D03*
G01*
X2750007Y1198753D03*
G01*
X2800019Y1198753D03*
D39*
G01*
X2876194Y1224991D03*
G01*
X2876194Y1275003D03*
G01*
X2876194Y1324991D03*
G01*
X2876194Y1375003D03*
D40*
G01*
X2800019Y1401241D03*
G01*
X2750007Y1401241D03*
G01*
X2700020Y1401241D03*
D41*
G01*
X2194991Y761517D03*
G01*
X2224989Y761517D03*
G01*
X2275001Y761517D03*
G01*
X2304999Y761517D03*
G01*
X2354986Y761492D03*
G01*
X2404998Y761517D03*
G01*
X2454986Y761517D03*
G01*
X2504998Y761517D03*
G01*
X2554986Y761517D03*
G01*
X2604998Y761517D03*
G01*
X2704998Y761517D03*
G01*
X2754985Y761492D03*
G01*
X2785008Y761492D03*
G01*
X2834995Y761517D03*
G01*
X2864993Y761517D03*
G01*
X2654960Y761492D03*
D42*
G01*
X1080007Y2299995D03*
G01*
X1080007Y1840001D03*
D43*
G01*
X419988Y2134006D03*
G01*
X419988Y1626006D03*
G01*
X419988Y973988D03*
G01*
X419988Y465988D03*
D44*
G01*
X2097989Y278511D03*
G01*
X2961995Y278511D03*
D45*
G01*
X2961995Y696518D03*
G01*
X2097989Y696518D03*
D46*
G01*
X5339994Y1678990D03*
D47*
G01*
X5339994Y1932990D03*
G01*
X5339994Y2186990D03*
G01*
X5339994Y2440990D03*
D46*
G01*
X4578984Y159994D03*
D47*
G01*
X4832984Y159994D03*
G01*
X5086984Y159994D03*
G01*
X5340984Y159994D03*
D48*
G01*
X3919981Y1399997D03*
G01*
X3919981Y1519986D03*
G01*
X3799992Y1519986D03*
G01*
X3799992Y1399997D03*
G01*
X4301997Y1246987D03*
G01*
X4998999Y1984984D03*
G01*
X4232986Y1319987D03*
G01*
X4999989Y2134006D03*
G01*
X4329988Y1099997D03*
G01*
X2604998Y480009D03*
G01*
X4199991Y1099997D03*
G01*
X2456002Y549986D03*
G01*
X4099991Y1129995D03*
G01*
X1819986Y1680006D03*
G01*
X4055998Y1054989D03*
G01*
X3589985Y1740001D03*
G01*
X5393994Y1202994D03*
G01*
X2359990Y629996D03*
G01*
X2710002Y629996D03*
G01*
X2924429Y1859991D03*
G01*
X2924429Y1499997D03*
G01*
X4634433Y1919986D03*
G01*
X110007Y2519984D03*
G01*
X499998Y80010D03*
G01*
X2299995Y199999D03*
G01*
X2799994Y199999D03*
G01*
X1849996Y89999D03*
G01*
X999997Y1539996D03*
G01*
X1709996Y299999D03*
G01*
X1689996Y1649996D03*
G01*
X1799996Y2349982D03*
G01*
X4163491Y409981D03*
G01*
X4017136Y186512D03*
G01*
X4299991Y199999D03*
G01*
X4299991Y499999D03*
G01*
X4017136Y509447D03*
G01*
X1953488Y2080006D03*
G01*
X2050008Y2349982D03*
G01*
X2050008Y1849983D03*
G01*
X1799996Y1849983D03*
G01*
X1780666Y2080006D03*
G01*
X2107234Y2080006D03*
G01*
X2650007Y2399995D03*
G01*
X2599994Y1899996D03*
G01*
X2099995Y1649984D03*
G01*
X2199995Y1449984D03*
G01*
X2750007Y1299997D03*
G01*
X3258007Y1696999D03*
G01*
X3507993Y1683994D03*
G01*
X3416985Y1210995D03*
G01*
X3356990Y783005D03*
G01*
X3081985Y807999D03*
G01*
X3835984Y210007D03*
G01*
X4610988Y754989D03*
G01*
X4881981Y756005D03*
G01*
X5092979Y1057986D03*
G01*
X5089982Y1481988D03*
G01*
X5401995Y1334998D03*
G01*
X4835982Y1691005D03*
G01*
X4434001Y1253007D03*
G01*
X5089982Y2529001D03*
G01*
X4519980Y2013991D03*
G01*
X4189984Y1789988D03*
G01*
X4989982Y1840001D03*
G01*
X2860065Y840917D03*
G01*
X2577007Y1488998D03*
G01*
X3007995Y1324991D03*
G01*
X4829987Y2010003D03*
G01*
X2069998Y1210005D03*
G01*
X1829993Y1380007D03*
G01*
X5359984Y640003D03*
G01*
X699998Y1969998D03*
G01*
X3821988Y899998D03*
G01*
X299999Y699998D03*
G01*
X999997Y1059997D03*
G01*
X4929987Y519988D03*
G01*
X3110001Y2399995D03*
G01*
X1359992Y2489987D03*
G01*
X3169996Y1080008D03*
G01*
X1119997Y99999D03*
M02*
